<svg width="701" height="577" viewBox="0 0 701 577" fill="none" xmlns="http://www.w3.org/2000/svg">
<path opacity="0.2" fill-rule="evenodd" clip-rule="evenodd" d="M699.223 191.63C711.539 257.084 639.312 306.07 606.889 364.247C577.568 416.859 565.185 480.066 517.774 517.212C468.366 555.923 401.907 589.584 341.632 572.072C280.962 554.444 272.15 467.934 220.919 430.962C174.165 397.221 101.759 412.926 62.5412 370.661C19.3497 324.113 -2.79039 257.7 1.35383 194.335C5.62476 129.033 31.6781 58.701 85.3895 21.3155C137.632 -15.048 208.279 9.15642 271.856 6.05392C319.236 3.74181 364.788 -3.99567 411.282 5.41219C461.312 15.5355 507.226 34.6329 550.087 62.3524C606.473 98.818 686.807 125.638 699.223 191.63Z" fill="url(#paint0_linear_260_50)"/>
<defs>
<linearGradient id="paint0_linear_260_50" x1="499" y1="-24.5" x2="266.5" y2="481.5" gradientUnits="userSpaceOnUse">
<stop stop-color="white"/>
<stop offset="1" stop-color="white" stop-opacity="0"/>
</linearGradient>
</defs>
</svg>
