<svg width="609" height="578" viewBox="0 0 609 578" fill="none" xmlns="http://www.w3.org/2000/svg">
<path opacity="0.07" fill-rule="evenodd" clip-rule="evenodd" d="M607.802 395.481C602 448.002 543.372 476.46 501.558 508.767C465.009 537.005 425.866 560.609 380.828 570.845C336.086 581.013 290.49 578.163 246.026 566.84C198.184 554.657 153.164 535.299 115.572 503.297C71.4497 465.734 27.7413 423.712 12.2983 367.861C-4.47518 307.199 -5.57411 237.236 27.1372 183.466C59.3937 130.443 128.75 118.889 182.567 87.9775C236.592 56.9468 281.828 5.89001 343.975 1.4819C408.859 -3.12042 486.846 10.8473 524.756 63.7058C563.604 117.874 512.898 194.92 529.083 259.584C542.058 311.417 613.668 342.372 607.802 395.481Z" fill="url(#paint0_linear_260_53)"/>
<defs>
<linearGradient id="paint0_linear_260_53" x1="137" y1="189" x2="343.5" y2="630" gradientUnits="userSpaceOnUse">
<stop offset="0.33044" stop-color="white"/>
<stop offset="1" stop-color="white" stop-opacity="0"/>
</linearGradient>
</defs>
</svg>
