<svg width="323" height="322" viewBox="0 0 323 322" fill="none" xmlns="http://www.w3.org/2000/svg">
<path d="M278 66H92V148H278V66Z" fill="#C1671D"/>
<path d="M150.113 63.558C139.541 75.2652 138.329 92.3465 142.789 107.122C147.25 121.897 156.485 134.973 165.626 147.902C174.767 160.831 183.656 174.191 187.241 189.175L263.895 158.986C263.895 158.986 251.698 125.269 225.859 101.751C204.956 82.7274 217.193 42.696 217.193 42.696L150.113 63.558Z" fill="#FAFAFA"/>
<path d="M150.436 63.2823C150.436 63.2823 150.801 63.1144 151.578 62.8522C152.354 62.59 153.543 62.2097 154.993 61.7262L168.258 57.4597C179.866 53.7823 196.693 48.5156 217.373 41.9828L218.226 41.7249L218.003 42.5357C215.573 51.3769 214.413 60.4864 214.554 69.6288C214.686 74.6545 215.41 79.6562 216.714 84.5454C218.124 89.6781 220.684 94.4867 224.227 98.6571C226.067 100.713 228.137 102.734 230.282 104.783C232.428 106.832 234.361 109.034 236.344 111.262C240.297 115.864 243.961 120.672 247.319 125.662C254.369 136.149 260.214 147.286 264.755 158.889L264.98 159.395L264.409 159.622C261.266 160.881 257.865 162.219 254.463 163.558C231.088 172.856 208.471 181.773 187.826 189.931L187.15 190.199L186.986 189.508C184.487 180.109 180.5 171.093 175.154 162.758C170.199 154.67 164.821 147.312 160.016 140.174C155.375 133.535 151.241 126.607 147.644 119.439C144.525 113.28 142.328 106.762 141.111 100.066C140.163 94.6067 140.089 89.0542 140.893 83.5883C141.506 79.5311 142.727 75.5776 144.522 71.8421C145.64 69.5183 147.015 67.3091 148.625 65.2504L149.954 63.7254C150.253 63.3893 150.415 63.2105 150.439 63.2354C148.213 65.9406 146.343 68.8839 144.869 72.0029C143.185 75.698 142.045 79.5895 141.477 83.574C140.752 88.9731 140.881 94.4483 141.862 99.8263C143.1 106.458 145.302 112.912 148.404 119.011C152.01 126.121 156.157 132.989 160.812 139.56C165.646 146.653 171.048 154.012 176.077 162.151C181.52 170.558 185.572 179.667 188.096 189.17L187.23 188.769L253.84 162.441C257.243 161.079 260.619 159.739 263.786 158.505L263.414 159.261C258.924 147.755 253.161 136.703 246.217 126.282C242.891 121.327 239.258 116.552 235.338 111.982C233.38 109.779 231.419 107.599 229.35 105.554C227.281 103.509 225.183 101.533 223.248 99.3549C219.619 95.0501 216.999 90.0948 215.557 84.8097C214.249 79.8343 213.53 74.7459 213.411 69.6354C213.318 60.3943 214.543 51.1937 217.052 42.2705L217.657 42.822C196.985 49.1905 180.243 54.321 168.564 57.9003C162.803 59.6474 158.233 60.9908 155.214 61.8564C153.717 62.2901 152.631 62.6292 151.703 62.8828C150.774 63.1364 150.436 63.2823 150.436 63.2823Z" fill="#263238"/>
<path d="M153.936 84.4049C153.827 84.0915 164.722 80.07 178.275 75.4417C191.828 70.8129 202.968 67.3724 203.08 67.6388C195.135 71.0091 187.012 74.0006 178.74 76.6019C165.162 81.2293 154.069 84.7195 153.936 84.4049Z" fill="#263238"/>
<path d="M154.757 99.3857C162.332 95.58 170.12 92.1467 178.088 89.0993C191.031 83.7225 201.702 79.6265 201.838 79.9157C194.261 83.7193 186.473 87.1526 178.506 90.2021C170.766 93.636 162.839 96.7011 154.757 99.3857Z" fill="#263238"/>
<path d="M159.096 110.946C161.259 109.822 163.519 108.862 165.853 108.075C170.056 106.416 175.845 104.075 182.186 101.39C188.527 98.7059 194.203 96.1245 198.316 94.2506C200.486 93.1449 202.744 92.1927 205.072 91.4026C203.098 92.7921 200.982 94.0048 198.755 95.0238C194.754 97.1375 189.126 99.7917 182.759 102.498C176.391 105.205 170.509 107.4 166.189 108.865C163.911 109.783 161.534 110.48 159.096 110.946Z" fill="#263238"/>
<path d="M195.815 104.233C179.883 73.7923 174.163 44.7518 179.203 12.6641C166.591 15.5292 142.307 19.8227 129.669 22.6772C120.406 61.7807 133.845 100.589 159.978 133.945C173.326 123.567 182.455 114.546 195.815 104.233Z" fill="#FAFAFA"/>
<path d="M195.815 104.233C195.815 104.233 195.588 104.346 195.213 104.769C194.838 105.193 194.14 105.66 193.338 106.321C191.661 107.702 189.278 109.695 186.186 112.255C180.007 117.421 171.457 125.374 160.155 134.257L159.863 134.403L159.693 134.063C154.889 127.935 150.425 121.511 146.332 114.834C141.731 107.142 137.79 99.0589 134.567 90.7024C131.044 81.5059 128.603 71.9835 127.306 62.3852C125.95 52.1228 126.001 41.8833 127.457 32.0123C127.639 30.3852 127.913 28.7838 128.276 27.2168L129.227 22.5212L129.269 22.2408L129.512 22.1194C147.108 18.294 163.997 15.4826 179.058 12.1709L179.758 12.033L179.636 12.8013C177.648 24.9368 177.341 37.5463 178.723 50.2284C179.825 60.116 182.031 69.9652 185.293 79.5513C187.436 85.7716 189.908 91.8897 192.694 97.8714L195.062 102.606L195.656 103.794L195.863 104.209L195.646 103.775L195.033 102.549C194.496 101.474 193.642 99.9678 192.704 97.8904C189.798 91.9403 187.243 85.8296 185.054 79.5999C181.669 69.9951 179.362 60.1057 178.186 50.1667C176.733 37.3903 176.989 24.678 178.948 12.4379L179.526 13.0682C164.453 16.4336 147.557 19.2721 130.002 23.1L130.324 22.7738L129.371 27.4238C129.054 28.9736 128.746 30.5424 128.565 32.1652C127.132 41.94 127.078 52.0758 128.406 62.2364C129.679 71.7454 132.09 81.1802 135.576 90.292C138.74 98.5951 142.623 106.63 147.166 114.275C151.226 120.969 155.644 127.423 160.391 133.597L159.919 133.503C171.246 124.749 179.923 116.849 186.127 111.813C189.235 109.245 191.697 107.33 193.363 106.048C194.169 105.433 194.841 104.956 195.279 104.619C195.449 104.477 195.628 104.348 195.815 104.233Z" fill="#263238"/>
<path d="M156.287 112.684C160.395 109.024 164.724 105.654 169.252 102.593C173.597 99.2285 178.147 96.1659 182.878 93.4199C178.77 97.0805 174.441 100.45 169.914 103.511C165.568 106.875 161.018 109.938 156.287 112.684Z" fill="#263238"/>
<path d="M148.617 100.746C153.058 97.5524 157.692 94.66 162.498 92.0826C167.111 89.1942 171.91 86.6289 176.87 84.3999C172.43 87.5962 167.795 90.4887 162.988 93.0636C158.369 95.9403 153.57 98.5053 148.617 100.746Z" fill="#263238"/>
<path d="M142.532 85.1396C143.865 84.2669 145.291 83.5536 146.789 83.0103C149.452 81.8199 153.119 80.1273 157.155 78.2031C161.192 76.2786 164.877 74.6241 167.632 73.5764C169.079 72.9185 170.607 72.4466 172.19 72.1693C170.85 73.0183 169.431 73.7281 167.949 74.2906C165.035 75.7479 161.504 77.3484 157.63 79.1919C153.755 81.0354 149.854 82.7036 147.08 83.7132C145.633 84.3671 144.108 84.8452 142.532 85.1396Z" fill="#263238"/>
<path d="M171.203 60.6854C169.865 61.5326 168.422 62.1911 166.902 62.6477C163.325 63.9691 159.667 65.0823 155.942 65.9835C151.59 67.0753 147.584 67.8056 144.684 68.36C143.142 68.7357 141.553 68.9463 139.938 68.9883C141.386 68.3433 142.911 67.8807 144.49 67.6082C147.653 66.8514 151.433 65.9515 155.622 64.9407C159.812 63.9299 163.827 62.7709 166.618 61.9174C168.094 61.3576 169.628 60.9452 171.203 60.6854Z" fill="#263238"/>
<path d="M169.758 49.7841C168.459 50.4329 167.073 50.8962 165.632 51.1639C163.023 51.8558 159.379 52.6639 155.284 53.2976C151.189 53.9309 147.435 54.2755 144.711 54.4122C143.239 54.5791 141.731 54.5413 140.222 54.299C141.628 53.9217 143.079 53.6933 144.556 53.6169C147.244 53.2866 150.922 52.791 155.02 52.2032C159.118 51.6158 162.741 50.8883 165.403 50.3826C166.812 50.013 168.272 49.8124 169.758 49.7841Z" fill="#263238"/>
<path d="M168.966 35.6559C167.636 36.3073 166.224 36.7837 164.758 37.0764C162.11 37.8113 158.405 38.6977 154.288 39.5306C150.171 40.3636 146.389 40.9346 143.643 41.2708C142.172 41.5654 140.655 41.6677 139.121 41.5754C140.507 41.0524 141.958 40.6983 143.449 40.5189C146.498 39.9374 150.072 39.2342 154.001 38.4715C157.931 37.7088 161.503 36.9601 164.532 36.3407C165.966 35.9422 167.452 35.7129 168.966 35.6559Z" fill="#263238"/>
<path d="M112.433 173.456C97.4288 126.823 71.3191 91.1012 28.2486 61.9569C47.2511 53.3441 82.4256 35.4658 101.398 26.836C157.677 59.282 185.419 112.573 191.006 171.577C162.573 173.07 140.926 171.998 112.433 173.456Z" fill="#E0E0E0"/>
<path d="M148.439 47.6042C169.467 91.6639 199.623 122.212 244.801 142.23C227.89 155.34 196.896 181.215 180.008 194.198C121.564 173.715 87.4683 125.701 73.5991 66.9383C100.596 59.1096 121.448 55.4016 148.439 47.6042Z" fill="#EBEBEB"/>
<path d="M148.44 47.6036C148.004 47.6605 147.574 47.7539 147.155 47.8821L143.232 48.8989L128.342 52.5981C115.396 55.8831 96.438 59.7877 73.4559 66.2903L72.8617 66.4387L73.023 66.9917C75.6073 77.8656 78.9239 88.5639 82.9514 99.0157C87.6504 110.859 93.5453 122.219 100.548 132.922C108.248 144.722 117.517 155.467 128.107 164.87C139.452 174.862 152.247 183.139 166.064 189.424C168.29 190.512 170.573 191.48 172.905 192.325L179.756 194.999L180.206 195.084L180.561 194.793C204.038 176.402 225.321 158.344 245.328 142.786L246.347 142.001L245.179 141.485C227.972 134.028 211.956 124.14 197.642 112.138C186.528 102.743 176.64 92.034 168.205 80.2577C162.712 72.6113 157.711 64.6377 153.23 56.3835L149.731 49.743L148.817 48.0676C148.62 47.7033 148.522 47.5215 148.483 47.5471L148.762 48.1877L149.593 49.9453C150.332 51.4897 151.304 53.7316 152.817 56.6312C157.131 64.9975 162.016 73.0714 167.437 80.7971C175.823 92.7174 185.684 103.575 196.79 113.119C211.112 125.257 227.16 135.272 244.418 142.842L244.23 141.566C224.125 157.105 202.722 175.27 179.383 193.459L180.208 193.322L173.415 190.691C171.116 189.853 168.864 188.891 166.67 187.809C152.992 181.607 140.324 173.432 129.09 163.555C118.605 154.284 109.421 143.687 101.78 132.046C94.7974 121.458 88.9022 110.22 84.182 98.4988C80.1505 88.1202 76.7964 77.5035 74.1413 66.7144L73.7024 67.4472C96.5737 60.8258 115.503 56.7197 128.415 53.265C134.9 51.5595 139.895 50.1584 143.248 49.1633L147.008 47.952L148.44 47.6036Z" fill="#263238"/>
<path d="M95.9819 88.6293C104.883 86.6466 113.653 84.1495 122.246 81.1509C131.013 78.6526 139.608 75.6199 147.983 72.0702C139.08 74.0445 130.31 76.542 121.719 79.5488C112.952 82.0465 104.357 85.0796 95.9819 88.6293Z" fill="#263238"/>
<path d="M102.891 107.639C111.587 104.92 120.1 101.676 128.382 97.9243C136.879 94.6722 145.159 90.903 153.172 86.6392C144.504 89.4186 136.024 92.724 127.78 96.5362C119.254 99.7256 110.941 103.434 102.891 107.639Z" fill="#263238"/>
<path d="M115.885 127.741C118.376 126.841 120.761 125.686 123.001 124.294C127.325 122.047 133.304 118.973 139.928 115.661C146.552 112.349 152.581 109.186 156.786 106.688C159.149 105.486 161.346 103.994 163.324 102.25C160.841 103.152 158.452 104.283 156.188 105.627L139.145 114.173C132.483 117.51 126.57 120.761 122.398 123.266C120.047 124.489 117.86 125.992 115.885 127.741Z" fill="#263238"/>
<path d="M176.597 112.838C174.122 113.761 171.768 114.969 169.586 116.435C164.152 119.688 158.892 123.21 153.826 126.988C147.858 131.405 142.689 135.645 139.005 138.732C136.873 140.324 134.931 142.145 133.211 144.161C133.53 144.581 143.044 137.281 154.845 128.456C160.737 124.091 166.386 120.3 170.235 117.571C172.513 116.207 174.644 114.621 176.597 112.838Z" fill="#263238"/>
<path d="M188.625 123.483C186.435 124.503 184.389 125.793 182.534 127.321C178.914 129.897 174.034 133.671 168.925 138.12C163.817 142.569 159.405 146.856 156.364 150.065C154.571 151.739 153.012 153.638 151.727 155.713C152.096 156.045 159.79 148.333 170.009 139.6C180.228 130.866 188.951 123.872 188.625 123.483Z" fill="#263238"/>
<path d="M205.371 135.94C203.137 136.989 201.042 138.301 199.134 139.847C195.321 142.388 190.396 146.218 185.011 150.549C179.625 154.879 174.91 159.011 171.565 162.064C169.641 163.595 167.927 165.366 166.468 167.332C168.588 166.09 170.563 164.627 172.36 162.966L186.099 151.833C191.205 147.743 195.834 143.889 199.852 140.8C201.857 139.371 203.707 137.742 205.371 135.94Z" fill="#263238"/>
<path d="M196.628 76.6599C188.367 82.5327 185.018 94.0915 185.489 105.256C185.957 116.413 189.681 127.402 193.24 138.239C196.799 149.077 200.263 160.201 200.158 171.297L251.696 166.555C251.696 166.555 249.386 140.678 237.142 118.958C227.269 101.412 240.858 76.3718 240.858 76.3718L196.628 76.6599Z" fill="#E0E0E0"/>
<path d="M323 308.997C323 316.179 258.975 322 180 322C101.025 322 37 316.179 37 308.997C37 301.819 101.025 296 180 296C258.975 296 323 301.819 323 308.997Z" fill="#CBECEC"/>
<path d="M74 309H283V160H74V309Z" fill="#E68D21"/>
<path d="M74 176H283V160H74V176Z" fill="#E2811D"/>
<path d="M272 118.684L290.934 90L305 118.684L283.492 160L272 118.684Z" fill="#C1671D"/>
<path d="M86 118.684L67.0635 90L53 118.684L74.5056 160L86 118.684Z" fill="#C1671D"/>
<path d="M296 107H62L74.7174 160H283.283L296 107Z" fill="#D6711B"/>
</svg>
