<svg width="518" height="476" viewBox="0 0 518 476" fill="none" xmlns="http://www.w3.org/2000/svg">
<path d="M400.127 460.889C398.399 460.862 396.679 461.135 395.054 461.695V461.695C395.054 461.695 388.178 460.93 377.253 451.332L371.156 453.848C370.141 454.293 369.294 455.024 368.732 455.941C368.17 456.858 367.919 457.917 368.014 458.975C368.025 459.274 368.088 459.57 368.201 459.85C368.91 461.22 369.714 462.545 370.608 463.814C373.634 468.033 376.926 472.074 380.467 475.914L381.39 475.244L375.509 467.396C373.534 464.73 378.089 466.207 380.957 468.531C383.826 470.855 387.515 472.865 393.569 468.6C400.546 463.596 403.212 461.162 400.127 460.889Z" fill="#2E353A"/>
<path d="M374.716 448.694C374.716 448.694 389.317 460.616 395.054 461.696C395.054 461.696 390.73 467.465 381.188 462.626C368.85 456.364 368.143 459.891 368.143 459.891C367.539 458.174 367.104 456.408 366.846 454.614C366.572 450.991 374.716 448.694 374.716 448.694Z" fill="#E4897B"/>
<path d="M147.063 81.4736L135.353 83.8647L137.874 94.971L149.583 92.5799L147.063 81.4736Z" fill="#EBEBEB"/>
<path d="M222.631 154.229C224.578 119.688 196.635 90.1911 160.22 88.3446C123.805 86.4981 92.7068 113.002 90.7601 147.542C88.8134 182.083 116.756 211.58 153.171 213.426C189.586 215.273 220.684 188.769 222.631 154.229Z" fill="#E0E0E0"/>
<path d="M192.786 193.34C217.493 174.431 221.36 140.104 201.425 116.67C181.489 93.2353 145.3 89.5669 120.593 108.476C95.8865 127.385 92.0189 161.712 111.955 185.146C131.89 208.581 168.08 212.249 192.786 193.34Z" fill="#F0F0F0"/>
<path d="M149.57 70.934L128.476 75.2417L131.318 87.7653L152.412 83.4576L149.57 70.934Z" fill="#E0E0E0"/>
<path d="M162.162 149.766C162.389 150.792 162.289 151.858 161.877 152.83C161.465 153.803 160.758 154.637 159.846 155.229C158.934 155.821 157.858 156.143 156.753 156.155C155.648 156.168 154.564 155.869 153.638 155.297C152.712 154.726 151.985 153.907 151.549 152.943C151.113 151.98 150.988 150.916 151.189 149.886C151.39 148.855 151.909 147.904 152.679 147.153C153.449 146.402 154.437 145.884 155.518 145.664C156.238 145.518 156.982 145.508 157.706 145.635C158.43 145.763 159.121 146.024 159.739 146.405C160.356 146.786 160.888 147.28 161.304 147.856C161.72 148.433 162.012 149.082 162.162 149.766Z" fill="#E0E0E0"/>
<path d="M142.862 106.863C144.606 110.363 146.105 113.932 147.619 117.5L149.781 122.873L151.828 128.342C153.269 131.951 154.465 135.588 155.691 139.279C156.916 142.971 158.112 146.58 159.222 150.217L154.898 149.096C157.512 146.826 160.149 144.584 162.811 142.369C165.478 140.154 168.187 137.98 170.912 135.848C173.636 133.715 176.418 131.596 179.214 129.518C182.01 127.439 184.879 125.416 187.862 123.529C185.628 126.264 183.279 128.725 180.915 131.24C178.551 133.756 176.129 136.217 173.708 138.623C171.286 141.029 168.764 143.449 166.241 145.801C163.719 148.152 161.168 150.49 158.573 152.773L155.489 155.508L154.235 151.652C153.053 147.988 151.943 144.311 150.862 140.619C149.781 136.928 148.743 133.236 147.792 129.504L146.35 123.912L145.068 118.293C144.217 114.451 143.41 110.691 142.862 106.863Z" fill="#E0E0E0"/>
<path d="M508.626 122.983L456.737 265.948L247.117 197.534L299.007 54.5557L306.055 56.8525C305.52 57.2857 305.098 57.8302 304.821 58.4436C304.544 59.057 304.421 59.7227 304.46 60.3889C304.499 61.0551 304.699 61.7037 305.046 62.2843C305.393 62.8648 305.876 63.3616 306.458 63.736C307.04 64.1104 307.706 64.3522 308.403 64.4426C309.1 64.533 309.809 64.4695 310.476 64.2572C311.143 64.0448 311.749 63.6893 312.247 63.2184C312.746 62.7474 313.122 62.1737 313.349 61.5419C313.623 60.8189 313.678 60.0373 313.507 59.2861L320.541 61.5829C319.918 62.0756 319.453 62.7247 319.201 63.4559C318.807 64.5437 318.885 65.7353 319.417 66.7686C319.95 67.8019 320.893 68.5922 322.04 68.9657C323.187 69.3391 324.443 69.2652 325.533 68.7601C326.622 68.255 327.455 67.3601 327.849 66.2723C328.119 65.548 328.169 64.7664 327.993 64.0165L335.027 66.2997C334.404 66.7924 333.939 67.4414 333.686 68.1727C333.491 68.7113 333.41 69.2811 333.447 69.8495C333.485 70.4179 333.639 70.9737 333.903 71.4853C334.167 71.997 334.534 72.4543 334.984 72.8313C335.434 73.2083 335.958 73.4975 336.526 73.6824C337.094 73.8673 337.694 73.9443 338.294 73.9091C338.893 73.8738 339.479 73.7269 340.018 73.4768C340.558 73.2267 341.04 72.8783 341.437 72.4515C341.835 72.0246 342.14 71.5277 342.335 70.9891C342.6 70.2643 342.655 69.485 342.493 68.7332L349.513 71.0164C348.978 71.4496 348.555 71.9941 348.279 72.6075C348.002 73.2209 347.878 73.8866 347.917 74.5528C347.956 75.219 348.157 75.8676 348.504 76.4482C348.85 77.0287 349.333 77.5255 349.916 77.8999C350.498 78.2743 351.163 78.5161 351.86 78.6065C352.557 78.6969 353.267 78.6334 353.934 78.4211C354.6 78.2087 355.207 77.8532 355.705 77.3823C356.203 76.9113 356.58 76.3376 356.806 75.7058C357.073 74.9812 357.127 74.2017 356.965 73.45L363.984 75.7468C363.367 76.2443 362.903 76.8918 362.644 77.6198C362.412 78.2498 362.338 78.9218 362.425 79.5837C362.512 80.2455 362.76 80.8793 363.148 81.4357C363.536 81.992 364.054 82.4559 364.661 82.7913C365.269 83.1267 365.951 83.3244 366.652 83.3691C367.354 83.4139 368.057 83.3044 368.707 83.0492C369.356 82.794 369.935 82.4 370.398 81.8979C370.861 81.3958 371.196 80.7991 371.376 80.1543C371.556 79.5095 371.576 78.834 371.436 78.1804L378.456 80.4636C377.838 80.9611 377.375 81.6085 377.115 82.3366C376.721 83.4244 376.799 84.616 377.332 85.6492C377.864 86.6825 378.808 87.4728 379.955 87.8463C381.101 88.2198 382.358 88.1458 383.447 87.6407C384.536 87.1356 385.37 86.2408 385.763 85.153C386.029 84.4282 386.084 83.6489 385.922 82.8971L392.941 85.194C392.318 85.6867 391.854 86.3357 391.601 87.067C391.406 87.6056 391.325 88.1754 391.362 88.7438C391.399 89.3122 391.554 89.868 391.818 90.3797C392.081 90.8913 392.449 91.3486 392.899 91.7256C393.349 92.1026 393.873 92.3918 394.44 92.5767C395.008 92.7616 395.609 92.8387 396.208 92.8034C396.808 92.7681 397.394 92.6212 397.933 92.3711C398.472 92.121 398.954 91.7726 399.352 91.3458C399.749 90.9189 400.054 90.422 400.249 89.8834C400.514 89.1585 400.569 88.3794 400.408 87.6276L407.427 89.9107C406.892 90.3439 406.47 90.8884 406.193 91.5018C405.917 92.1152 405.793 92.7809 405.832 93.4471C405.871 94.1133 406.072 94.7619 406.418 95.3425C406.765 95.923 407.248 96.4198 407.83 96.7942C408.413 97.1686 409.078 97.4104 409.775 97.5008C410.472 97.5912 411.181 97.5278 411.848 97.3154C412.515 97.1031 413.121 96.7476 413.619 96.2766C414.118 95.8056 414.495 95.2319 414.721 94.6001C414.995 93.8771 415.05 93.0955 414.879 92.3443L421.899 94.6411C421.366 95.0759 420.946 95.6214 420.672 96.2352C420.398 96.8489 420.276 97.5144 420.318 98.1799C420.359 98.8454 420.561 99.4929 420.909 100.072C421.257 100.651 421.741 101.146 422.324 101.519C422.906 101.892 423.572 102.132 424.268 102.221C424.965 102.31 425.674 102.246 426.339 102.033C427.005 101.82 427.611 101.464 428.108 100.993C428.605 100.522 428.981 99.9482 429.207 99.3169C429.476 98.5926 429.526 97.8109 429.351 97.061L436.385 99.3579C435.761 99.8506 435.297 100.5 435.044 101.231C434.813 101.861 434.738 102.533 434.825 103.195C434.913 103.857 435.16 104.49 435.548 105.047C435.936 105.603 436.454 106.067 437.062 106.402C437.67 106.738 438.351 106.935 439.053 106.98C439.754 107.025 440.457 106.915 441.107 106.66C441.757 106.405 442.336 106.011 442.799 105.509C443.262 105.007 443.596 104.41 443.776 103.765C443.956 103.121 443.977 102.445 443.837 101.791L450.856 104.075C450.238 104.572 449.775 105.22 449.516 105.948C449.321 106.486 449.239 107.056 449.277 107.624C449.314 108.193 449.469 108.749 449.732 109.26C449.996 109.772 450.363 110.229 450.813 110.606C451.263 110.983 451.787 111.272 452.355 111.457C452.923 111.642 453.524 111.719 454.123 111.684C454.722 111.649 455.308 111.502 455.848 111.252C456.387 111.002 456.869 110.653 457.267 110.226C457.664 109.8 457.969 109.303 458.164 108.764C458.43 108.039 458.484 107.26 458.322 106.508L465.342 108.805C464.719 109.298 464.254 109.947 464.001 110.678C463.608 111.766 463.686 112.957 464.218 113.991C464.751 115.024 465.694 115.814 466.841 116.188C467.988 116.561 469.244 116.487 470.333 115.982C471.423 115.477 472.256 114.582 472.65 113.494C472.915 112.77 472.97 111.99 472.808 111.239L479.828 113.522C479.21 114.019 478.747 114.667 478.487 115.395C478.093 116.483 478.171 117.674 478.704 118.707C479.236 119.741 480.18 120.531 481.327 120.905C482.474 121.278 483.73 121.204 484.819 120.699C485.909 120.194 486.742 119.299 487.136 118.211C487.401 117.486 487.456 116.707 487.294 115.955L494.314 118.252C493.697 118.745 493.233 119.387 492.973 120.112C492.778 120.65 492.697 121.22 492.734 121.788C492.771 122.357 492.926 122.913 493.19 123.424C493.454 123.936 493.821 124.393 494.271 124.77C494.721 125.147 495.245 125.436 495.813 125.621C496.38 125.806 496.981 125.883 497.58 125.848C498.18 125.813 498.766 125.666 499.305 125.416C499.845 125.166 500.327 124.817 500.724 124.39C501.122 123.963 501.426 123.467 501.621 122.928C501.888 122.203 501.943 121.424 501.78 120.672L508.626 122.983Z" fill="#F0F0F0"/>
<path d="M508.626 122.983L498.061 152.117L288.355 83.7585L298.92 54.6104L305.969 56.9072C305.434 57.3404 305.011 57.8849 304.735 58.4983C304.458 59.1117 304.334 59.7774 304.373 60.4436C304.412 61.1098 304.613 61.7584 304.96 62.339C305.306 62.9195 305.789 63.4163 306.372 63.7907C306.954 64.1651 307.619 64.4069 308.316 64.4973C309.013 64.5877 309.723 64.5242 310.39 64.3119C311.056 64.0996 311.663 63.744 312.161 63.2731C312.659 62.8021 313.036 62.2284 313.262 61.5966C313.537 60.8736 313.592 60.092 313.421 59.3408L320.455 61.6376C319.831 62.1303 319.367 62.7794 319.114 63.5106C318.72 64.5984 318.798 65.79 319.331 66.8233C319.863 67.8566 320.807 68.6469 321.954 69.0204C323.1 69.3938 324.357 69.3199 325.446 68.8148C326.535 68.3097 327.369 67.4148 327.762 66.327C328.032 65.6027 328.082 64.8211 327.906 64.0712L334.94 66.3544C334.317 66.8471 333.853 67.4961 333.6 68.2274C333.405 68.766 333.324 69.3358 333.361 69.9042C333.398 70.4726 333.553 71.0284 333.817 71.5401C334.08 72.0517 334.448 72.509 334.898 72.886C335.348 73.263 335.872 73.5522 336.439 73.7371C337.007 73.922 337.608 73.9991 338.207 73.9638C338.806 73.9285 339.392 73.7816 339.932 73.5315C340.471 73.2814 340.953 72.933 341.351 72.5062C341.748 72.0793 342.053 71.5824 342.248 71.0438C342.514 70.319 342.569 69.5397 342.407 68.7879L349.426 71.0711C348.891 71.5043 348.469 72.0488 348.192 72.6622C347.916 73.2756 347.792 73.9414 347.831 74.6075C347.87 75.2737 348.07 75.9223 348.417 76.5029C348.764 77.0834 349.247 77.5803 349.829 77.9546C350.411 78.329 351.077 78.5708 351.774 78.6612C352.471 78.7516 353.18 78.6882 353.847 78.4758C354.514 78.2635 355.12 77.908 355.618 77.437C356.117 76.966 356.493 76.3923 356.72 75.7605C356.986 75.0359 357.041 74.2564 356.878 73.5047L363.898 75.8015C363.28 76.299 362.817 76.9465 362.557 77.6746C362.326 78.3045 362.251 78.9766 362.339 79.6384C362.426 80.3003 362.673 80.934 363.061 81.4904C363.449 82.0468 363.967 82.5107 364.575 82.846C365.183 83.1814 365.864 83.3791 366.566 83.4239C367.267 83.4686 367.971 83.3591 368.62 83.1039C369.27 82.8487 369.849 82.4548 370.312 81.9526C370.775 81.4505 371.109 80.8538 371.289 80.209C371.469 79.5642 371.49 78.8887 371.35 78.2351L378.369 80.5183C377.751 81.0158 377.288 81.6632 377.029 82.3913C376.834 82.9299 376.752 83.4997 376.79 84.0681C376.827 84.6365 376.982 85.1924 377.245 85.704C377.509 86.2156 377.876 86.673 378.326 87.0499C378.776 87.4269 379.3 87.7161 379.868 87.901C380.436 88.086 381.037 88.163 381.636 88.1277C382.235 88.0924 382.821 87.9456 383.361 87.6955C383.9 87.4454 384.382 87.0969 384.78 86.6701C385.177 86.2432 385.482 85.7463 385.677 85.2077C385.943 84.483 385.997 83.7037 385.835 82.9519L392.855 85.2487C392.232 85.7414 391.767 86.3905 391.514 87.1217C391.121 88.2095 391.199 89.4011 391.731 90.4344C392.264 91.4677 393.207 92.258 394.354 92.6314C395.501 93.0049 396.757 92.931 397.846 92.4259C398.936 91.9208 399.769 91.0259 400.163 89.9381C400.428 89.2133 400.483 88.4341 400.321 87.6823L407.341 89.9655C406.806 90.3987 406.384 90.9432 406.107 91.5566C405.83 92.17 405.706 92.8357 405.745 93.5019C405.784 94.168 405.985 94.8167 406.332 95.3972C406.678 95.9778 407.162 96.4746 407.744 96.849C408.326 97.2233 408.992 97.4651 409.688 97.5555C410.385 97.6459 411.095 97.5825 411.762 97.3702C412.429 97.1578 413.035 96.8023 413.533 96.3313C414.031 95.8604 414.408 95.2866 414.634 94.6549C414.909 93.9319 414.964 93.1502 414.793 92.399L421.812 94.6959C421.28 95.1307 420.86 95.6762 420.585 96.2899C420.311 96.9037 420.19 97.5692 420.231 98.2347C420.272 98.9001 420.475 99.5476 420.823 100.127C421.171 100.706 421.655 101.201 422.237 101.574C422.82 101.947 423.485 102.187 424.182 102.276C424.878 102.365 425.587 102.301 426.253 102.088C426.919 101.875 427.524 101.519 428.021 101.048C428.519 100.576 428.895 100.003 429.12 99.3716C429.39 98.6473 429.44 97.8657 429.264 97.1158L436.298 99.4126C435.675 99.9053 435.21 100.554 434.958 101.286C434.726 101.916 434.652 102.588 434.739 103.25C434.826 103.911 435.074 104.545 435.462 105.101C435.85 105.658 436.368 106.122 436.975 106.457C437.583 106.792 438.265 106.99 438.966 107.035C439.668 107.08 440.371 106.97 441.021 106.715C441.67 106.46 442.249 106.066 442.712 105.564C443.175 105.062 443.51 104.465 443.69 103.82C443.87 103.175 443.89 102.5 443.75 101.846L450.77 104.129C450.152 104.627 449.689 105.274 449.429 106.002C449.234 106.541 449.153 107.111 449.19 107.679C449.227 108.248 449.382 108.803 449.646 109.315C449.909 109.827 450.277 110.284 450.727 110.661C451.177 111.038 451.701 111.327 452.269 111.512C452.836 111.697 453.437 111.774 454.036 111.739C454.636 111.704 455.222 111.557 455.761 111.307C456.3 111.056 456.783 110.708 457.18 110.281C457.577 109.854 457.882 109.357 458.077 108.819C458.343 108.094 458.398 107.315 458.236 106.563L465.255 108.86C464.632 109.353 464.168 110.002 463.915 110.733C463.521 111.821 463.599 113.012 464.132 114.045C464.664 115.079 465.608 115.869 466.754 116.243C467.901 116.616 469.158 116.542 470.247 116.037C471.336 115.532 472.169 114.637 472.563 113.549C472.828 112.824 472.883 112.045 472.722 111.293L479.741 113.577C479.124 114.074 478.66 114.721 478.401 115.45C478.206 115.988 478.125 116.558 478.162 117.126C478.199 117.695 478.354 118.251 478.617 118.762C478.881 119.274 479.248 119.731 479.699 120.108C480.149 120.485 480.672 120.774 481.24 120.959C481.808 121.144 482.409 121.221 483.008 121.186C483.607 121.151 484.193 121.004 484.733 120.754C485.272 120.504 485.754 120.155 486.152 119.728C486.549 119.302 486.854 118.805 487.049 118.266C487.315 117.541 487.37 116.762 487.208 116.01L494.227 118.307C493.61 118.799 493.147 119.442 492.887 120.166C492.692 120.705 492.61 121.275 492.648 121.843C492.685 122.411 492.84 122.967 493.103 123.479C493.367 123.991 493.734 124.448 494.184 124.825C494.634 125.202 495.158 125.491 495.726 125.676C496.294 125.861 496.895 125.938 497.494 125.903C498.093 125.867 498.679 125.721 499.219 125.47C499.758 125.22 500.24 124.872 500.638 124.445C501.035 124.018 501.34 123.521 501.535 122.983C501.801 122.258 501.856 121.479 501.693 120.727L508.626 122.983Z" fill="#E0E0E0"/>
<path d="M375.08 118.642L352.113 111.149L344.214 132.934L367.18 140.426L375.08 118.642Z" fill="#FAFAFA"/>
<path d="M402.538 127.614L379.571 120.121L371.672 141.905L394.639 149.398L402.538 127.614Z" fill="#FAFAFA"/>
<path d="M430.002 136.568L407.036 129.076L399.137 150.86L422.103 158.353L430.002 136.568Z" fill="#FAFAFA"/>
<path d="M457.475 145.54L434.508 138.048L426.609 159.832L449.576 167.324L457.475 145.54Z" fill="#FAFAFA"/>
<path d="M484.939 154.495L461.973 147.002L454.074 168.787L477.04 176.279L484.939 154.495Z" fill="#FAFAFA"/>
<path d="M311.21 125.384L288.244 117.891L280.345 139.676L303.311 147.168L311.21 125.384Z" fill="#FAFAFA"/>
<path d="M338.656 134.337L315.689 126.845L307.79 148.629L330.757 156.122L338.656 134.337Z" fill="#FAFAFA"/>
<path d="M366.133 143.297L343.167 135.804L335.267 157.589L358.234 165.081L366.133 143.297Z" fill="#FAFAFA"/>
<path d="M393.592 152.264L370.625 144.771L362.726 166.556L385.693 174.048L393.592 152.264Z" fill="#FAFAFA"/>
<path d="M421.07 161.223L398.104 153.73L390.204 175.515L413.171 183.007L421.07 161.223Z" fill="#FAFAFA"/>
<path d="M448.543 170.195L425.576 162.703L417.677 184.487L440.644 191.979L448.543 170.195Z" fill="#FAFAFA"/>
<path d="M476.007 179.136L453.04 171.644L445.141 193.428L468.108 200.92L476.007 179.136Z" fill="#FAFAFA"/>
<path d="M302.264 150.025L279.297 142.532L271.398 164.316L294.365 171.809L302.264 150.025Z" fill="#FAFAFA"/>
<path d="M329.724 158.992L306.757 151.5L298.858 173.284L321.824 180.777L329.724 158.992Z" fill="#FAFAFA"/>
<path d="M357.201 167.951L334.234 160.458L326.335 182.243L349.302 189.735L357.201 167.951Z" fill="#FAFAFA"/>
<path d="M384.66 176.919L361.693 169.426L353.794 191.211L376.761 198.703L384.66 176.919Z" fill="#FAFAFA"/>
<path d="M412.138 185.877L389.171 178.385L381.272 200.169L404.239 207.662L412.138 185.877Z" fill="#FAFAFA"/>
<path d="M439.597 194.836L416.63 187.343L408.731 209.128L431.698 216.62L439.597 194.836Z" fill="#FAFAFA"/>
<path d="M467.061 203.79L444.094 196.298L436.195 218.082L459.161 225.575L467.061 203.79Z" fill="#FAFAFA"/>
<path d="M293.318 174.675L270.352 167.182L262.452 188.967L285.419 196.459L293.318 174.675Z" fill="#FAFAFA"/>
<path d="M320.791 183.646L297.824 176.154L289.925 197.938L312.892 205.431L320.791 183.646Z" fill="#FAFAFA"/>
<path d="M348.269 192.606L325.302 185.113L317.403 206.898L340.37 214.391L348.269 192.606Z" fill="#FAFAFA"/>
<path d="M375.718 201.546L352.751 194.054L344.852 215.838L367.819 223.331L375.718 201.546Z" fill="#FAFAFA"/>
<path d="M403.191 210.518L380.225 203.026L372.325 224.81L395.292 232.303L403.191 210.518Z" fill="#FAFAFA"/>
<path d="M430.655 219.473L407.688 211.98L399.789 233.764L422.756 241.257L430.655 219.473Z" fill="#FAFAFA"/>
<path d="M385.691 176.111C385.286 176.11 384.89 176.002 384.546 175.799C384.202 175.596 383.925 175.307 383.745 174.962L368.683 145.677C368.534 145.434 368.439 145.163 368.405 144.883C368.371 144.603 368.398 144.319 368.485 144.05C368.571 143.78 368.715 143.53 368.908 143.316C369.101 143.101 369.339 142.927 369.606 142.804C369.873 142.68 370.164 142.61 370.461 142.599C370.758 142.587 371.055 142.633 371.332 142.734C371.609 142.836 371.861 142.991 372.073 143.189C372.284 143.387 372.45 143.625 372.56 143.886L387.637 173.24C387.886 173.728 387.921 174.289 387.735 174.802C387.548 175.314 387.156 175.736 386.643 175.974C386.342 176.091 386.015 176.138 385.691 176.111V176.111Z" fill="#E0E0E0"/>
<path d="M362.716 168.619C362.226 168.621 361.749 168.464 361.365 168.176C360.981 167.887 360.711 167.483 360.601 167.031C360.49 166.578 360.545 166.103 360.757 165.683C360.968 165.264 361.323 164.925 361.765 164.722L392.697 150.435C393.213 150.196 393.808 150.161 394.351 150.338C394.894 150.515 395.341 150.889 395.594 151.379C395.846 151.868 395.883 152.433 395.696 152.948C395.51 153.463 395.115 153.887 394.599 154.127L363.725 168.414C363.41 168.556 363.065 168.626 362.716 168.619V168.619Z" fill="#E0E0E0"/>
<path d="M14.8101 108.819V117.897L19.7252 118.334C20.389 121.333 21.6354 124.189 23.4007 126.756L20.2441 130.379L27.0041 136.791L30.8238 133.783C33.5078 135.469 36.5069 136.652 39.6594 137.27L40.1207 141.932H49.6482L50.1094 137.27C53.2611 136.65 56.2597 135.467 58.9451 133.783L62.7647 136.791L69.5248 130.379L66.397 126.756C68.1586 124.204 69.4004 121.361 70.0581 118.375L74.9876 117.938V108.86L70.0581 108.422C69.4004 105.436 68.1586 102.594 66.397 100.041L69.5536 96.4183L62.7935 90.0063L58.9739 93.0141C56.2885 91.3308 53.29 90.1477 50.1382 89.5278L49.677 84.8521H40.1207L39.6594 89.5278C36.5069 90.1451 33.5078 91.3285 30.8238 93.0141L27.0041 90.0063L20.2441 96.4183L23.4007 100.041C21.6403 102.596 20.3941 105.437 19.7252 108.422L14.8101 108.819ZM44.8916 101.08C47.4573 101.08 49.9654 101.802 52.0987 103.154C54.232 104.506 55.8947 106.428 56.8766 108.676C57.8584 110.925 58.1153 113.399 57.6148 115.786C57.1142 118.172 55.8787 120.365 54.0645 122.086C52.2503 123.806 49.9388 124.978 47.4224 125.453C44.906 125.928 42.2977 125.684 39.9273 124.753C37.5569 123.822 35.5309 122.245 34.1055 120.221C32.68 118.198 31.9192 115.819 31.9192 113.385C31.9192 110.122 33.2859 106.992 35.7187 104.684C38.1515 102.377 41.4511 101.08 44.8916 101.08V101.08Z" fill="#EBEBEB"/>
<path d="M242.087 326.514C247.519 325.435 252.687 323.394 257.322 320.498L263.924 325.68L275.599 314.606L270.179 308.358C273.232 303.957 275.384 299.05 276.521 293.893L285.011 293.141V277.487L276.521 276.721C275.384 271.565 273.232 266.658 270.179 262.257L275.642 256.009L263.967 244.934L257.365 250.116C252.731 247.22 247.562 245.18 242.13 244.101L241.323 236.048H224.776L223.983 244.101C218.547 245.18 213.373 247.22 208.733 250.116L202.146 244.934L190.471 256.009L195.934 262.257C192.881 266.658 190.729 271.565 189.592 276.721L181.102 277.487V293.141L189.592 293.893C190.729 299.05 192.881 303.957 195.934 308.358L190.471 314.606L202.146 325.68L208.733 320.498C213.373 323.394 218.547 325.435 223.983 326.514L224.776 334.566H241.352L242.087 326.514ZM210.694 285.348C210.694 281.157 212.004 277.06 214.459 273.575C216.914 270.09 220.403 267.374 224.485 265.77C228.568 264.166 233.06 263.746 237.394 264.564C241.727 265.382 245.708 267.4 248.833 270.364C251.957 273.327 254.085 277.103 254.947 281.214C255.809 285.325 255.367 289.585 253.676 293.458C251.985 297.33 249.121 300.639 245.447 302.968C241.773 305.297 237.454 306.539 233.035 306.539C227.11 306.539 221.427 304.307 217.237 300.333C213.047 296.358 210.694 290.968 210.694 285.348Z" fill="#E0E0E0"/>
<path d="M58.2969 392.986L60.8049 394.955L65.2588 390.73L63.1688 388.351C64.3344 386.69 65.1562 384.834 65.5903 382.882L68.8334 382.595V376.621L65.5903 376.333C65.1617 374.38 64.3395 372.523 63.1688 370.865L65.2588 368.472L60.8049 364.248L58.2969 366.148C56.5466 365.041 54.5898 364.262 52.5314 363.851L52.2287 360.775H45.9443L45.6272 363.851C43.5691 364.263 41.6125 365.042 39.8617 366.148L37.3537 364.166L32.8998 368.39L34.9754 370.783C33.8151 372.445 32.9983 374.3 32.5683 376.251L29.3252 376.539V382.513L32.5683 382.8C33.0036 384.75 33.82 386.605 34.9754 388.269L32.8998 390.648L37.3537 394.873L39.8617 392.904C41.6163 394 43.5719 394.774 45.6272 395.187L45.9443 398.263H52.2287L52.5314 395.187C54.581 394.8 56.5364 394.054 58.2969 392.986V392.986ZM40.5103 379.56C40.5103 377.962 41.0099 376.4 41.9459 375.071C42.882 373.742 44.2124 372.707 45.7689 372.095C47.3255 371.483 49.0383 371.323 50.6907 371.635C52.3432 371.947 53.861 372.717 55.0524 373.847C56.2437 374.977 57.055 376.416 57.3837 377.984C57.7124 379.551 57.5437 381.176 56.8989 382.652C56.2542 384.129 55.1624 385.391 53.7615 386.278C52.3606 387.166 50.7136 387.64 49.0288 387.64C47.9065 387.646 46.7942 387.441 45.7556 387.037C44.7171 386.633 43.7729 386.039 42.9773 385.288C42.1817 384.537 41.5504 383.645 41.1196 382.662C40.6888 381.679 40.467 380.625 40.467 379.56H40.5103Z" fill="#E6E6E6"/>
<path d="M238.469 80.368L239.91 81.5164L242.49 79.0691L241.294 77.702C241.981 76.7306 242.47 75.6454 242.735 74.5028L244.609 74.3387V70.8798L242.735 70.7157C242.47 69.5731 241.981 68.4879 241.294 67.5165L242.49 66.1494L239.91 63.6748L238.469 64.8232C237.452 64.1677 236.312 63.7036 235.11 63.456L234.923 61.665H231.262L231.089 63.4424C229.884 63.694 228.74 64.1577 227.716 64.8095L226.275 63.6611L223.709 66.1083L224.906 67.4755C224.218 68.4469 223.729 69.5321 223.464 70.6747L221.59 70.8388V74.2977L223.464 74.4618C223.729 75.6044 224.218 76.6896 224.906 77.661L223.709 79.0281L226.275 81.4754L227.716 80.3269C228.737 80.985 229.882 81.4492 231.089 81.6941L231.262 83.4714H234.909L235.096 81.6941C236.299 81.4608 237.444 81.0106 238.469 80.368V80.368ZM228.163 72.5887C228.163 71.6613 228.453 70.7546 228.996 69.9835C229.539 69.2123 230.312 68.6112 231.215 68.2563C232.118 67.9014 233.112 67.8085 234.071 67.9895C235.03 68.1704 235.911 68.617 236.603 69.2728C237.294 69.9287 237.765 70.7642 237.956 71.6739C238.147 72.5835 238.049 73.5264 237.675 74.3833C237.3 75.2402 236.667 75.9726 235.854 76.4878C235.041 77.0031 234.085 77.2781 233.107 77.2781C232.452 77.2872 231.801 77.1726 231.193 76.941C230.585 76.7094 230.031 76.3654 229.564 75.9291C229.098 75.4927 228.727 74.9727 228.474 74.3992C228.221 73.8258 228.091 73.2104 228.091 72.5887H228.163Z" fill="#F5F5F5"/>
<path d="M459.404 69.4854L460.845 70.6338L463.425 68.1865L462.214 66.8193C462.908 65.8512 463.397 64.7648 463.656 63.6201L465.544 63.4561V59.9971L463.656 59.8193C463.395 58.6797 462.905 57.5983 462.214 56.6338L463.425 55.2666L460.845 52.8193L459.404 53.9678C458.379 53.3159 457.235 52.8522 456.031 52.6006L455.858 50.8232H452.211L452.038 52.6006C450.834 52.8522 449.689 53.3159 448.665 53.9678L447.224 52.8193L444.586 55.2393L445.797 56.6064C445.106 57.571 444.616 58.6524 444.355 59.792L442.467 59.9697V63.4287L444.355 63.5928C444.614 64.7375 445.103 65.8239 445.797 66.792L444.586 68.1592L447.166 70.6064L448.608 69.458C449.628 70.116 450.774 70.5803 451.98 70.8252L452.153 72.6025H455.8L455.973 70.8252C457.198 70.5954 458.363 70.1402 459.404 69.4854V69.4854ZM449.098 61.7061C449.098 60.7786 449.388 59.8719 449.931 59.1007C450.474 58.3296 451.246 57.7285 452.15 57.3736C453.053 57.0186 454.047 56.9258 455.006 57.1067C455.965 57.2877 456.846 57.7343 457.537 58.3901C458.229 59.0459 458.7 59.8815 458.891 60.7912C459.081 61.7009 458.983 62.6437 458.609 63.5006C458.235 64.3575 457.601 65.0899 456.788 65.6052C455.975 66.1205 455.019 66.3955 454.042 66.3955C453.392 66.3973 452.748 66.2773 452.147 66.0422C451.547 65.8072 451.001 65.4618 450.541 65.026C450.082 64.5902 449.718 64.0725 449.47 63.5028C449.222 62.933 449.096 62.3224 449.098 61.7061Z" fill="#F0F0F0"/>
<path d="M506.782 288.26L509.29 290.229L513.744 286.018L511.668 283.626C512.823 281.961 513.64 280.106 514.075 278.157L517.318 277.87V271.895L514.075 271.608C513.642 269.658 512.826 267.803 511.668 266.14L513.744 263.747L509.29 259.522L506.782 261.505C505.025 260.41 503.07 259.631 501.016 259.208L500.699 256.132H494.415L494.112 259.208C492.058 259.631 490.103 260.409 488.347 261.505L485.839 259.522L481.385 263.747L483.475 266.14C482.307 267.799 481.485 269.655 481.053 271.608L477.81 271.895V277.87L481.053 278.157C481.487 280.109 482.309 281.965 483.475 283.626L481.385 286.018L485.839 290.229L488.347 288.26C490.103 289.356 492.058 290.135 494.112 290.557L494.415 293.62H500.699L501.016 290.557C503.07 290.134 505.025 289.355 506.782 288.26V288.26ZM488.995 274.835C488.995 273.237 489.495 271.674 490.431 270.346C491.367 269.017 492.697 267.981 494.254 267.37C495.81 266.758 497.523 266.598 499.176 266.91C500.828 267.222 502.346 267.991 503.537 269.121C504.729 270.251 505.54 271.691 505.869 273.258C506.197 274.826 506.029 276.45 505.384 277.927C504.739 279.403 503.647 280.665 502.246 281.553C500.845 282.441 499.199 282.915 497.514 282.915C495.256 282.911 493.091 282.059 491.494 280.544C489.898 279.03 488.999 276.977 488.995 274.835V274.835Z" fill="#EBEBEB"/>
<path d="M333.917 417.759L337.895 420.876L344.929 414.204L341.643 410.431C343.483 407.777 344.779 404.818 345.462 401.708L350.579 401.257V391.824L345.462 391.359C344.776 388.254 343.48 385.3 341.643 382.65L344.929 378.876L337.924 372.205L333.946 375.322C331.152 373.579 328.037 372.35 324.764 371.699L324.274 366.845H314.329L313.853 371.699C310.575 372.347 307.455 373.576 304.657 375.322L300.679 372.205L293.645 378.876L296.931 382.65C295.094 385.3 293.798 388.254 293.112 391.359L287.995 391.824V401.257L293.112 401.708C293.795 404.818 295.091 407.777 296.931 410.431L293.645 414.204L300.679 420.876L304.657 417.759C307.455 419.504 310.575 420.733 313.853 421.382L314.329 426.235H324.274L324.764 421.382C328.027 420.727 331.132 419.499 333.917 417.759V417.759ZM305.81 396.54C305.807 394.011 306.596 391.538 308.075 389.433C309.555 387.329 311.66 385.688 314.123 384.719C316.586 383.75 319.297 383.496 321.913 383.988C324.528 384.481 326.931 385.699 328.817 387.488C330.702 389.276 331.986 391.555 332.506 394.036C333.025 396.517 332.757 399.088 331.735 401.425C330.713 403.761 328.984 405.758 326.765 407.161C324.547 408.565 321.939 409.312 319.273 409.31C315.703 409.306 312.281 407.96 309.757 405.566C307.233 403.172 305.814 399.926 305.81 396.54Z" fill="#F0F0F0"/>
<path d="M101.365 164.258C54.7508 171.873 18.3416 185.545 20.0136 194.828L20.8064 199.121C22.4784 208.349 61.6406 209.648 108.24 201.992C154.84 194.336 191.278 180.664 189.592 171.436L188.813 167.143C187.127 157.901 147.979 156.616 101.365 164.258Z" fill="#7E57C2"/>
<path opacity="0.2" d="M108.242 201.99C154.852 194.346 191.272 180.664 189.589 171.43C187.906 162.197 148.757 160.909 102.147 168.553C55.5371 176.198 19.1169 189.88 20.8001 199.113C22.4833 208.346 61.6325 209.635 108.242 201.99Z" fill="white"/>
<path d="M103.815 177.684C62.0155 184.52 29.4692 196.824 30.9826 205.027L32.2798 212.178C33.7212 220.449 68.8476 221.598 110.576 214.748C152.303 207.898 184.922 195.608 183.408 187.405L182.111 180.268C180.598 171.996 145.543 170.834 103.815 177.684Z" fill="#7E57C2"/>
<path opacity="0.2" d="M110.567 214.774C152.297 207.93 184.905 195.68 183.398 187.414C181.892 179.148 146.841 177.995 105.11 184.839C63.3792 191.684 30.7714 203.933 32.2782 212.199C33.7851 220.465 68.8361 221.618 110.567 214.774Z" fill="white"/>
<path d="M147.388 286.223C145.574 285.322 144.003 284.036 142.797 282.467C141.59 280.897 140.781 279.085 140.431 277.171C140.081 275.257 140.201 273.293 140.78 271.429C141.359 269.566 142.382 267.854 143.77 266.426C160.678 248.968 181.145 221.173 175.956 192.599C174.832 186.488 143.756 186.474 106.539 192.599C69.323 198.724 40.0486 208.623 41.1585 214.734C46.3618 243.267 75.4777 262.926 97.5884 273.987C99.4025 274.888 100.973 276.174 102.18 277.743C103.386 279.313 104.196 281.125 104.545 283.039C104.895 284.953 104.776 286.917 104.197 288.78C103.618 290.644 102.595 292.356 101.206 293.784C84.2845 311.229 63.8169 339.023 69.0203 367.611C70.1446 373.736 101.221 373.749 138.437 367.611C175.654 361.472 204.928 351.587 203.876 345.504C198.615 316.93 169.484 297.27 147.388 286.223Z" fill="#7E57C2"/>
<path opacity="0.8" d="M147.388 286.223C145.574 285.322 144.003 284.036 142.797 282.467C141.59 280.897 140.781 279.085 140.431 277.171C140.081 275.257 140.201 273.293 140.78 271.429C141.359 269.566 142.382 267.854 143.77 266.426C160.678 248.968 181.145 221.173 175.956 192.599C174.832 186.488 143.756 186.474 106.539 192.599C69.323 198.724 40.0486 208.623 41.1585 214.734C46.3618 243.267 75.4777 262.926 97.5884 273.987C99.4025 274.888 100.973 276.174 102.18 277.743C103.386 279.313 104.196 281.125 104.545 283.039C104.895 284.953 104.776 286.917 104.197 288.78C103.618 290.644 102.595 292.356 101.206 293.784C84.2845 311.229 63.8169 339.023 69.0203 367.611C70.1446 373.736 101.221 373.749 138.437 367.611C175.654 361.472 204.928 351.587 203.876 345.504C198.615 316.93 169.484 297.27 147.388 286.223Z" fill="white"/>
<path d="M200.503 347.103C201.166 353.515 81.2721 375.65 73.3012 365.82C72.496 364.727 71.9923 363.459 71.8362 362.134C71.6801 360.808 71.8765 359.467 72.4076 358.232C73.2233 355.958 74.4313 353.828 75.9822 351.929C79.6865 347.172 87.8592 345.094 93.394 343.18C97.1272 341.881 100.889 340.691 104.651 339.461C108.687 338.094 112.838 339.051 116.341 336.139C118.445 334.402 120.016 331.818 122.712 331.189C124.715 330.725 126.863 331.477 128.838 330.971C131.403 330.314 133.234 327.689 135.886 327.648C137.201 327.798 138.493 328.097 139.734 328.537C142.041 329.002 144.404 328.277 146.768 328.072C149.096 327.972 151.428 328.132 153.716 328.551C160.866 329.846 168.083 330.791 175.336 331.381C180.684 331.654 186.608 331.531 191.826 332.926C194.106 333.737 195.993 335.313 197.13 337.355C198.989 340.333 200.14 343.66 200.503 347.103V347.103Z" fill="#263238"/>
<path opacity="0.2" d="M197.173 337.301C193.858 334.457 187.732 334.648 185.974 334.771C184.215 334.895 183.596 333.473 182.27 333.008C180.944 332.543 173.102 333.5 173.102 333.5C173.102 333.5 175.985 334.033 176.591 334.936C177.196 335.838 180.482 334.799 180.915 334.676C180.468 334.922 176.461 336.918 174.573 335.715C172.684 334.512 171.906 336.754 170.407 337.328C168.908 337.902 164.18 337.328 163.416 337.096C161.16 336.974 158.898 336.974 156.642 337.096C157.811 336.381 159.128 335.915 160.505 335.729C161.773 335.865 166.832 333.336 165.795 333.514C164.757 333.691 162.393 332.379 160.548 331.832C158.309 331.679 156.059 331.817 153.86 332.242C156.1 332.21 158.331 332.505 160.476 333.117C159.003 333.45 157.558 333.884 156.152 334.416C154.865 334.81 153.525 335.026 152.174 335.059C151.086 335.434 150.149 336.122 149.493 337.027C147.845 337.398 146.174 337.672 144.491 337.848C142.83 337.987 141.157 337.801 139.576 337.301L144.131 335.934L142.574 335.51C141.505 335.172 140.405 334.929 139.288 334.785C137.457 334.498 136.679 336.152 136.232 336.549C135.785 336.945 131.778 336.549 130.654 336.289C129.53 336.029 121.213 339.229 121.213 339.229L126.416 338.381C127.766 338.925 129.204 339.244 130.668 339.324C134.142 339.762 134.646 338.668 136.102 338.764C137.558 338.859 142.387 340.131 142.387 340.131L140.513 340.609C138.858 340.828 137.18 340.828 135.526 340.609C132.643 340.24 131.086 341.676 130.221 341.826C127.997 342.3 125.737 342.611 123.461 342.756C122.524 342.564 120.06 343.658 118.705 344.971C117.934 345.699 116.967 346.212 115.909 346.453C114.851 346.694 113.744 346.654 112.709 346.338C110.085 345.695 105.66 348.73 105.66 348.73C105.66 348.73 107.981 345.818 109.192 345.613C111.073 344.915 112.882 344.055 114.597 343.043C113.95 343.035 113.303 343.086 112.665 343.193C112.02 343.244 111.37 343.172 110.754 342.982C110.137 342.791 109.567 342.487 109.076 342.086C107.635 341.143 106.194 341.881 104.075 342.906C101.956 343.932 99.6786 345.148 97.4445 343.658C95.2103 342.168 88.3638 347.678 88.3638 347.678C89.9223 347.32 91.4424 346.826 92.9041 346.201C93.5383 345.709 93.9852 346.201 96.0031 346.598C98.021 346.994 98.6841 345.654 99.6786 345.148C100.673 344.643 103.657 345.49 103.657 345.49C102.952 345.807 102.172 345.944 101.394 345.887C100.298 345.723 98.5111 348.717 97.9345 348.389C97.358 348.061 93.1636 348.58 91.3619 349.469C89.5601 350.357 86.908 353.324 84.2414 352.408C81.9785 351.629 76.876 358.205 72.3933 358.287C73.2091 356.013 74.417 353.883 75.9679 351.984C79.6723 347.227 87.8449 345.148 93.3798 343.234C97.1129 341.936 100.875 340.746 104.637 339.516C108.673 338.148 112.824 339.105 116.327 336.193C118.431 334.457 120.002 331.873 122.697 331.244C124.701 330.779 126.849 331.531 128.823 331.025C131.389 330.369 133.219 327.744 135.872 327.703C137.187 327.853 138.479 328.151 139.72 328.592C142.026 329.057 144.39 328.332 146.754 328.127C149.082 328.026 151.414 328.187 153.701 328.605C160.852 329.901 168.069 330.846 175.322 331.436C180.67 331.709 186.594 331.586 191.812 332.98C194.094 333.753 196.001 335.289 197.173 337.301V337.301Z" fill="white"/>
<path d="M134.401 345.504C92.6015 352.34 60.0551 364.644 61.5542 372.847L62.8658 379.998C64.3072 388.201 99.4192 389.417 141.162 382.568C182.904 375.718 215.508 363.428 213.994 355.225L212.697 348.088C211.184 339.748 176.129 338.586 134.401 345.504Z" fill="#7E57C2"/>
<path d="M136.722 358.219C90.1223 365.861 53.6987 379.547 55.3851 388.789L56.1635 393.068C57.8499 402.31 96.9977 403.595 143.612 395.953C190.226 388.31 226.635 374.625 224.949 365.383L224.17 361.104C222.484 351.862 183.336 350.577 136.722 358.219Z" fill="#7E57C2"/>
<path opacity="0.2" d="M83.0308 400.847L79.658 400.697L83.0308 400.847Z" fill="white"/>
<path opacity="0.2" d="M65.0713 398.824C65.5325 398.947 66.0226 399.056 66.5127 399.165C66.0226 399.001 65.5037 398.892 65.0713 398.824Z" fill="white"/>
<path opacity="0.2" d="M136.722 358.219C90.1224 365.862 53.6987 379.547 55.3851 388.789L56.1635 393.068C56.3832 393.855 56.7824 394.586 57.3329 395.209C57.8833 395.833 58.5716 396.334 59.3489 396.678C58.5716 396.334 57.8833 395.833 57.3329 395.209C56.7824 394.586 56.3832 393.855 56.1635 393.068C54.4771 383.785 90.9007 370.114 137.573 362.512C184.244 354.911 223.32 356.155 225.007 365.383L224.228 361.104C222.484 351.862 183.336 350.577 136.722 358.219Z" fill="white"/>
<path d="M129.602 274.793C128.694 281.629 126.056 291.979 124.874 298.883C123.692 305.787 127.238 316.492 128.29 319.733C129.342 322.973 136.448 322.467 136.16 325.051C135.872 327.635 146.768 328.072 146.768 328.072C146.768 328.072 95.7148 347.213 90.5547 345.996C85.3945 344.779 100.125 335.223 102.951 334.594C105.776 333.965 107.275 332.311 109.177 328.483C111.08 324.654 113.04 325.338 115.029 321.496C116.803 318.628 118.4 315.666 119.815 312.623C122.078 307.291 124.038 290.899 121.66 289.518C119.281 288.137 121.443 302.082 119.397 302.547C117.35 303.012 122.063 288.766 115.851 281.575C109.639 274.383 129.602 274.793 129.602 274.793Z" fill="#263238"/>
<path opacity="0.2" d="M146.754 328.073C146.754 328.073 95.715 347.213 90.5404 345.996C85.8271 344.889 97.877 336.699 102.071 334.908C102.345 337.725 110.345 334.84 113.516 333.172C116.687 331.504 116.932 332.721 118.1 332.229C119.267 331.737 128.117 325.475 127.195 325.735C126.272 325.994 119.685 330.602 118.1 329.098C116.514 327.594 113.891 330.465 111.93 331.34C110.23 332.119 109.797 331.176 108.385 329.973C108.659 329.494 108.918 328.975 109.192 328.428C111.051 324.6 113.04 325.283 114.957 321.442C116.768 318.62 118.4 315.698 119.844 312.692C122.121 307.36 124.081 290.968 121.717 289.587C119.354 288.206 121.487 302.151 119.454 302.602C117.422 303.053 122.092 288.835 115.894 281.643C109.696 274.452 129.602 274.808 129.602 274.808C128.694 281.643 126.056 291.993 124.874 298.897C124.096 303.422 125.35 309.575 126.604 314.196C126.272 315.317 125.811 316.342 125.263 316.506C123.952 316.875 123.029 321.127 121.314 321.25C119.599 321.373 121.04 324.367 123.418 323.123C124.989 322.303 127.469 321.756 129.184 321.045C131.403 322.918 136.391 322.891 136.131 325.065C135.886 327.649 146.754 328.073 146.754 328.073Z" fill="white"/>
<path d="M157.291 243.541L156.685 244.484C154.687 247.857 152.513 251.134 150.17 254.301C147.893 257.668 145.272 260.814 142.343 263.693C139.576 266.222 136.751 267.412 135.137 270.433C134.726 271.183 134.411 271.977 134.2 272.799C133.594 275.082 133.407 277.83 131.317 279.115C130.814 279.357 130.333 279.636 129.876 279.949C128.823 280.81 128.881 282.314 128.607 283.599C128.333 284.884 127.022 286.334 125.724 285.705C124.427 285.076 124.369 283.504 123.202 283.558C122.91 283.618 122.625 283.705 122.352 283.818C121.17 284.105 120.074 283.23 119.166 282.451C118.258 281.672 116.961 280.961 115.923 281.562C112.781 278.826 109.329 276.428 105.632 274.412C102.634 272.689 99.5202 271.144 96.2482 269.476C89.0413 265.758 80.6813 262.093 75.6365 258.32C73.9986 257.189 72.6287 255.745 71.6151 254.082C71.3189 253.529 71.1239 252.933 71.0385 252.318C70.2025 245.564 92.2412 243.554 99.8661 238.523C107.491 233.492 119.397 236.719 124.369 235.666C129.342 234.613 135.007 236.103 140.297 235.734C145.587 235.365 148.844 233.916 151.929 236.049C155.013 238.181 158.429 237.539 159.136 239.166C159.481 240.232 158.184 242.201 157.291 243.541Z" fill="#263238"/>
<path opacity="0.2" d="M150.545 241.408C145.99 240.574 155.287 240.41 154.581 239.904C153.874 239.398 151.597 237.757 146.523 237.921C141.45 238.085 137.212 237.757 136.131 237.921C135.05 238.085 139.662 239.412 139.662 239.412H127.771C123.908 239.412 130.409 237.921 130.409 237.921H110.388C110.921 237.921 114.784 240.082 112.492 240.082C110.201 240.082 107.75 241.244 104.594 242.406C102.089 243.368 99.5111 244.149 96.8824 244.744C96.3635 244.744 104.089 239.275 104.565 238.919C104.089 239.111 97.6463 241.654 94.9509 242.406C92.2555 243.158 84.8613 245.578 84.2271 245.742C85.5757 245.825 86.9287 245.825 88.2773 245.742C88.2773 245.742 82.8289 248.408 80.0327 248.736C77.9282 248.982 72.8258 250.622 71.5862 254.095C72.5998 255.759 73.9697 257.203 75.6076 258.333C80.6524 262.107 88.9836 265.771 96.2193 269.489C99.4913 271.157 102.605 272.702 105.603 274.425C109.301 276.441 112.752 278.839 115.894 281.575C116.932 280.974 118.244 281.712 119.137 282.464C120.031 283.216 121.141 284.105 122.323 283.831C122.596 283.718 122.881 283.631 123.173 283.571C124.341 283.571 124.614 285.212 125.695 285.718C126.777 286.224 128.218 284.898 128.578 283.612C128.939 282.327 128.794 280.878 129.847 279.962C130.304 279.649 130.786 279.37 131.288 279.128C133.392 277.843 133.58 275.095 134.171 272.812C134.382 271.991 134.697 271.196 135.108 270.446C136.765 267.425 139.59 266.236 142.315 263.706C145.243 260.827 147.865 257.681 150.141 254.314C152.484 251.147 154.659 247.871 156.656 244.497C155.071 241.886 155.143 242.242 150.545 241.408ZM85.3513 259.058C83.8235 258.894 88.7674 257.431 88.7674 257.431C88.4101 257.967 87.9066 258.401 87.3103 258.687C86.7139 258.974 86.047 259.102 85.3802 259.058H85.3513ZM86.2738 253.439C86.2738 253.439 88.7674 251.566 89.8196 251.689C90.8322 251.755 91.8483 251.755 92.8609 251.689C92.8609 251.689 88.9404 254.191 86.3026 253.439H86.2738ZM106.15 268.054C104.349 267.726 108.053 266.687 108.947 266.919C109.84 267.152 108.284 268.423 106.179 268.054H106.15ZM115.044 248.913C115.044 248.913 107.404 251.046 108.947 251.046H111.829C111.296 251.046 103.397 252.673 103.008 252.605C104.508 251.659 106.079 250.819 107.707 250.089C107.707 250.089 107.145 249.419 107.174 249.173C107.203 248.927 108.961 248.421 108.961 248.421C109.581 247.915 112.348 247.177 113.401 247.792C114.619 248.234 115.916 248.448 117.22 248.421L115.044 248.913ZM118.258 263.775C116.125 261.929 122.452 263.775 122.452 263.775C122.452 263.775 119.728 265.046 118.287 263.802L118.258 263.775ZM121.717 243.951C124.6 242.078 125.321 243.951 125.321 243.951C125.321 243.951 120.78 244.552 121.717 243.951ZM131.706 251.197L129.486 250.117C130.414 249.585 131.442 249.232 132.513 249.078C133.953 249.021 135.376 249.384 136.592 250.117C137.371 250.568 132.47 251.566 131.692 251.169L131.706 251.197ZM137.385 260.384C137.385 260.384 133.839 260.302 133.493 260.384C134.758 259.868 136.058 259.434 137.385 259.085V260.384ZM142.891 246.863C142.891 246.863 145.414 246.343 146.595 247.587C148.181 249.255 142.877 246.863 142.877 246.863H142.891Z" fill="white"/>
<path d="M358.882 439.674L370.499 442.997H434.021L435.462 418.852L423.138 413.862C423.138 413.862 425.43 395.2 429.106 375.198L437.538 374.952L455.439 307.961L445.263 303.791L452.629 281.602H463.684L475.475 250.485C475.475 250.485 433.055 234.475 407.86 232.356L385.23 235.952L383.659 263.897L365.224 266.207L361.606 296.285L374.708 298.418L366.276 362.402L347.351 367.446L344.05 411.511L360.525 414.723L358.882 439.674Z" fill="#7E57C2"/>
<path opacity="0.6" d="M452.643 281.616L445.263 303.805L455.44 307.975L437.523 374.966L429.106 375.212C425.416 395.214 423.138 413.875 423.138 413.875L435.433 418.866L433.992 443.023H370.485L358.867 439.701L360.539 414.778L344.05 411.579L347.264 368.595L347.351 367.515L366.29 362.47L374.708 298.486L361.606 296.285L365.31 266.208L383.731 263.897L385.316 235.952L407.932 232.343C433.185 234.476 475.547 250.485 475.547 250.485L463.756 281.616H452.643Z" fill="white"/>
<path opacity="0.4" d="M435.433 418.839L372.589 420.506L360.539 414.751L374.347 417.184L423.138 413.849L435.433 418.839Z" fill="white"/>
<path opacity="0.4" d="M429.106 375.185L383.659 375.322L347.264 368.568L347.351 367.488L366.29 362.443L386.297 373.818L429.106 375.185Z" fill="white"/>
<path opacity="0.2" d="M445.264 303.805L389.194 298.596L374.708 298.459L361.606 296.327L388.387 293.415L445.264 303.805Z" fill="black"/>
<path opacity="0.2" d="M463.684 281.615H452.629L408.393 262.448L383.659 263.897L409.748 260.698L463.684 281.615Z" fill="black"/>
<path opacity="0.2" d="M407.859 232.343L409.748 260.698L383.659 263.897L385.23 235.966L407.859 232.343Z" fill="white"/>
<path opacity="0.2" d="M388.387 293.414L395.594 263.897L365.238 266.207L361.606 296.326L388.387 293.414Z" fill="white"/>
<path opacity="0.2" d="M374.708 298.459L402.166 299.799L386.297 373.818L366.291 362.443L374.708 298.459Z" fill="white"/>
<path opacity="0.2" d="M347.264 368.568L383.659 375.322L376.308 417.048L344.05 411.552L347.264 368.568Z" fill="white"/>
<path opacity="0.2" d="M372.589 420.507L370.485 442.997L358.867 439.675L360.539 414.765L372.589 420.507Z" fill="white"/>
<path d="M350.031 377.892L381.987 384.796L419.635 383.224L383.659 390.88L350.031 377.892Z" fill="#7E57C2"/>
<path d="M360.049 422.024L371.811 428.874H400.235L365.728 431.499L354.168 424.007L360.049 422.024Z" fill="#7E57C2"/>
<path d="M384.235 435.545H434.467L440.262 439.674L384.235 435.545Z" fill="#7E57C2"/>
<path d="M373.915 395.788L345.779 388.324L340.749 390.88L373.915 395.788Z" fill="#7E57C2"/>
<path d="M382.333 406.274L424.623 402.843L429.106 404.552L382.333 406.274Z" fill="#7E57C2"/>
<path d="M395.594 362.443L441.285 360.884L445.264 364.07L395.594 362.443Z" fill="#7E57C2"/>
<path d="M429.105 353.337L391.558 349.291L368.38 341.101H360.539L388.185 352.093L429.105 353.337Z" fill="#7E57C2"/>
<path d="M377.201 321.373L396.155 327.839L455.266 332.365L449.933 328.605L395.593 325.365L377.201 321.373Z" fill="#7E57C2"/>
<path d="M383.659 283.926L357.325 285.17L363.854 288.165L383.659 283.926Z" fill="#7E57C2"/>
<path d="M372.589 273.686L392.61 271.156L444.211 288.164L392.336 275.436L372.589 273.686Z" fill="#7E57C2"/>
<path d="M436.572 263.897L405.769 248.12L375.227 257.198L384.235 259.495L409.748 256.009L436.572 263.897Z" fill="#7E57C2"/>
<path d="M427.088 252.959L473.428 271.157H467.648L427.088 252.959Z" fill="#7E57C2"/>
<path d="M412.356 239.219L435.519 241.721L471.554 260.698C471.554 260.698 424.983 241.475 412.356 239.219Z" fill="#7E57C2"/>
<path d="M373.382 306.648L384.827 309.383L368.654 308.016L373.382 306.648Z" fill="#7E57C2"/>
<path opacity="0.7" d="M350.031 377.892L381.987 384.796L419.635 383.224L383.659 390.88L350.031 377.892Z" fill="white"/>
<path opacity="0.7" d="M360.049 422.024L371.811 428.874H400.235L365.728 431.499L354.168 424.007L360.049 422.024Z" fill="white"/>
<path opacity="0.7" d="M384.235 435.545H434.467L440.262 439.674L384.235 435.545Z" fill="white"/>
<path opacity="0.7" d="M373.915 395.788L345.779 388.324L340.749 390.88L373.915 395.788Z" fill="white"/>
<path opacity="0.7" d="M382.333 406.274L424.623 402.843L429.106 404.552L382.333 406.274Z" fill="white"/>
<path opacity="0.7" d="M395.594 362.443L441.285 360.884L445.264 364.07L395.594 362.443Z" fill="white"/>
<path opacity="0.7" d="M429.105 353.337L391.558 349.291L368.38 341.101H360.539L388.185 352.093L429.105 353.337Z" fill="white"/>
<path opacity="0.7" d="M377.201 321.373L396.155 327.839L455.266 332.365L449.933 328.605L395.593 325.365L377.201 321.373Z" fill="white"/>
<path opacity="0.7" d="M383.659 283.926L357.325 285.17L363.854 288.165L383.659 283.926Z" fill="white"/>
<path opacity="0.7" d="M372.589 273.686L392.61 271.156L444.211 288.164L392.336 275.436L372.589 273.686Z" fill="white"/>
<path opacity="0.7" d="M436.572 263.897L405.769 248.12L375.227 257.198L384.235 259.495L409.748 256.009L436.572 263.897Z" fill="white"/>
<path opacity="0.7" d="M427.088 252.959L473.428 271.157H467.648L427.088 252.959Z" fill="white"/>
<path opacity="0.7" d="M412.356 239.219L435.519 241.721L471.554 260.698C471.554 260.698 424.983 241.475 412.356 239.219Z" fill="white"/>
<path opacity="0.7" d="M373.382 306.648L384.827 309.383L368.654 308.016L373.382 306.648Z" fill="white"/>
<path opacity="0.1" d="M382.333 313.635L397.986 317.381L441.977 321.373L397.986 319.336L382.333 313.635Z" fill="black"/>
<path opacity="0.1" d="M377.201 302.643L402.166 303.805L448.939 311.393L400.71 306.649L377.201 302.643Z" fill="black"/>
<path opacity="0.1" d="M370.499 289.409L390.087 286.483L439.728 297.406L389.669 288.164L370.499 289.409Z" fill="black"/>
<path opacity="0.1" d="M375.227 280.111L391.745 279.66L441.977 291.938L391.269 281.615L375.227 280.111Z" fill="black"/>
<path opacity="0.1" d="M364.633 271.156L389.713 268.436L364.633 272.934V271.156Z" fill="black"/>
<path opacity="0.1" d="M363.854 277.651H372.589L363.854 279.661V277.651Z" fill="black"/>
<path opacity="0.1" d="M384.827 243.075L408.321 239.219L439.729 249.965L408.609 241.721L384.827 244.592V243.075Z" fill="black"/>
<path opacity="0.1" d="M465.818 275.969L429.985 265.36L464.809 278.648L465.818 275.969Z" fill="black"/>
<path opacity="0.1" d="M403.435 245.713L408.681 244.592L465.817 262.051L408.926 246.383L403.435 245.713Z" fill="black"/>
<path opacity="0.1" d="M474.538 252.959L454.042 246.042L473.428 254.709L474.538 252.959Z" fill="black"/>
<path opacity="0.1" d="M372.589 329.111L394.512 335.468L444.211 339.269L394.051 337.669L372.589 329.111Z" fill="black"/>
<path opacity="0.1" d="M367.861 348.758L389.929 356.837L439.729 357.917H389.698L367.861 348.758Z" fill="black"/>
<path opacity="0.1" d="M430.691 370.564L388.185 366.08L370.499 359.244L387.421 368.568L430.691 370.564Z" fill="black"/>
<path opacity="0.1" d="M445.48 345.23C445.076 345.093 411.204 344.259 411.204 344.259L444.946 347.227L445.48 345.23Z" fill="black"/>
<path opacity="0.1" d="M346.63 371.74L382.967 379.259H408.393L382.693 380.735L347.264 373.818L346.63 371.74Z" fill="black"/>
<path opacity="0.1" d="M426.713 389.062C426.713 389.13 391.385 392.808 391.385 392.808L426.41 390.935L426.713 389.062Z" fill="black"/>
<path opacity="0.1" d="M354.168 386.71C353.692 386.491 376.106 390.935 376.106 390.935C376.106 390.935 362.153 390.497 354.168 386.71Z" fill="black"/>
<path opacity="0.1" d="M345.231 395.788L376.106 402.843L345.231 398.044V395.788Z" fill="black"/>
<path opacity="0.1" d="M351.012 406.274L377.202 411.934L416.234 411.182L377.202 413.848L351.012 406.274Z" fill="black"/>
<path opacity="0.1" d="M386.47 399.315H413.842L391.37 400.367L386.47 399.315Z" fill="black"/>
<path opacity="0.1" d="M363.869 420.506L372.286 423.993C372.286 423.993 417.056 423.651 416.248 423.993C415.441 424.334 372.113 425.838 372.113 425.838L363.869 420.506Z" fill="black"/>
<path opacity="0.1" d="M429.106 431.499C429.106 431.499 387.306 432.497 388.185 432.497H422.778L429.106 431.499Z" fill="black"/>
<path opacity="0.1" d="M435.433 423.172C435.433 423.172 428.572 422.516 429.106 423.172C429.639 423.828 435.087 424.689 435.087 424.689L435.433 423.172Z" fill="black"/>
<path opacity="0.1" d="M363.854 435.545L371.061 436.967L409.762 439.674L370.888 438.799L363.854 435.545Z" fill="black"/>
<path d="M289.652 150.709C298.935 154.619 316.404 154.085 323.107 140.154C329.809 126.223 329.334 114.273 314.17 107.574C299.007 100.875 279.894 109.42 278.265 122.094C276.637 134.767 275.008 144.529 289.652 150.709Z" fill="#263238"/>
<path d="M110.849 417.431C111.847 416.096 112.58 414.599 113.011 413.015C113.011 413.015 117.581 408.066 132.081 404.948L133.364 398.755C133.57 397.695 133.427 396.601 132.952 395.621C132.477 394.642 131.694 393.827 130.712 393.286C130.438 393.135 130.141 393.024 129.832 392.958C128.243 392.732 126.639 392.609 125.032 392.589C119.652 392.571 114.275 392.864 108.932 393.464L109.004 394.557L119.094 394.393C122.539 394.393 118.676 397.128 115.029 398.016C111.383 398.905 107.549 400.751 107.822 407.847C108.269 416.241 108.831 419.673 110.849 417.431Z" fill="#2E353A"/>
<path d="M135.829 404.456C135.829 404.456 117.206 409.146 113.012 413.015C113.012 413.015 110.446 406.356 120.045 401.626C132.47 395.515 129.832 393.013 129.832 393.013C131.665 393.506 133.446 394.161 135.151 394.968C138.409 396.8 135.829 404.456 135.829 404.456Z" fill="#E4897B"/>
<path d="M310.639 172.022C315.395 175.099 323.222 203.618 325.586 205.45C327.95 207.282 345.433 198.382 345.433 198.382L349.253 206.448C349.253 206.448 322.847 221.774 319.215 218.889C315.582 216.004 303.706 185.147 303.706 185.147L310.639 172.022Z" fill="#263238"/>
<path opacity="0.2" d="M310.639 172.022C315.395 175.099 323.222 203.618 325.586 205.45C327.95 207.282 345.433 198.382 345.433 198.382L349.253 206.448C349.253 206.448 322.847 221.774 319.215 218.889C315.582 216.004 303.706 185.147 303.706 185.147L310.639 172.022Z" fill="white"/>
<path d="M213.62 199.394L231.594 216.634C231.594 216.634 286.51 234.407 300.203 215.526C300.203 215.526 294.236 187.171 278.842 182.317C263.448 177.464 213.62 199.394 213.62 199.394Z" fill="#263238"/>
<path opacity="0.1" d="M213.62 199.394L231.594 216.634C231.594 216.634 286.51 234.407 300.203 215.526C300.203 215.526 294.236 187.171 278.842 182.317C263.448 177.464 213.62 199.394 213.62 199.394Z" fill="white"/>
<path d="M344.468 205.847L355.35 200.228L360.481 188.662C362.619 189.354 364.712 190.161 366.751 191.081C367.472 191.615 364.445 201.171 363.681 201.772C362.917 202.374 358.593 202.853 358.593 202.853L348.23 209.073L344.468 205.847Z" fill="#E4897B"/>
<path d="M248.948 157.134C248.948 157.134 284.593 156.355 310.639 172.023C307.637 191.352 302.283 210.287 294.683 228.446L242.418 220.243C242.418 220.243 248.011 206.12 241.813 177.861L248.948 157.134Z" fill="#7E57C2"/>
<path opacity="0.6" d="M248.948 157.134C248.948 157.134 284.593 156.355 310.639 172.023C307.637 191.352 302.283 210.287 294.683 228.446L242.418 220.243C242.418 220.243 248.011 206.12 241.813 177.861L248.948 157.134Z" fill="white"/>
<path d="M264.414 155.589C271.621 184.628 239.91 210.618 215.71 210.932L209.454 198.34L235.269 188.128L249.005 157.134L264.414 155.589Z" fill="#263238"/>
<path d="M299.713 165.679C299.713 165.679 294.856 206.284 300.203 215.526C300.203 215.526 309.327 199.68 311.388 172.692C307.865 169.843 303.935 167.482 299.713 165.679V165.679Z" fill="#263238"/>
<path opacity="0.3" d="M264.414 155.589C271.621 184.628 239.91 210.618 215.71 210.932L209.454 198.34L235.269 188.128L249.005 157.134L264.414 155.589Z" fill="white"/>
<path opacity="0.3" d="M299.713 165.679C299.713 165.679 294.856 206.284 300.203 215.526C300.203 215.526 309.327 199.68 311.388 172.692C307.865 169.843 303.935 167.482 299.713 165.679V165.679Z" fill="white"/>
<path d="M272.341 155.986C272.341 155.986 265.855 152.732 255.146 158.98L261.733 163.41L256.847 168.646C256.753 178.062 254.413 187.335 250 195.771C250 195.771 261.704 184.437 265.653 172.05C269.603 159.664 267.815 156.834 272.341 155.986Z" fill="#263238"/>
<path d="M293.472 161.481C293.472 161.481 301.197 163.067 307.885 171.517L303.763 172.241L307.77 178.845L297.68 200.173C297.68 200.173 296.614 183.766 297.118 173.868C297.209 169.489 295.941 165.182 293.472 161.481V161.481Z" fill="#263238"/>
<path opacity="0.2" d="M272.341 155.986C272.341 155.986 265.855 152.732 255.146 158.98L261.733 163.41L256.847 168.646C256.753 178.062 254.413 187.335 250 195.771C250 195.771 261.704 184.437 265.653 172.05C269.603 159.664 267.815 156.834 272.341 155.986Z" fill="white"/>
<path opacity="0.2" d="M293.472 161.481C293.472 161.481 301.197 163.067 307.885 171.517L303.763 172.241L307.77 178.845L297.68 200.173C297.68 200.173 296.614 183.766 297.118 173.868C297.209 169.489 295.941 165.182 293.472 161.481V161.481Z" fill="white"/>
<path d="M294.438 295.178C285.717 329.275 260.551 374.665 255.636 383.456C251.802 390.374 236.595 392.698 218.16 394.722C182.601 398.632 134.704 404.825 134.704 404.825V394.189C134.704 394.189 231.421 372.574 232.992 367.638C235.183 360.652 237.763 327.43 240.069 299.471C240.343 296.354 240.602 293.305 240.847 290.366C241.251 285.526 241.626 281.028 241.943 277.145C242.692 268.245 243.153 262.475 243.153 262.475L294.755 227.927C294.755 227.927 305.334 252.536 294.438 295.178Z" fill="#263238"/>
<path opacity="0.2" d="M294.438 295.178C285.717 329.275 260.551 374.665 255.636 383.456C251.802 390.374 236.595 392.698 218.16 394.722C182.601 398.632 134.704 404.825 134.704 404.825V394.189C134.704 394.189 231.421 372.574 232.992 367.638C235.183 360.652 237.763 327.43 240.069 299.471C240.343 296.354 240.602 293.305 240.847 290.366C241.251 285.526 241.626 281.028 241.943 277.145C242.692 268.245 243.153 262.475 243.153 262.475L294.755 227.927C294.755 227.927 305.334 252.536 294.438 295.178Z" fill="black"/>
<path d="M319.186 337.368C314.315 327.251 272.342 264.184 272.342 264.184L231.089 270.801C244.393 307.81 291.757 345.612 299.785 355.429C307.814 365.245 367.458 452.744 367.458 452.744L374.795 447.822C374.795 447.822 329.507 358.778 319.186 337.368Z" fill="#263238"/>
<path d="M242.375 220.257L296.657 223.606L295.663 229.513C295.663 229.513 289.897 255.995 266.994 270.036L231.089 270.801C231.089 270.801 226.894 249.214 241.034 224.194L242.375 220.257Z" fill="#263238"/>
<path d="M261.344 221.966L243.442 220.968L242.087 224.919L260.94 226.259L261.344 221.966Z" fill="black"/>
<path d="M263.592 222.089L263.188 226.422L294.567 228.664L294.855 223.839L263.592 222.089Z" fill="black"/>
<path d="M286.035 229.513H285.934L280.168 229.199C279.721 229.171 279.302 228.98 279.001 228.665C278.853 228.508 278.74 228.324 278.668 228.124C278.596 227.925 278.567 227.714 278.583 227.503L278.828 223.825C278.84 223.615 278.897 223.409 278.994 223.22C279.091 223.031 279.226 222.861 279.392 222.721C279.558 222.582 279.752 222.474 279.961 222.406C280.171 222.337 280.393 222.308 280.615 222.321L286.38 222.65C286.603 222.657 286.822 222.708 287.023 222.8C287.224 222.892 287.403 223.022 287.548 223.183C287.697 223.34 287.811 223.523 287.883 223.723C287.955 223.923 287.983 224.134 287.966 224.345L287.75 227.968C287.718 228.375 287.527 228.755 287.215 229.036C286.904 229.316 286.493 229.477 286.063 229.486L286.035 229.513ZM280.528 223.716C280.466 223.716 280.406 223.738 280.36 223.779C280.315 223.82 280.287 223.876 280.283 223.935L280.053 227.572C280.059 227.633 280.086 227.69 280.13 227.735C280.175 227.78 280.234 227.809 280.298 227.818L286.063 228.146C286.126 228.14 286.185 228.113 286.23 228.071C286.274 228.029 286.302 227.973 286.308 227.913L286.525 224.29C286.538 224.262 286.544 224.232 286.544 224.201C286.544 224.171 286.538 224.14 286.525 224.113C286.477 224.069 286.417 224.04 286.352 224.03L280.586 223.716H280.528Z" fill="white"/>
<path d="M286.957 226.819L284.78 226.696C284.686 226.691 284.593 226.668 284.508 226.629C284.422 226.589 284.346 226.534 284.283 226.467C284.22 226.4 284.172 226.321 284.141 226.236C284.11 226.151 284.097 226.061 284.103 225.971C284.108 225.881 284.133 225.793 284.174 225.712C284.215 225.631 284.273 225.559 284.344 225.499C284.415 225.44 284.498 225.394 284.588 225.364C284.677 225.335 284.772 225.323 284.867 225.328L287.029 225.452C287.124 225.457 287.216 225.48 287.302 225.519C287.387 225.558 287.463 225.613 287.526 225.68C287.589 225.748 287.638 225.826 287.668 225.911C287.699 225.996 287.712 226.086 287.706 226.176C287.703 226.266 287.68 226.353 287.64 226.434C287.601 226.515 287.544 226.587 287.474 226.647C287.404 226.707 287.323 226.753 287.234 226.783C287.145 226.812 287.051 226.825 286.957 226.819V226.819Z" fill="white"/>
<path d="M288.917 192.38L303.749 185.161C304.777 183.714 306.076 182.458 307.583 181.456C309.168 180.759 323.15 182.824 323.15 182.824L317.917 193.31C317.917 193.31 307.568 192.749 306.473 191.943L292.91 198.779L288.917 192.38Z" fill="#E4897B"/>
<path d="M248.948 157.134C235.298 160.498 255.809 207.966 264.803 210.66C273.797 213.353 302.639 194.923 302.639 194.923L297.681 187.021C297.681 187.021 272.471 196.591 270.165 195.539C267.859 194.486 258.548 170.628 256.89 166.363C255.232 162.097 248.948 157.134 248.948 157.134Z" fill="#263238"/>
<path opacity="0.2" d="M248.948 157.134C235.298 160.498 255.809 207.966 264.803 210.66C273.797 213.353 302.639 194.923 302.639 194.923L297.681 187.021C297.681 187.021 272.471 196.591 270.165 195.539C267.859 194.486 258.548 170.628 256.89 166.363C255.232 162.097 248.948 157.134 248.948 157.134Z" fill="white"/>
<path opacity="0.6" d="M300.088 194.922C300.06 195.042 299.985 195.148 299.877 195.216C299.77 195.285 299.639 195.312 299.511 195.291C299.448 195.28 299.387 195.257 299.333 195.223C299.279 195.189 299.233 195.146 299.197 195.095C299.16 195.044 299.135 194.987 299.122 194.927C299.11 194.867 299.11 194.805 299.122 194.745C299.132 194.684 299.156 194.625 299.191 194.573C299.226 194.521 299.272 194.476 299.326 194.441C299.38 194.407 299.441 194.383 299.505 194.372C299.569 194.361 299.635 194.362 299.699 194.376C299.825 194.402 299.936 194.474 300.009 194.575C300.081 194.677 300.109 194.801 300.088 194.922V194.922Z" fill="white"/>
<path opacity="0.6" d="M296.629 196.946C296.616 197.006 296.592 197.063 296.556 197.114C296.521 197.166 296.475 197.21 296.421 197.244C296.368 197.278 296.307 197.302 296.244 197.314C296.181 197.326 296.115 197.327 296.052 197.315C295.926 197.288 295.815 197.217 295.742 197.115C295.67 197.013 295.641 196.889 295.663 196.768C295.688 196.647 295.762 196.54 295.87 196.47C295.979 196.401 296.111 196.376 296.239 196.399C296.367 196.423 296.48 196.494 296.553 196.596C296.626 196.699 296.653 196.824 296.629 196.946V196.946Z" fill="white"/>
<path d="M371.695 170.068L353.376 215.103C353.139 215.614 352.721 216.03 352.194 216.28C351.668 216.53 351.066 216.597 350.493 216.47L316.952 208.554C316.685 208.496 316.435 208.384 316.219 208.225C316.003 208.066 315.826 207.865 315.7 207.635C315.574 207.405 315.502 207.151 315.489 206.892C315.476 206.633 315.523 206.374 315.626 206.134L333.931 161.1C334.17 160.59 334.589 160.175 335.114 159.926C335.64 159.677 336.241 159.608 336.814 159.732L370.355 167.662C370.622 167.717 370.874 167.826 371.091 167.983C371.309 168.14 371.488 168.34 371.616 168.569C371.744 168.798 371.817 169.051 371.831 169.31C371.845 169.569 371.798 169.828 371.695 170.068V170.068Z" fill="#263238"/>
<path opacity="0.3" d="M371.695 170.068L353.375 215.102C353.138 215.613 352.721 216.03 352.194 216.279C351.668 216.529 351.066 216.596 350.493 216.469L318.48 208.909C318.21 208.855 317.957 208.745 317.738 208.588C317.519 208.43 317.34 208.228 317.213 207.997C317.086 207.765 317.015 207.51 317.005 207.249C316.994 206.988 317.045 206.729 317.153 206.489L335.459 161.455C335.696 160.944 336.114 160.527 336.64 160.277C337.167 160.028 337.769 159.961 338.342 160.088L370.369 167.648C370.637 167.704 370.888 167.815 371.106 167.973C371.324 168.132 371.502 168.333 371.628 168.564C371.755 168.795 371.826 169.049 371.838 169.309C371.849 169.569 371.801 169.828 371.695 170.068V170.068Z" fill="white"/>
<path opacity="0.3" d="M345.967 185.244C345.135 185.066 344.263 185.173 343.507 185.546C342.75 185.919 342.156 186.533 341.83 187.281C341.679 187.622 341.609 187.989 341.623 188.359C341.638 188.728 341.737 189.09 341.914 189.419C342.091 189.748 342.342 190.037 342.648 190.265C342.955 190.493 343.31 190.655 343.69 190.74C344.522 190.92 345.394 190.814 346.152 190.441C346.909 190.068 347.503 189.452 347.826 188.703C347.446 188.62 347.089 188.46 346.781 188.232C346.473 188.004 346.221 187.716 346.044 187.386C345.866 187.056 345.768 186.693 345.754 186.323C345.741 185.953 345.814 185.584 345.967 185.244V185.244Z" fill="white"/>
<path d="M262.05 167.47C262.05 167.47 264.169 158.419 267.931 156.533C271.693 154.646 289.652 157.64 295.893 163.204C299.746 166.9 302.182 171.713 302.812 176.876L294.784 173.65L282.604 186.665L273.062 168.454L262.05 167.47Z" fill="#7E57C2"/>
<path opacity="0.5" d="M262.05 167.47C262.05 167.47 264.169 158.419 267.931 156.533C271.693 154.646 289.652 157.64 295.893 163.204C299.746 166.9 302.182 171.713 302.812 176.876L294.784 173.65L282.604 186.665L273.062 168.454L262.05 167.47Z" fill="white"/>
<path d="M280.096 156.902C290.459 157.654 295.836 164.449 294.51 170.013L288.067 170.861L282.878 184.259L280.831 169.37L274.33 165.447C274.33 165.447 270.179 156.163 280.096 156.902Z" fill="#E4897B"/>
<path d="M283.916 171.558C274.028 164.162 275.181 158.365 275.181 158.365C280.038 155.822 283.267 150.326 284.435 146.06C284.816 144.717 285.076 143.345 285.213 141.959L296.672 151.529C295.296 153.064 294.039 154.691 292.91 156.396C292.063 157.643 291.38 158.984 290.877 160.388C289.436 164.49 291.613 165.857 291.613 165.857C291.324 171.257 283.916 171.558 283.916 171.558Z" fill="#E4897B"/>
<path opacity="0.2" d="M292.679 155.726C292.014 157.066 291.53 158.481 291.238 159.937C286.078 156.97 283.844 151.105 282.907 146.415C283.103 145.057 283.18 143.685 283.137 142.314L295.778 150.517C294.615 152.181 293.579 153.921 292.679 155.726Z" fill="black"/>
<path d="M311.042 119.236C322.833 124.637 323.582 132.361 318.581 144.269C312.325 159.171 303.749 167.853 290.575 158.023C272.687 144.679 291.468 110.268 311.042 119.236Z" fill="#E4897B"/>
<path d="M311.273 140.154C311.363 142.256 311.721 144.34 312.339 146.361C311.761 146.666 311.105 146.814 310.443 146.787C309.782 146.761 309.141 146.561 308.592 146.211L311.273 140.154Z" fill="#DE5753"/>
<path d="M304.527 135.943C304.08 136.872 303.187 137.392 302.538 137.105C301.89 136.818 301.717 135.847 302.163 134.917C302.61 133.988 303.489 133.468 304.152 133.742C304.816 134.015 304.974 134.958 304.527 135.943Z" fill="#263238"/>
<path d="M303.85 133.674L306.358 133.797C306.358 133.797 304.484 135.039 303.85 133.674Z" fill="#263238"/>
<path d="M316.793 140.988C316.347 141.917 315.453 142.45 314.804 142.163C314.156 141.876 313.983 140.906 314.429 139.976C314.876 139.047 315.756 138.513 316.419 138.8C317.082 139.088 317.24 140.058 316.793 140.988Z" fill="#263238"/>
<path d="M316.116 138.732L318.624 138.855C318.624 138.855 316.75 140.097 316.116 138.732Z" fill="#263238"/>
<path d="M307.871 129.873C307.783 129.872 307.696 129.848 307.62 129.805C307.545 129.762 307.482 129.701 307.439 129.627C306.945 128.851 306.272 128.191 305.471 127.696C304.669 127.201 303.761 126.884 302.812 126.77C302.745 126.77 302.679 126.757 302.618 126.732C302.556 126.707 302.501 126.67 302.455 126.624C302.409 126.578 302.374 126.523 302.351 126.464C302.328 126.404 302.318 126.341 302.322 126.278C302.322 126.214 302.336 126.15 302.362 126.091C302.388 126.032 302.427 125.979 302.475 125.934C302.523 125.89 302.581 125.855 302.644 125.831C302.706 125.808 302.774 125.797 302.841 125.799C306.243 125.881 308.232 129.012 308.318 129.135C308.386 129.248 308.405 129.381 308.37 129.507C308.335 129.632 308.249 129.739 308.131 129.805C308.052 129.848 307.963 129.872 307.871 129.873V129.873Z" fill="#263238"/>
<path d="M322.069 133.797H321.853C321.117 133.409 320.299 133.182 319.458 133.132C318.618 133.082 317.776 133.212 316.995 133.51C316.937 133.541 316.872 133.561 316.805 133.568C316.739 133.576 316.671 133.57 316.607 133.552C316.542 133.534 316.482 133.505 316.43 133.464C316.378 133.424 316.335 133.375 316.303 133.319C316.268 133.264 316.246 133.202 316.237 133.139C316.228 133.075 316.234 133.01 316.253 132.949C316.271 132.887 316.304 132.83 316.347 132.78C316.391 132.731 316.444 132.691 316.505 132.662C317.424 132.29 318.421 132.119 319.419 132.164C320.418 132.209 321.393 132.468 322.271 132.922C322.391 132.978 322.484 133.077 322.53 133.197C322.576 133.316 322.57 133.448 322.516 133.565C322.47 133.638 322.404 133.698 322.325 133.738C322.247 133.779 322.158 133.8 322.069 133.797V133.797Z" fill="#263238"/>
<path d="M288.571 132.224C288.571 132.224 298.762 125.566 301.544 118.087C301.544 118.087 329.521 119.742 319.215 142.696C319.215 142.696 331.669 123.775 311.633 113.986C291.598 104.197 277.386 132.484 283.541 145.649C283.541 145.649 282.229 136.325 288.571 132.224Z" fill="#263238"/>
<path d="M289.292 135.41C289.829 134.064 289.785 132.571 289.17 131.256C288.555 129.94 287.418 128.908 286.006 128.382C282.157 127.084 276.795 133.4 285.011 139.32C286.193 140.113 287.548 139.252 289.292 135.41Z" fill="#E4897B"/>
<path d="M301.01 108.217C301.01 108.217 309.904 106.33 315.597 109.01C321.29 111.689 321.68 115.709 321.68 115.709C322.997 115.482 324.352 115.559 325.631 115.933C326.91 116.306 328.076 116.966 329.031 117.855C332.576 120.959 334.666 129.886 330.904 139.443C327.142 148.999 318.364 147.646 318.364 147.646C318.364 147.646 329.809 133.468 317.615 124.254C317.615 124.254 313.622 119.715 308.967 122.463C304.311 125.211 300.996 136.681 290.748 129.217C280.499 121.752 292.175 110.418 301.01 108.217Z" fill="#263238"/>
<path d="M305.839 151.187C305.715 151.185 305.596 151.141 305.504 151.063C305.412 150.986 305.351 150.879 305.334 150.763C305.104 149.027 302.033 147.059 300.866 146.457C300.748 146.391 300.662 146.285 300.624 146.16C300.586 146.036 300.601 145.902 300.664 145.787C300.697 145.732 300.741 145.684 300.794 145.645C300.846 145.607 300.907 145.578 300.971 145.562C301.035 145.545 301.102 145.541 301.169 145.549C301.235 145.557 301.298 145.578 301.356 145.609C301.543 145.705 305.997 148.07 306.343 150.64C306.36 150.767 306.324 150.894 306.243 150.996C306.163 151.098 306.043 151.167 305.911 151.187H305.839Z" fill="#263238"/>
<path d="M301.89 110.008C301.89 110.008 295.706 90.5392 282.273 96.1446C268.839 101.75 262.309 115.818 251.441 107.615C240.573 99.4121 235.586 110.049 230.311 113.289C225.035 116.529 215.695 111.662 218.189 107.615C218.189 107.615 211.342 112.578 223.479 117.801C235.615 123.023 241.568 112.113 245.431 116.242C249.294 120.371 262.972 128.588 270.179 122.654C272.205 120.96 274.676 119.819 277.331 119.352C279.986 118.885 282.725 119.11 285.256 120.002L301.89 110.008Z" fill="#263238"/>
<path d="M265.581 128.123C264.65 128.121 263.727 127.959 262.857 127.644C260.263 126.669 257.727 125.56 255.261 124.322C249.899 121.752 244.825 119.319 242 121.438C241.933 121.5 241.842 121.535 241.748 121.535C241.654 121.535 241.563 121.5 241.496 121.438C241.461 121.407 241.434 121.37 241.415 121.329C241.396 121.288 241.387 121.243 241.387 121.198C241.387 121.154 241.396 121.109 241.415 121.068C241.434 121.027 241.461 120.99 241.496 120.959C244.681 118.58 249.957 121.109 255.521 123.775C257.969 125.006 260.485 126.11 263.059 127.084C267.758 128.738 272.226 125.17 276.175 122.012C279.058 119.742 281.682 117.61 284.19 117.541C284.237 117.539 284.284 117.547 284.329 117.562C284.373 117.578 284.414 117.601 284.449 117.632C284.483 117.662 284.512 117.699 284.531 117.74C284.551 117.78 284.562 117.825 284.564 117.869C284.564 117.961 284.527 118.05 284.46 118.116C284.392 118.182 284.301 118.221 284.204 118.225C281.955 118.293 279.375 120.344 276.651 122.531C273.35 125.088 269.617 128.123 265.581 128.123Z" fill="#263238"/>
<path d="M227.659 111.02C226.748 111.019 225.862 110.736 225.136 110.213C225.096 110.189 225.061 110.156 225.034 110.118C225.008 110.08 224.99 110.037 224.982 109.992C224.973 109.947 224.975 109.901 224.987 109.856C224.999 109.812 225.02 109.771 225.05 109.735C225.105 109.664 225.186 109.616 225.278 109.601C225.369 109.585 225.463 109.604 225.54 109.653C228.653 111.744 231.968 108.6 235.197 105.551C237.474 103.391 239.622 101.354 241.727 101.108C243.831 100.862 246.454 102.174 249.568 103.842C254.354 106.809 259.765 108.75 265.423 109.53C265.518 109.539 265.606 109.583 265.667 109.654C265.728 109.724 265.757 109.815 265.747 109.906C265.738 109.996 265.69 110.08 265.616 110.137C265.542 110.195 265.446 110.222 265.351 110.213C259.577 109.421 254.054 107.448 249.164 104.43C246.18 102.776 243.817 101.477 241.784 101.696C239.752 101.915 237.864 103.87 235.673 105.948C233.194 108.408 230.426 111.02 227.659 111.02Z" fill="#263238"/>
<path d="M297.681 135.177C296.133 135.117 294.624 134.699 293.285 133.96C293.244 133.937 293.208 133.905 293.179 133.868C293.151 133.831 293.131 133.789 293.12 133.744C293.11 133.7 293.108 133.653 293.117 133.608C293.125 133.563 293.143 133.52 293.17 133.482C293.194 133.444 293.227 133.412 293.265 133.386C293.304 133.361 293.347 133.343 293.393 133.335C293.439 133.326 293.486 133.326 293.532 133.334C293.578 133.343 293.621 133.361 293.66 133.386C293.876 133.509 298.849 136.394 301.616 132.429C308.736 122.162 311.288 119.646 315.626 121.423C315.671 121.44 315.712 121.465 315.746 121.497C315.78 121.529 315.807 121.567 315.825 121.61C315.843 121.652 315.851 121.698 315.849 121.743C315.847 121.789 315.835 121.834 315.814 121.875C315.773 121.956 315.701 122.019 315.613 122.052C315.524 122.085 315.426 122.085 315.338 122.052C311.677 120.548 309.472 122.353 302.207 132.812C301.737 133.548 301.072 134.154 300.278 134.569C299.483 134.984 298.588 135.194 297.681 135.177Z" fill="#263238"/>
<path d="M358.104 204.179L387.551 193.242C387.551 193.242 420.933 211.767 442.15 214.829L405.453 221.665C405.453 221.665 365.743 214.255 358.104 204.179Z" fill="#7E57C2"/>
<path d="M179.733 293.92L202.103 274.78C202.103 274.78 240.343 280.248 270.179 293.92L239.017 312.063C239.017 312.063 209.642 297.912 179.733 293.92Z" fill="#7E57C2"/>
<path d="M0.396484 318.379L29.1376 308.973C29.1376 308.973 54.0735 334.252 73.9501 334.252L41.0001 349.263C41.0001 349.263 5.87373 336.507 0.396484 318.379Z" fill="#7E57C2"/>
<path d="M110.662 223.661C110.662 223.661 148.138 219.559 174.76 239.137L161.053 255.146C161.053 255.146 128.117 241.94 99.2896 249.678L110.662 223.661Z" fill="#7E57C2"/>
<path d="M448.982 373.175L485.132 379.026C485.132 379.026 453.753 398.823 427.29 402.405L398.765 393.642C398.765 393.642 433.156 390.237 448.982 373.175Z" fill="#7E57C2"/>
<path d="M437.509 313.799C437.509 313.799 472.261 312.022 496.836 321.688L511.582 308.344C511.582 308.344 472.996 292.307 448.161 300.319L437.509 313.799Z" fill="#7E57C2"/>
<path d="M199.97 439.838C199.97 439.838 217.338 422.489 260.709 417.963L287 429.202C287 429.202 247.78 437.282 229.922 445.143L199.97 439.838Z" fill="#7E57C2"/>
<path opacity="0.6" d="M358.104 204.179L387.551 193.242C387.551 193.242 420.933 211.767 442.15 214.829L405.453 221.665C405.453 221.665 365.743 214.255 358.104 204.179Z" fill="white"/>
<path opacity="0.6" d="M179.733 293.92L202.103 274.78C202.103 274.78 240.343 280.248 270.179 293.92L239.017 312.063C239.017 312.063 209.642 297.912 179.733 293.92Z" fill="white"/>
<path opacity="0.6" d="M0.396484 318.379L29.1376 308.973C29.1376 308.973 54.0735 334.252 73.9501 334.252L41.0001 349.263C41.0001 349.263 5.87373 336.507 0.396484 318.379Z" fill="white"/>
<path opacity="0.4" d="M110.662 223.661C110.662 223.661 148.138 219.559 174.76 239.137L161.053 255.146C161.053 255.146 128.117 241.94 99.2896 249.678L110.662 223.661Z" fill="white"/>
<path opacity="0.8" d="M448.982 373.175L485.132 379.026C485.132 379.026 453.753 398.823 427.29 402.405L398.765 393.642C398.765 393.642 433.156 390.237 448.982 373.175Z" fill="white"/>
<path opacity="0.4" d="M437.509 313.799C437.509 313.799 472.261 312.022 496.836 321.688L511.582 308.344C511.582 308.344 472.996 292.307 448.161 300.319L437.509 313.799Z" fill="white"/>
<path opacity="0.4" d="M199.97 439.838C199.97 439.838 217.338 422.489 260.709 417.963L287 429.202C287 429.202 247.78 437.282 229.922 445.143L199.97 439.838Z" fill="white"/>
</svg>
