<svg width="1440" height="1024" viewBox="0 0 1440 1024" fill="none" xmlns="http://www.w3.org/2000/svg">
<path d="M1284 211.471C1285.74 223.817 1296.47 234.014 1308.93 239.816C1321.38 245.618 1335.49 247.768 1349.34 250.012C1363.19 252.257 1377.3 254.768 1389.36 261.16L1413.34 202.188C1413.34 202.188 1383.77 190.07 1353.12 191.154C1328.37 192.01 1308.71 163 1308.71 163L1284 211.471Z" fill="#E0E0E0"/>
<path d="M201.889 346.947C157.444 306.259 107.78 283.997 44.0001 279.097C59.0575 258.316 85.7501 217.781 100.765 197C180.671 197.38 242.783 237.421 284.704 297.066C255.231 315.985 231.447 328.028 201.889 346.947Z" fill="#E0E0E0"/>
<path d="M622.189 562.442C512.504 564.527 421.403 538.619 336.968 476.561C327.137 517.893 304.716 595.675 294.818 637.067C393.258 721.877 523.277 739.446 655.855 711.633C645.284 657.078 632.558 616.937 622.189 562.442Z" fill="#FAFAFA"/>
<path d="M622.189 562.442C622.189 562.442 622.189 563.276 622.862 565.003C623.536 566.73 623.872 569.47 624.613 572.805C626.162 579.773 628.451 589.719 631.346 602.584C637.272 628.372 647.775 665.238 657 711.573V712.645H655.788C631.425 717.763 606.704 721.444 581.79 723.664C553.255 725.884 524.542 725.584 496.075 722.77C464.781 719.602 434.101 712.772 404.839 702.461C373.595 691.349 344.426 676.13 318.317 657.317C313.93 654.387 309.748 651.224 305.793 647.847L293.741 638.139L293 637.603V636.71C307.207 579.297 323.3 525.457 335.352 476.263L335.958 474L337.978 475.489C369.795 499.199 405.365 518.662 443.556 533.259C473.366 544.569 504.644 552.571 536.677 557.082C557.502 559.929 578.504 561.659 599.565 562.264H616.466H620.708H622.189H620.64H616.264C612.426 562.264 606.905 562.561 599.633 562.264C578.492 562.056 557.391 560.584 536.475 557.856C504.212 553.681 472.675 545.917 442.613 534.748C404.051 520.222 368.115 500.757 335.958 476.978L338.584 476.204C326.666 525.517 310.641 579.416 296.501 636.71L296.03 635.281L307.948 644.929C311.92 648.145 315.96 651.361 320.337 654.279C346.204 672.884 375.072 687.96 405.984 699.007C434.957 709.256 465.344 716.046 496.344 719.197C524.575 722.105 553.065 722.504 581.386 720.388C606.301 718.291 631.04 714.789 655.451 709.906L654.509 711.157C645.688 664.94 635.521 627.777 630 602.107C627.104 589.184 625.152 579.118 623.872 572.329C623.266 569.053 622.862 566.373 622.526 564.586C622.363 563.879 622.25 563.163 622.189 562.442V562.442Z" fill="#263238"/>
<path d="M589.869 691.205C585.283 673.727 581.844 656.028 579.567 638.199C576.166 620.46 573.918 602.564 572.834 584.598C577.42 602.076 580.859 619.774 583.136 637.603C586.537 655.342 588.785 673.239 589.869 691.205Z" fill="#263238"/>
<path d="M544.824 696.207C542.046 678.436 540.405 660.541 539.908 642.606C538.248 624.779 537.776 606.881 538.494 589.005C541.281 606.775 542.922 624.671 543.41 642.606C545.027 660.435 545.499 678.331 544.824 696.207Z" fill="#263238"/>
<path d="M491.564 691.145C490.976 685.937 490.976 680.69 491.564 675.482C491.968 665.893 492.371 652.612 492.641 637.901C492.91 623.19 493.449 609.909 494.391 600.261C494.579 595.034 495.414 589.842 496.883 584.776C497.394 589.968 497.394 595.189 496.883 600.38C496.883 611.1 496.411 623.846 496.142 637.961C495.873 652.076 495.065 666.012 493.987 675.66C493.787 680.882 492.975 686.072 491.564 691.145Z" fill="#263238"/>
<path d="M462.678 570.78C463.187 575.963 463.006 581.18 462.139 586.325C460.804 598.796 458.759 611.199 456.012 623.488C452.915 637.901 449.279 650.765 446.72 660.116C445.591 665.206 443.923 670.192 441.737 675.005C441.962 669.797 442.82 664.626 444.296 659.58C446.653 649.157 449.481 636.71 452.578 622.893C455.675 609.076 458.099 595.556 459.648 586.086C460.158 580.917 461.171 575.796 462.678 570.78V570.78Z" fill="#263238"/>
<path d="M429.483 558.988C429.481 563.765 428.825 568.525 427.53 573.162C425.78 581.858 422.884 593.769 418.845 606.753C414.805 619.736 410.428 631.29 406.927 639.509C405.301 644.087 403.04 648.468 400.193 652.552C401.123 647.86 402.543 643.254 404.435 638.794C407.331 630.397 411.169 618.843 415.343 605.919C419.518 592.995 422.615 581.262 424.972 572.686C425.93 567.993 427.442 563.402 429.483 558.988V558.988Z" fill="#263238"/>
<path d="M388.006 540.525C387.966 545.399 387.311 550.253 386.053 554.998C384.37 563.872 381.609 576.081 378.108 589.422C374.607 602.763 370.836 614.734 367.874 623.31C366.615 628.071 364.74 632.687 362.285 637.067C362.771 632.218 363.832 627.427 365.45 622.774C368.143 612.947 371.24 601.393 374.674 588.707C378.108 576.021 381.071 564.408 383.629 554.581C384.539 549.775 386.006 545.065 388.006 540.525V540.525Z" fill="#263238"/>
<path d="M736.29 182.146C804.614 266.124 888.182 318.14 1002 342.095C968.499 376.316 907.913 442.91 874.408 476.857C729.558 457.214 629.122 370.156 570.934 252.504C630.205 225.333 677.019 209.249 736.29 182.146Z" fill="#EBEBEB"/>
<path d="M736.29 182.145C735.302 182.438 734.345 182.805 733.427 183.241L724.761 186.936L691.798 200.625C663.168 212.671 620.843 228.412 570.315 251.203L569 251.751L569.619 252.846C580.428 274.61 592.861 295.714 606.837 316.018C622.988 338.972 641.704 360.434 662.704 380.08C685.809 401.747 712.093 420.576 740.855 436.065C771.63 452.49 805.016 464.74 839.898 472.408C845.551 473.8 851.285 474.92 857.076 475.761L874.176 478.636H875.259L875.956 477.883C922.382 429.974 963.857 383.639 1003.47 343.052L1005.49 340.999L1002.55 340.383C959.273 331.61 917.691 317.267 879.128 297.812C849.153 282.549 821.445 264.041 796.644 242.717C780.502 228.878 765.358 214.157 751.301 198.64L740.236 186.115L737.373 182.967C736.754 182.282 736.445 181.94 736.367 182.009L737.296 183.241L740.004 186.594C742.403 189.537 745.653 193.849 750.45 199.324C764.171 215.142 779.087 230.12 795.097 244.154C819.85 265.799 847.558 284.629 877.581 300.208C916.222 319.944 957.937 334.542 1001.38 343.532L1000.38 340.931C960.529 381.517 918.823 428.126 872.629 475.556L874.486 474.94L857.54 472.134C851.826 471.292 846.169 470.173 840.594 468.78C806.071 461.232 773.024 449.143 742.557 432.917C714.1 417.662 688.077 399.109 665.18 377.753C644.277 358.34 625.614 337.132 609.468 314.444C595.515 294.295 583.031 273.377 572.095 251.819L571.399 253.53C621.617 230.534 663.787 214.382 692.262 201.994C706.577 195.834 717.565 190.906 724.915 187.484L733.117 183.446L736.29 182.145Z" fill="#263238"/>
<path d="M632.526 289.052C652.332 281.348 671.607 272.618 690.25 262.907C709.516 254.176 728.148 244.393 746.039 233.614C726.225 241.301 706.949 250.032 688.316 259.759C669.05 268.489 650.417 278.273 632.526 289.052V289.052Z" fill="#263238"/>
<path d="M656.978 326.148C675.983 316.982 694.331 306.788 711.916 295.623C730.223 285.419 747.796 274.218 764.533 262.086C745.62 271.367 727.375 281.676 709.904 292.953C691.502 303.037 673.825 314.123 656.978 326.148V326.148Z" fill="#263238"/>
<path d="M696.053 363.106C701.442 360.227 706.474 356.855 711.065 353.045C720.118 346.612 732.653 337.783 746.581 328.201C760.509 318.619 773.121 309.585 781.787 302.672C786.747 299.211 791.193 295.209 795.019 290.763C789.648 293.644 784.596 296.967 779.93 300.687L744.105 325.395C730.099 335.045 717.796 344.216 709.208 351.129C704.287 354.631 699.869 358.654 696.053 363.106V363.106Z" fill="#263238"/>
<path d="M830.536 307.668C825.193 310.59 820.258 314.059 815.834 318.003C804.645 326.987 793.979 336.466 783.877 346.406C771.961 358.042 761.825 368.992 754.628 376.931C750.379 381.118 746.669 385.709 743.564 390.62C744.492 391.373 763.372 372.278 786.895 349.076C798.656 337.577 810.108 327.38 817.846 320.125C822.535 316.357 826.786 312.184 830.536 307.668V307.668Z" fill="#263238"/>
<path d="M863.188 325.189C858.551 328.199 854.365 331.718 850.73 335.661C843.457 342.505 833.785 352.361 823.88 363.722C813.976 375.084 805.619 385.829 799.971 393.768C796.545 397.991 793.762 402.593 791.692 407.457C792.697 408.004 807.167 388.772 827.053 366.392C846.939 344.011 864.117 325.874 863.188 325.189Z" fill="#263238"/>
<path d="M907.603 344.626C902.875 347.716 898.587 351.301 894.836 355.303C887.098 362.148 877.348 372.14 866.748 383.365C856.147 394.589 847.017 405.129 840.594 412.863C836.798 416.839 833.599 421.233 831.077 425.936C835.454 422.489 839.397 418.634 842.838 414.437L869.843 385.623C879.902 375.015 888.955 365.091 896.925 357.014C900.954 353.219 904.532 349.068 907.603 344.626V344.626Z" fill="#263238"/>
<path d="M269.278 785.326C245.256 769.421 211.763 769.013 183.395 777.496C155.026 785.979 130.501 801.966 106.251 817.79C82.0006 833.614 56.8808 849.072 28.0091 856.168L95.3611 976.399C95.3611 976.399 159.876 953.805 202.978 910.247C237.844 875.01 317.366 891.038 317.366 891.038L269.278 785.326Z" fill="#FAFAFA"/>
<path d="M269.852 785.819C269.852 785.819 270.22 786.389 270.817 787.611C271.414 788.832 272.287 790.706 273.39 792.987L283.175 813.88C291.628 832.167 303.756 858.681 318.779 891.263L319.376 892.607L317.768 892.322C300.235 889.22 282.317 888.179 264.477 889.227C254.676 889.89 244.987 891.502 235.581 894.033C225.711 896.756 216.6 901.294 208.843 907.351C205.03 910.487 201.309 913.989 197.542 917.614C193.775 921.239 189.686 924.538 185.552 927.918C176.997 934.673 168.008 940.982 158.63 946.816C138.92 959.067 117.809 969.442 95.6459 977.769L94.6812 978.176L94.1758 977.28C91.3734 972.352 88.3872 967.017 85.4011 961.682C64.6819 925.026 44.7897 889.553 26.5973 857.174L26 856.115L27.3324 855.789C45.4155 850.937 62.5856 843.731 78.2804 834.407C93.5326 825.732 107.315 816.446 120.729 808.097C133.187 800.057 146.266 792.803 159.871 786.389C171.558 780.834 184.047 776.723 196.991 774.17C207.55 772.158 218.386 771.54 229.149 772.338C237.14 772.957 244.995 774.56 252.487 777.103C257.148 778.687 261.613 780.693 265.81 783.09L268.934 785.086C269.623 785.534 269.99 785.778 269.944 785.819C264.417 782.492 258.464 779.758 252.211 777.673C244.81 775.305 237.085 773.826 229.241 773.274C218.617 772.597 207.938 773.296 197.542 775.352C184.725 777.935 172.362 782.046 160.79 787.57C147.298 793.993 134.34 801.261 122.016 809.319C108.693 817.709 94.9108 827.035 79.5667 835.833C63.7429 845.319 46.397 852.637 28.1133 857.54L28.8025 856.115L87.5145 960.582C90.5465 965.917 93.5327 971.212 96.2891 976.181L94.773 975.651C116.752 967.416 137.706 957.179 157.298 945.105C166.612 939.324 175.539 933.068 184.035 926.37C188.124 923.031 192.167 919.691 195.934 916.188C199.701 912.686 203.331 909.143 207.373 905.844C215.383 899.636 224.774 894.988 234.938 892.2C244.512 889.656 254.371 888.044 264.339 887.394C282.377 886.415 300.48 887.552 318.182 890.774L317.171 891.793C302.47 859.21 290.617 832.819 282.348 814.41C278.305 805.327 275.181 798.118 273.16 793.353C272.149 790.991 271.368 789.281 270.771 787.814C270.174 786.348 269.852 785.819 269.852 785.819Z" fill="#263238"/>
<path d="M228.983 793.331C229.583 793.128 238.63 810.242 249.153 831.563C259.677 852.884 267.616 870.442 267.108 870.645C259.656 858.206 252.924 845.446 246.938 832.412C236.414 811.051 228.383 793.573 228.983 793.331Z" fill="#263238"/>
<path d="M199.815 795.995C208.077 807.802 215.635 819.984 222.459 832.49C234.377 852.765 243.545 869.513 242.995 869.756C234.737 857.946 227.179 845.764 220.351 833.26C212.797 821.154 205.943 808.716 199.815 795.995V795.995Z" fill="#263238"/>
<path d="M177.711 803.993C180.143 807.362 182.266 810.9 184.059 814.573C187.759 821.165 192.965 830.239 198.902 840.168C204.839 850.097 210.502 858.968 214.612 865.397C217.009 868.777 219.116 872.314 220.914 875.977C217.984 872.935 215.384 869.651 213.15 866.17C208.584 859.944 202.784 851.155 196.801 841.186C190.818 831.216 185.886 821.979 182.552 815.183C180.51 811.612 178.888 807.862 177.711 803.993V803.993Z" fill="#263238"/>
</svg>
