<svg width="1440" height="1024" viewBox="0 0 1440 1024" fill="none" xmlns="http://www.w3.org/2000/svg">
<g clip-path="url(#clip0_95_1620)">
<path d="M1603.91 860.174H404V860.876H1603.91V860.174Z" fill="#EBEBEB"/>
<path d="M1483.68 905.354H1404.2V906.056H1483.68V905.354Z" fill="#EBEBEB"/>
<path d="M1198.87 912.992H1178.02V913.694H1198.87V912.992Z" fill="#EBEBEB"/>
<path d="M1401.8 879.296H1355.75V879.998H1401.8V879.296Z" fill="#EBEBEB"/>
<path d="M633.543 884.014H529.895V884.716H633.543V884.014Z" fill="#EBEBEB"/>
<path d="M670.116 884.014H654.926V884.716H670.116V884.014Z" fill="#EBEBEB"/>
<path d="M944.32 895.863H719.505V896.565H944.32V895.863Z" fill="#EBEBEB"/>
<path d="M1061.68 350.947L1023.44 335.558L1010.29 380.3L1048.53 395.689L1061.68 350.947Z" fill="#FAFAFA"/>
<path d="M1170.84 895.217L1190.18 902.041H1295.94L1298.34 852.452L1277.82 842.203C1277.82 842.203 1281.64 803.874 1287.76 762.793L1301.8 762.288L1331.6 624.697L1314.66 616.133L1326.92 570.56H1345.33L1364.96 506.65C1364.96 506.65 1294.33 473.769 1252.39 469.417L1214.71 476.801L1212.09 534.196L1181.4 538.942L1175.38 600.717L1197.19 605.098L1183.15 736.511L1151.64 746.872L1146.15 837.373L1173.58 843.972L1170.84 895.217Z" fill="#7E57C2"/>
<path opacity="0.6" d="M1326.95 570.588L1314.66 616.161L1331.6 624.725L1301.77 762.316L1287.76 762.822C1281.62 803.902 1277.82 842.231 1277.82 842.231L1298.29 852.48L1295.89 902.097H1190.16L1170.82 895.274L1173.6 844.084L1146.15 837.514L1151.5 749.231L1151.64 747.013L1183.17 736.651L1197.19 605.238L1175.38 600.717L1181.54 538.942L1212.21 534.196L1214.85 476.801L1252.51 469.388C1294.55 473.769 1365.08 506.65 1365.08 506.65L1345.45 570.588H1326.95Z" fill="white"/>
<path opacity="0.4" d="M1298.29 852.424L1193.66 855.85L1173.6 844.028L1196.59 849.027L1277.82 842.175L1298.29 852.424Z" fill="white"/>
<path opacity="0.4" d="M1287.76 762.765L1212.09 763.046L1151.5 749.175L1151.64 746.956L1183.17 736.595L1216.48 759.957L1287.76 762.765Z" fill="white"/>
<path opacity="0.2" d="M1314.66 616.161L1221.31 605.463L1197.19 605.182L1175.38 600.802L1219.96 594.821L1314.66 616.161Z" fill="black"/>
<path opacity="0.2" d="M1345.33 570.588H1326.92L1253.27 531.22L1212.09 534.196L1255.53 527.626L1345.33 570.588Z" fill="black"/>
<path opacity="0.2" d="M1252.39 469.388L1255.53 527.626L1212.09 534.196L1214.71 476.83L1252.39 469.388Z" fill="white"/>
<path opacity="0.2" d="M1219.96 594.82L1231.96 534.196L1181.42 538.942L1175.38 600.801L1219.96 594.82Z" fill="white"/>
<path opacity="0.2" d="M1197.19 605.182L1242.91 607.934L1216.48 759.958L1183.17 736.595L1197.19 605.182Z" fill="white"/>
<path opacity="0.2" d="M1151.5 749.175L1212.09 763.046L1199.85 848.745L1146.15 837.457L1151.5 749.175Z" fill="white"/>
<path opacity="0.2" d="M1193.66 855.85L1190.16 902.041L1170.82 895.217L1173.6 844.056L1193.66 855.85Z" fill="white"/>
<path d="M1156.1 768.325L1209.31 782.505L1271.99 779.276L1212.09 795L1156.1 768.325Z" fill="#7E57C2"/>
<path d="M1172.78 858.967L1192.37 873.035H1239.69L1182.24 878.426L1162.99 863.038L1172.78 858.967Z" fill="#7E57C2"/>
<path d="M1213.05 886.737H1296.69L1306.33 895.217L1213.05 886.737Z" fill="#7E57C2"/>
<path d="M1195.87 805.082L1149.03 789.75L1140.65 795.001L1195.87 805.082Z" fill="#7E57C2"/>
<path d="M1209.88 826.619L1280.3 819.571L1287.76 823.081L1209.88 826.619Z" fill="#7E57C2"/>
<path d="M1231.96 736.595L1308.04 733.394L1314.66 739.936L1231.96 736.595Z" fill="#7E57C2"/>
<path d="M1287.76 717.894L1225.24 709.582L1186.65 692.763H1173.6L1219.63 715.339L1287.76 717.894Z" fill="#7E57C2"/>
<path d="M1201.34 652.244L1232.9 665.525L1331.32 674.82L1322.44 667.098L1231.96 660.443L1201.34 652.244Z" fill="#7E57C2"/>
<path d="M1212.09 575.333L1168.25 577.888L1179.12 584.038L1212.09 575.333Z" fill="#7E57C2"/>
<path d="M1193.66 554.302L1227 549.107L1312.91 584.038L1226.54 557.896L1193.66 554.302Z" fill="#7E57C2"/>
<path d="M1300.19 534.197L1248.91 501.793L1198.05 520.438L1213.05 525.155L1255.53 517.995L1300.19 534.197Z" fill="#7E57C2"/>
<path d="M1284.4 511.733L1361.55 549.107H1351.93L1284.4 511.733Z" fill="#7E57C2"/>
<path d="M1259.87 483.512L1298.44 488.651L1358.43 527.626C1358.43 527.626 1280.9 488.146 1259.87 483.512Z" fill="#7E57C2"/>
<path d="M1194.98 622.002L1214.04 627.618L1187.11 624.81L1194.98 622.002Z" fill="#7E57C2"/>
<path opacity="0.7" d="M1156.1 768.325L1209.31 782.505L1271.99 779.276L1212.09 795L1156.1 768.325Z" fill="white"/>
<path opacity="0.7" d="M1172.78 858.967L1192.37 873.035H1239.69L1182.24 878.426L1162.99 863.038L1172.78 858.967Z" fill="white"/>
<path opacity="0.7" d="M1213.05 886.737H1296.69L1306.33 895.217L1213.05 886.737Z" fill="white"/>
<path opacity="0.7" d="M1195.87 805.082L1149.03 789.75L1140.65 795.001L1195.87 805.082Z" fill="white"/>
<path opacity="0.7" d="M1209.88 826.619L1280.3 819.571L1287.76 823.081L1209.88 826.619Z" fill="white"/>
<path opacity="0.7" d="M1231.96 736.595L1308.04 733.394L1314.66 739.936L1231.96 736.595Z" fill="white"/>
<path opacity="0.7" d="M1287.76 717.894L1225.24 709.582L1186.65 692.763H1173.6L1219.63 715.339L1287.76 717.894Z" fill="white"/>
<path opacity="0.7" d="M1201.34 652.244L1232.9 665.525L1331.32 674.82L1322.44 667.098L1231.96 660.443L1201.34 652.244Z" fill="white"/>
<path opacity="0.7" d="M1212.09 575.333L1168.25 577.888L1179.12 584.038L1212.09 575.333Z" fill="white"/>
<path opacity="0.7" d="M1193.66 554.302L1227 549.107L1312.91 584.038L1226.54 557.896L1193.66 554.302Z" fill="white"/>
<path opacity="0.7" d="M1300.19 534.197L1248.91 501.793L1198.05 520.438L1213.05 525.155L1255.53 517.995L1300.19 534.197Z" fill="white"/>
<path opacity="0.7" d="M1284.4 511.733L1361.55 549.107H1351.93L1284.4 511.733Z" fill="white"/>
<path opacity="0.7" d="M1259.87 483.512L1298.44 488.651L1358.43 527.626C1358.43 527.626 1280.9 488.146 1259.87 483.512Z" fill="white"/>
<path opacity="0.7" d="M1194.98 622.002L1214.04 627.618L1187.11 624.81L1194.98 622.002Z" fill="white"/>
<path opacity="0.1" d="M1209.88 636.35L1235.95 644.044L1309.19 652.243L1235.95 648.06L1209.88 636.35Z" fill="black"/>
<path opacity="0.1" d="M1201.34 613.774L1242.91 616.161L1320.78 631.745L1240.48 622.002L1201.34 613.774Z" fill="black"/>
<path opacity="0.1" d="M1190.18 586.594L1222.8 580.584L1305.45 603.02L1222.1 584.038L1190.18 586.594Z" fill="black"/>
<path opacity="0.1" d="M1198.05 567.499L1225.56 566.572L1309.19 591.788L1224.76 570.588L1198.05 567.499Z" fill="black"/>
<path opacity="0.1" d="M1180.42 549.107L1222.17 543.519L1180.42 552.757V549.107Z" fill="black"/>
<path opacity="0.1" d="M1179.12 562.445H1193.66L1179.12 566.572V562.445Z" fill="black"/>
<path opacity="0.1" d="M1214.04 491.431L1253.15 483.512L1305.45 505.583L1253.63 488.651L1214.04 494.548V491.431Z" fill="black"/>
<path opacity="0.1" d="M1348.88 558.991L1289.22 537.201L1347.2 564.494L1348.88 558.991Z" fill="black"/>
<path opacity="0.1" d="M1245.02 496.85L1253.75 494.548L1348.88 530.406L1254.16 498.226L1245.02 496.85Z" fill="black"/>
<path opacity="0.1" d="M1363.4 511.733L1329.28 497.524L1361.55 515.327L1363.4 511.733Z" fill="black"/>
<path opacity="0.1" d="M1193.66 668.137L1230.16 681.194L1312.91 689L1229.4 685.715L1193.66 668.137Z" fill="black"/>
<path opacity="0.1" d="M1185.79 708.487L1222.53 725.082L1305.45 727.301H1222.15L1185.79 708.487Z" fill="black"/>
<path opacity="0.1" d="M1290.4 753.274L1219.63 744.064L1190.18 730.024L1218.36 749.175L1290.4 753.274Z" fill="black"/>
<path opacity="0.1" d="M1315.02 701.243C1314.35 700.962 1257.95 699.249 1257.95 699.249L1314.13 705.343L1315.02 701.243Z" fill="black"/>
<path opacity="0.1" d="M1150.44 755.689L1210.94 771.133H1253.27L1210.48 774.166L1151.5 759.957L1150.44 755.689Z" fill="black"/>
<path opacity="0.1" d="M1283.78 791.267C1283.78 791.407 1224.96 798.961 1224.96 798.961L1283.27 795.114L1283.78 791.267Z" fill="black"/>
<path opacity="0.1" d="M1162.99 786.437C1162.2 785.987 1199.52 795.113 1199.52 795.113C1199.52 795.113 1176.29 794.215 1162.99 786.437Z" fill="black"/>
<path opacity="0.1" d="M1148.11 805.082L1199.52 819.571L1148.11 809.715V805.082Z" fill="black"/>
<path opacity="0.1" d="M1157.74 826.619L1201.34 838.244L1266.33 836.7L1201.34 842.175L1157.74 826.619Z" fill="black"/>
<path opacity="0.1" d="M1216.77 812.326H1262.34L1224.93 814.488L1216.77 812.326Z" fill="black"/>
<path opacity="0.1" d="M1179.14 855.85L1193.16 863.01C1193.16 863.01 1267.7 862.308 1266.35 863.01C1265.01 863.712 1192.87 866.801 1192.87 866.801L1179.14 855.85Z" fill="black"/>
<path opacity="0.1" d="M1287.76 878.426C1287.76 878.426 1218.16 880.476 1219.63 880.476H1277.22L1287.76 878.426Z" fill="black"/>
<path opacity="0.1" d="M1298.29 861.325C1298.29 861.325 1286.87 859.977 1287.76 861.325C1288.65 862.673 1297.72 864.442 1297.72 864.442L1298.29 861.325Z" fill="black"/>
<path opacity="0.1" d="M1179.12 886.737L1191.12 889.658L1255.55 895.217L1190.83 893.42L1179.12 886.737Z" fill="black"/>
<path d="M1195.3 357.82L1244.33 335.357C1244.33 335.357 1299.91 373.405 1335.23 379.695L1274.13 393.734C1274.13 393.734 1208.02 378.515 1195.3 357.82Z" fill="#7E57C2"/>
<path d="M1100 573.312L1137.25 534C1137.25 534 1200.91 545.232 1250.59 573.312L1198.7 610.573C1198.7 610.573 1149.8 581.511 1100 573.312Z" fill="#7E57C2"/>
<path d="M892 880.319L939.852 861C939.852 861 981.369 912.919 1014.46 912.919L959.603 943.751C959.603 943.751 901.119 917.553 892 880.319Z" fill="#7E57C2"/>
<path d="M778.935 460.734C778.935 460.734 841.33 452.311 885.655 492.521L862.832 525.402C862.832 525.402 807.996 498.277 760 514.17L778.935 460.734Z" fill="#7E57C2"/>
<path d="M1320.85 758.638L1381.04 770.656C1381.04 770.656 1328.8 811.315 1284.73 818.672L1237.24 800.673C1237.24 800.673 1294.5 793.681 1320.85 758.638Z" fill="#7E57C2"/>
<path d="M1301.75 636.687C1301.75 636.687 1359.61 633.037 1400.53 652.889L1425.08 625.483C1425.08 625.483 1360.83 592.546 1319.48 609.001L1301.75 636.687Z" fill="#7E57C2"/>
<path d="M837 811.928C837 811.928 865.918 776.294 938.129 767L981.901 790.082C981.901 790.082 916.602 806.677 886.868 822.823L837 811.928Z" fill="#7E57C2"/>
<path opacity="0.6" d="M1195.3 357.82L1244.33 335.357C1244.33 335.357 1299.91 373.405 1335.23 379.695L1274.13 393.734C1274.13 393.734 1208.02 378.515 1195.3 357.82Z" fill="white"/>
<path opacity="0.6" d="M892 880.319L939.852 861C939.852 861 981.369 912.919 1014.46 912.919L959.603 943.751C959.603 943.751 901.119 917.553 892 880.319Z" fill="white"/>
<path opacity="0.4" d="M778.935 460.734C778.935 460.734 841.33 452.311 885.655 492.521L862.832 525.402C862.832 525.402 807.996 498.277 760 514.17L778.935 460.734Z" fill="white"/>
<path opacity="0.8" d="M1320.85 758.638L1381.04 770.656C1381.04 770.656 1328.8 811.315 1284.73 818.672L1237.24 800.673C1237.24 800.673 1294.5 793.681 1320.85 758.638Z" fill="white"/>
<path opacity="0.4" d="M1301.75 636.687C1301.75 636.687 1359.61 633.037 1400.53 652.889L1425.08 625.483C1425.08 625.483 1360.83 592.546 1319.48 609.001L1301.75 636.687Z" fill="white"/>
<path opacity="0.4" d="M837 811.928C837 811.928 865.918 776.294 938.129 767L981.901 790.082C981.901 790.082 916.602 806.677 886.868 822.823L837 811.928Z" fill="white"/>
</g>
<defs>
<clipPath id="clip0_95_1620">
<rect width="1440" height="1024" fill="white"/>
</clipPath>
</defs>
</svg>
