<svg width="1440" height="1024" viewBox="0 0 1440 1024" fill="none" xmlns="http://www.w3.org/2000/svg">
<path d="M968.628 459.692C967.331 458.607 965.729 457.952 964.044 457.817C962.359 457.683 960.674 458.076 959.221 458.943C956.827 458.275 954.278 458.431 951.981 459.385C949.685 460.34 947.775 462.038 946.555 464.208C944.863 463.936 943.13 464.107 941.523 464.706C939.917 465.305 938.493 466.31 937.39 467.623C936.287 468.937 935.542 470.515 935.228 472.202C934.914 473.89 935.042 475.63 935.599 477.254C933.905 477.634 932.373 478.538 931.219 479.837C930.066 481.136 929.348 482.766 929.169 484.496C928.99 486.226 929.358 487.968 930.221 489.477C931.084 490.986 932.398 492.186 933.978 492.906C932.461 494.164 931.463 495.94 931.177 497.892C930.891 499.844 931.337 501.832 932.429 503.474C933.521 505.116 935.181 506.294 937.089 506.781C938.997 507.269 941.017 507.031 942.761 506.113L970.641 468.884C971.294 467.331 971.451 465.614 971.091 463.968C970.73 462.322 969.87 460.828 968.628 459.692Z" fill="#263238"/>
<path d="M942.102 507.577C939.658 499.44 940.352 490.681 944.047 483.033C947.742 475.386 954.169 469.406 962.054 466.278L963.693 465.636C981.651 459.746 996.669 471.739 1002.03 489.89L1022.48 549.428L1022.96 557.745L1004.74 585.265L989.222 578.127L980.314 561.457C980.314 561.457 962.5 565.473 955.57 548.661C952.345 540.558 946.84 523.282 942.102 507.577Z" fill="#FFBF9D"/>
<path d="M980.19 561.511C988.037 558.43 994.838 553.159 999.786 546.323C999.786 546.323 1000.5 561.404 983.058 566.526L980.19 561.511Z" fill="#FF9A6C"/>
<path d="M953.129 521.301C953.365 521.936 953.842 522.451 954.456 522.735C955.07 523.019 955.771 523.049 956.407 522.818C956.722 522.723 957.015 522.565 957.268 522.354C957.521 522.144 957.729 521.884 957.881 521.591C958.032 521.298 958.123 520.978 958.148 520.649C958.173 520.32 958.132 519.99 958.028 519.677C957.791 519.042 957.315 518.526 956.702 518.239C956.089 517.952 955.388 517.917 954.75 518.142C954.434 518.239 954.141 518.399 953.887 518.611C953.634 518.824 953.426 519.085 953.275 519.379C953.123 519.674 953.033 519.995 953.008 520.325C952.983 520.655 953.024 520.987 953.129 521.301Z" fill="#263238"/>
<path d="M949.12 515.287C949.53 515.483 950.902 513.502 953.432 512.395C955.961 511.289 958.438 511.931 958.58 511.503C958.723 511.075 958.135 510.86 957.084 510.575C955.665 510.242 954.179 510.353 952.825 510.892C951.472 511.431 950.315 512.373 949.512 513.591C948.96 514.591 948.907 515.287 949.12 515.287Z" fill="#263238"/>
<path d="M975.772 513.663C976.008 514.297 976.485 514.813 977.099 515.097C977.713 515.381 978.414 515.411 979.049 515.18C979.365 515.084 979.658 514.927 979.912 514.716C980.166 514.506 980.375 514.247 980.528 513.954C980.68 513.662 980.773 513.341 980.801 513.012C980.828 512.684 980.79 512.352 980.688 512.038C980.448 511.406 979.971 510.893 979.36 510.606C978.748 510.32 978.049 510.283 977.411 510.504C977.094 510.601 976.801 510.76 976.547 510.973C976.293 511.185 976.083 511.445 975.931 511.739C975.778 512.033 975.686 512.355 975.658 512.685C975.631 513.015 975.669 513.347 975.772 513.663Z" fill="#263238"/>
<path d="M973.723 505.221C974.133 505.417 975.504 503.347 978.034 502.329C980.564 501.312 983.04 501.865 983.183 501.437C983.325 501.009 982.755 500.794 981.686 500.527C980.256 500.188 978.756 500.3 977.393 500.848C976.043 501.376 974.895 502.319 974.115 503.543C973.616 504.453 973.562 505.131 973.723 505.221Z" fill="#263238"/>
<path d="M972.796 527.78C971.256 527.878 969.734 528.178 968.271 528.672C967.594 528.868 966.917 528.975 966.615 528.583C966.298 527.917 966.186 527.171 966.294 526.441C966.294 524.656 966.294 522.64 966.294 520.605C966.187 512.36 965.831 505.667 965.492 505.667C965.154 505.667 964.976 512.378 965.083 520.641C965.083 522.675 965.172 524.603 965.207 526.459C965.099 527.427 965.339 528.401 965.884 529.207C966.071 529.402 966.3 529.551 966.553 529.643C966.806 529.736 967.077 529.77 967.345 529.743C967.753 529.698 968.154 529.602 968.539 529.457C970.019 529.07 971.449 528.507 972.796 527.78V527.78Z" fill="#263238"/>
<path d="M971.692 497.439C972.191 498.064 974.346 496.833 977.179 496.136C980.012 495.44 982.523 495.423 982.63 494.655C982.63 494.28 982.025 493.781 980.849 493.442C979.385 493.044 977.841 493.044 976.377 493.442C974.919 493.793 973.583 494.533 972.512 495.583C971.745 496.476 971.46 497.225 971.692 497.439Z" fill="#263238"/>
<path d="M955.088 502.669C954.429 502.222 952.808 503.454 950.635 504.203C948.461 504.953 946.448 505.132 946.234 505.988C946.145 506.363 946.644 506.863 947.642 507.166C948.954 507.485 950.33 507.407 951.598 506.943C952.866 506.48 953.969 505.651 954.768 504.56C955.356 503.597 955.391 502.883 955.088 502.669Z" fill="#263238"/>
<path d="M940.676 499.224C940.676 499.224 940.961 486.892 945.094 482.412C950.082 477.058 955.409 482.733 960.629 478.842C965.848 474.952 970.623 469.687 978.444 471.882C986.959 474.274 985.267 479.021 988.616 486.32C1002.23 515.965 1011.13 522.425 1007.04 507.434C1006.59 505.792 1010.46 502.829 1008.5 495.958C1005.95 487.034 1002.19 476.469 997.808 471.115C994.245 466.617 989.863 464.208 983.076 462.37C972.387 459.443 960.932 463.797 953.521 467.617C946.11 471.436 934.761 486.213 940.676 499.224Z" fill="#263238"/>
<path d="M1005.79 507.398C1005.57 506.77 1005.47 506.102 1005.51 505.436C1005.55 504.77 1005.73 504.119 1006.03 503.524C1006.33 502.928 1006.75 502.399 1007.26 501.97C1007.77 501.541 1008.36 501.22 1009 501.027C1012.26 500.098 1016.46 500.509 1018.81 507.095C1022.98 518.802 1010.39 520.569 1010.26 520.248C1010.14 519.927 1007.48 512.306 1005.79 507.398Z" fill="#FFBF9D"/>
<path d="M1011.13 514.93C1011.13 514.93 1011.38 514.93 1011.79 515.037C1012.35 515.068 1012.9 514.883 1013.33 514.519C1013.91 513.77 1014.28 512.879 1014.41 511.939C1014.53 510.998 1014.4 510.041 1014.04 509.165C1013.71 508.152 1013.16 507.225 1012.43 506.452C1012.2 506.126 1011.88 505.863 1011.52 505.686C1011.15 505.509 1010.75 505.423 1010.35 505.435C1010.09 505.458 1009.85 505.57 1009.66 505.753C1009.48 505.935 1009.36 506.176 1009.33 506.434C1009.33 506.809 1009.46 507.023 1009.33 507.059C1009.21 507.095 1009.01 506.952 1008.94 506.434C1008.9 506.123 1008.97 505.807 1009.14 505.542C1009.25 505.364 1009.4 505.211 1009.58 505.091C1009.75 504.972 1009.95 504.888 1010.15 504.846C1010.67 504.763 1011.19 504.817 1011.68 505.002C1012.16 505.187 1012.59 505.496 1012.92 505.899C1013.78 506.725 1014.42 507.756 1014.79 508.897C1015.21 509.919 1015.33 511.044 1015.13 512.133C1014.92 513.221 1014.4 514.225 1013.63 515.019C1013.34 515.219 1013.02 515.354 1012.68 515.416C1012.34 515.478 1011.99 515.464 1011.65 515.376C1011.35 515.287 1011.13 514.965 1011.13 514.93Z" fill="#FF9A6C"/>
<path d="M996.775 485.107C995.805 486.81 994.427 488.245 992.767 489.283C991.926 489.775 990.935 489.945 989.979 489.761C989.022 489.577 988.165 489.052 987.565 488.284C987.102 487.534 986.941 486.499 986.175 486.106C985.409 485.714 984.18 486.303 983.254 486.785C981.618 487.583 979.757 487.792 977.985 487.375C976.213 486.959 974.638 485.944 973.527 484.5C973.236 485.278 972.665 485.918 971.927 486.295C971.188 486.671 970.335 486.757 969.536 486.535C967.961 486.036 966.462 485.321 965.083 484.411C964.388 483.957 963.592 483.681 962.766 483.606C961.94 483.531 961.109 483.661 960.344 483.983C959.542 484.429 958.936 485.25 958.046 485.517C956.478 485.981 955.053 484.5 954.233 483.072C953.414 481.645 952.541 479.985 950.938 479.663C949.413 479.663 947.937 480.2 946.769 481.181C945.451 481.93 943.527 482.305 942.636 481.181C942.432 480.837 942.3 480.456 942.248 480.061C942.196 479.665 942.225 479.263 942.333 478.878C942.697 477.091 943.657 475.481 945.056 474.313C946.455 473.145 948.209 472.489 950.029 472.453C949.848 470.31 950.303 468.16 951.338 466.275C952.373 464.391 953.941 462.855 955.846 461.861C957.75 460.867 959.905 460.459 962.04 460.69C964.175 460.92 966.194 461.778 967.844 463.155C968.633 461.559 969.794 460.178 971.23 459.128C972.665 458.078 974.333 457.391 976.09 457.124C977.848 456.858 979.643 457.021 981.325 457.598C983.006 458.176 984.523 459.151 985.748 460.442C987.013 459.515 988.523 458.982 990.089 458.907C991.654 458.833 993.208 459.221 994.555 460.023C995.903 460.825 996.985 462.007 997.668 463.42C998.351 464.834 998.604 466.417 998.396 467.974C999.68 468.086 1000.91 468.523 1001.98 469.244C1003.05 469.966 1003.92 470.947 1004.51 472.096C1005.49 474.47 1004.1 477.754 1001.55 478.039C1002.37 478.803 1002.87 479.848 1002.96 480.967C1003.04 482.085 1002.7 483.194 1002 484.07C1001.3 484.947 1000.29 485.526 999.187 485.691C998.08 485.857 996.951 485.597 996.027 484.964" fill="#263238"/>
<path d="M1002.39 477.808C1002.6 478.185 1002.72 478.606 1002.75 479.039C1002.78 479.471 1002.71 479.904 1002.55 480.306C1002.27 481.272 1001.63 482.096 1000.77 482.609C1000.21 482.927 999.602 483.123 998.968 483.182C998.334 483.24 997.696 483.16 997.096 482.948L997.559 482.68C997.374 483.996 996.977 485.274 996.383 486.464C995.991 487.269 995.453 487.995 994.798 488.605C994.158 489.167 993.385 489.554 992.553 489.73C991.873 489.931 991.157 489.982 990.455 489.877C989.754 489.772 989.083 489.515 988.491 489.123C987.733 488.577 987.091 487.885 986.603 487.088C986.397 486.823 986.245 486.52 986.158 486.196C986.158 486.196 986.425 486.446 986.835 486.928C987.378 487.621 988.027 488.223 988.759 488.712C989.381 489.032 990.062 489.219 990.76 489.262C991.457 489.304 992.156 489.202 992.812 488.96C993.469 488.719 994.068 488.344 994.572 487.859C995.076 487.374 995.474 486.789 995.742 486.142C996.301 485.017 996.685 483.814 996.882 482.573V482.144L997.274 482.305C997.781 482.499 998.324 482.581 998.865 482.544C999.407 482.507 999.934 482.352 1000.41 482.091C1001.17 481.672 1001.76 480.995 1002.07 480.181C1002.33 479.42 1002.44 478.612 1002.39 477.808V477.808Z" fill="#455A64"/>
<path d="M970.16 459.96C970.16 459.96 969.893 460.174 969.465 460.585C968.846 461.186 968.429 461.966 968.272 462.816V463.101L968.022 462.941C965.806 461.554 963.274 460.755 960.665 460.621C958.989 460.528 957.312 460.795 955.748 461.406C954.02 462.088 952.515 463.237 951.401 464.725C950.542 465.89 949.935 467.221 949.62 468.634C949.306 469.942 949.306 471.306 949.62 472.614L949.726 473.007H949.352C947.758 473.175 946.273 473.9 945.159 475.055C944.045 476.21 943.372 477.722 943.26 479.324C943.221 480.591 943.433 481.853 943.883 483.037C943.674 482.766 943.505 482.465 943.384 482.144C943.008 481.247 942.832 480.279 942.868 479.307C942.906 477.793 943.424 476.33 944.346 475.13C945.57 473.598 947.339 472.6 949.281 472.346L948.996 472.774C948.6 471.368 948.551 469.885 948.854 468.455C949.227 466.721 950.025 465.107 951.176 463.758C952.326 462.409 953.793 461.368 955.445 460.728C957.103 460.098 958.878 459.836 960.647 459.96C963.348 460.143 965.95 461.049 968.183 462.584L967.88 462.709C968.09 461.801 968.598 460.99 969.323 460.406C969.564 460.196 969.851 460.043 970.16 459.96V459.96Z" fill="#455A64"/>
<path d="M973.188 537.685C974.263 536.321 975.417 535.022 976.644 533.794C978.8 531.92 981.116 531.277 981.045 530.992C979.159 531.014 977.359 531.784 976.039 533.134C974.533 534.221 973.511 535.854 973.188 537.685Z" fill="#263238"/>
<path d="M849.606 625.172C847.629 624.618 828.335 627.777 828.335 627.777C828.208 628.307 828.212 628.859 828.346 629.387C828.481 629.914 828.742 630.401 829.108 630.804C829.473 631.207 829.932 631.514 830.443 631.699C830.954 631.884 831.503 631.941 832.041 631.864C836.495 631.722 851.121 630.562 851.121 630.562L860.527 634.702L863.627 633.346L849.606 625.172Z" fill="#FF9A6C"/>
<path d="M889.173 628.83L861.774 631.436L857.498 631.954C857.498 631.954 847.397 628.277 845.544 627.956C843.692 627.635 826.696 636.88 826.696 636.88C826.696 636.88 826.055 640.824 830.794 639.806C834.419 638.871 837.937 637.555 841.287 635.88C841.287 635.88 856.661 643.019 859.725 644.465C862.789 645.91 881.103 645.75 881.103 645.75L887.588 649.997L889.173 628.83Z" fill="#FFBF9D"/>
<path d="M878.395 670.95L867.225 663.811L828.799 650.104C828.799 650.104 825.432 647.017 827.16 645.785C828.888 644.554 869.809 650.693 869.809 650.693L878.395 655.547V670.95Z" fill="#FFBF9D"/>
<path d="M986.87 643.626C986.87 645.767 1020.27 700.969 1029.79 714.765C1043.86 735.218 1057.97 737.77 1057.97 737.77L1076.69 722.1L999.59 638.432L976.698 621.709L986.87 643.626Z" fill="#455A64"/>
<path d="M1004.15 668.647C1004.15 668.647 974.151 682.211 962.909 684.157C949.691 686.423 877.166 681.301 877.166 681.301L878.538 652.389L984.519 649.961L997.185 646.606L1004.15 668.647Z" fill="#455A64"/>
<g opacity="0.3">
<path opacity="0.3" d="M994.246 645.803C996.437 646.803 997.684 652.603 999.341 654.334C1016.91 672.806 1029.77 693.598 1047.9 710.374C1055.72 717.513 1064.58 723.724 1075.2 723.207L1064.37 732.416C1055.33 732.237 1049.36 727.99 1042.56 722.046C1035.75 716.103 1032.85 707.572 1027.61 700.219C1015.64 683.479 1003.94 664.739 991.983 647.981C992.571 645.661 992.054 644.822 994.246 645.803Z" fill="black"/>
</g>
<path d="M1072.08 723.01C1072.08 723.01 1056.42 724.206 1050.51 720.547C1043.38 716.156 980.867 633.952 980.867 633.952L980.315 569.702L1015.62 535.953L1019.28 541.504L1094.37 627.367L1142.47 673.163L1084.71 704.252L1072.08 723.01Z" fill="#E0E0E0"/>
<path d="M995.012 632.061C996.882 634.309 993.889 666.684 1035.99 671.199C1071.51 675.001 1145.57 671.039 1167.82 669.718C1170.54 669.602 1173.12 668.412 1174.97 666.407C1176.83 664.402 1177.83 661.744 1177.74 659.01C1177.65 657.728 1177.28 656.481 1176.67 655.354C1176.06 654.227 1175.2 653.245 1174.18 652.478C1166.3 646.035 1158.04 648.034 1153.14 634.791C1148.24 621.549 1150.48 616.658 1141.88 611.411C1129.71 604.005 1099.91 617.587 1099.91 617.587C1092.42 606.236 1088.49 596.17 1077.96 582.677C1069.46 571.737 1057.93 556.745 1048.58 551.445C1043.02 548.73 1037.26 546.451 1031.35 544.627L1025.58 543.61L1021.82 538.488C1016.16 544.27 994.976 563.831 991.235 570.613L986.942 595.599L995.012 632.061Z" fill="#455A64"/>
<g opacity="0.3">
<path opacity="0.3" d="M896.103 657.422C923.984 655.476 952.968 653.531 987.423 646.303L989.542 650.943C969.679 663.436 955.926 663.811 940.872 664.899C925.819 665.988 911.816 663.668 897.261 663.668C896.146 661.79 895.736 659.575 896.103 657.422Z" fill="black"/>
</g>
<g opacity="0.3">
<path opacity="0.3" d="M1050.11 592.029L1061.43 592.743C1056.72 608.11 1049.13 613.303 1036.22 622.834C1023.3 632.364 1021.22 635.148 1006.59 641.716C1005.18 642.341 994.121 649.265 993.783 647.784C1018.9 632.328 1033.39 616.319 1050.11 592.029Z" fill="black"/>
</g>
<path d="M1061.19 581.981C1065.29 593.421 1057.86 598.686 1057.86 598.686C1057.86 598.686 997.292 653.798 972.832 656.583C948.372 659.367 884.256 655.958 884.256 655.958V626.046L962.357 617.64C962.357 617.64 993.782 580.536 1011.17 561.939" fill="#455A64"/>
<path d="M1011.13 561.939C1011.13 561.939 1010.8 562.242 1010.19 562.867L1007.54 565.687C1005.22 568.168 1001.82 571.862 997.541 576.645C988.955 586.211 976.769 600.15 962.036 617.408L962.286 617.283L884.167 625.6H883.758V656.368H884.185L898.205 657.011C918.033 657.796 937.184 658.314 955.213 657.957L961.929 657.743C964.156 657.6 966.347 657.511 968.539 657.35C970.719 657.213 972.89 656.951 975.041 656.565C976.092 656.315 977.143 656.029 978.159 655.726C979.174 655.423 980.19 655.048 981.169 654.637C988.612 651.419 995.729 647.493 1002.42 642.912C1013.84 635.212 1024.87 626.944 1035.47 618.14C1044.7 610.537 1052.25 603.862 1057.92 598.776C1059.97 597.074 1061.42 594.751 1062.05 592.154C1062.52 590.287 1062.61 588.346 1062.32 586.443C1062.17 585.283 1061.91 584.141 1061.53 583.034C1061.28 582.285 1061.14 581.928 1061.14 581.928C1061.14 581.928 1061.14 582.32 1061.43 583.07C1061.77 584.174 1062 585.31 1062.12 586.461C1062.37 588.334 1062.25 590.238 1061.76 592.065C1061.13 594.584 1059.7 596.831 1057.68 598.472V598.472C1051.98 603.559 1044.39 610.109 1035.11 617.64C1025.83 625.172 1014.88 633.703 1002.03 642.251C995.36 646.808 988.266 650.71 980.849 653.906C979.887 654.298 978.871 654.602 977.892 654.959C976.912 655.315 975.861 655.547 974.845 655.78C972.729 656.151 970.594 656.401 968.45 656.529C966.276 656.708 964.085 656.779 961.876 656.922L955.178 657.118C937.149 657.457 917.998 656.922 898.17 656.136L884.167 655.494L884.613 655.958C884.613 645.678 884.613 635.63 884.613 626.046L884.203 626.492L962.303 617.997H962.446V617.89C977.108 600.596 989.168 586.586 997.702 576.841L1007.55 565.758L1010.14 562.867C1010.88 562.296 1011.13 561.939 1011.13 561.939Z" fill="#263238"/>
<path d="M989.311 650.443C989.804 651.375 990.364 652.27 990.985 653.12L995.688 660.259C999.626 666.363 1004.95 674.894 1010.8 684.335C1016.64 693.776 1021.95 702.307 1025.88 708.429C1027.86 711.499 1029.45 713.961 1030.62 715.568C1031.15 716.467 1031.75 717.326 1032.41 718.138C1031.96 717.177 1031.44 716.252 1030.86 715.371L1026.38 708.018L1011.51 683.764C1005.66 674.323 1000.25 665.917 996.17 659.813C994.121 656.797 992.428 654.459 991.217 652.763C990.639 651.944 990.002 651.169 989.311 650.443V650.443Z" fill="#263238"/>
<path d="M807.92 643.197L881.085 654.494C881.418 654.55 881.759 654.539 882.087 654.461C882.415 654.383 882.724 654.24 882.996 654.04C883.269 653.841 883.498 653.589 883.672 653.299C883.845 653.009 883.959 652.687 884.007 652.353L884.132 651.603C884.234 650.927 884.065 650.237 883.661 649.685C883.257 649.133 882.651 648.764 881.976 648.658L804.303 637.129L805.265 640.877C805.427 641.485 805.766 642.03 806.239 642.443C806.712 642.856 807.297 643.119 807.92 643.197Z" fill="#E0E0E0"/>
<path d="M807.92 643.197C807.228 643.034 806.606 642.656 806.142 642.118C805.679 641.579 805.396 640.908 805.336 640.199C805.123 639.271 804.873 638.2 804.588 637.022L804.374 637.254C817.308 639.342 846.507 643.786 880.426 648.819C881.116 648.895 881.8 649.014 882.475 649.176C882.749 649.291 882.997 649.461 883.202 649.676C883.407 649.891 883.566 650.146 883.669 650.425C883.758 650.708 883.794 651.004 883.775 651.3C883.775 651.585 883.686 652.014 883.633 652.299C883.574 652.589 883.456 652.863 883.288 653.105C883.119 653.348 882.903 653.553 882.653 653.709C882.11 654.012 881.47 654.089 880.872 653.923L878.805 653.602L874.69 652.978L858.995 650.604L832.433 646.624L814.493 644.036L809.612 643.376L808.347 643.215H807.902L808.329 643.322L809.594 643.572L814.44 644.411L832.255 647.302L858.799 651.46L874.476 653.888L878.591 654.53L880.676 654.851C881.474 655.039 882.314 654.918 883.027 654.512C883.388 654.296 883.7 654.007 883.942 653.662C884.185 653.318 884.352 652.927 884.435 652.514C884.435 652.103 884.559 651.817 884.613 651.389C884.65 650.966 884.595 650.54 884.452 650.14C884.299 649.733 884.06 649.363 883.753 649.056C883.446 648.748 883.077 648.509 882.671 648.355C881.934 648.16 881.184 648.023 880.426 647.945C846.578 642.894 817.272 638.664 804.285 636.915H804V637.201L804.855 640.36C804.982 641.171 805.362 641.921 805.942 642.501C806.3 642.847 806.742 643.093 807.225 643.215C807.759 643.215 807.92 643.215 807.92 643.197Z" fill="#263238"/>
<path d="M995.689 575.342C995.813 575.342 997.185 573.397 999.572 570.238C1002.68 566.147 1006 562.227 1009.53 558.495C1013.66 554.104 1017.65 550.374 1020.54 547.679C1022.18 546.303 1023.72 544.818 1025.15 543.235C1024.64 543.506 1024.17 543.836 1023.73 544.217C1022.86 544.895 1021.61 545.912 1020.17 547.197C1016.23 550.559 1012.49 554.134 1008.94 557.906C1005.36 561.645 1002.08 565.655 999.109 569.899C997.969 571.523 997.114 572.88 996.562 573.843C996.203 574.3 995.909 574.805 995.689 575.342V575.342Z" fill="#263238"/>
<g opacity="0.3">
<path opacity="0.3" d="M1021.95 668.219C1027.13 669.593 1068.12 666.809 1088.68 660.223C1103.43 655.494 1117.76 649.301 1127.57 641.948C1135.17 636.395 1141.7 629.515 1146.85 621.638C1149.22 620.281 1150.77 627.42 1151.71 630.365C1152.66 633.31 1154.62 641.073 1160.05 644.643C1166.71 648.98 1176.94 650.407 1177.86 659.278C1178.45 664.828 1173.41 669.433 1167.83 669.7C1150.29 670.557 1101.92 672.895 1088.95 672.877C1073.09 672.788 1039.14 673.698 1021.95 668.219Z" fill="black"/>
</g>
<path d="M1015.41 665.203C1015.77 665.555 1016.15 665.883 1016.55 666.184C1017.78 666.966 1019.12 667.567 1020.52 667.969C1025.72 669.087 1031.06 669.424 1036.36 668.969C1043.08 668.647 1051 667.648 1059.77 666.399C1069.3 665.135 1078.75 663.293 1088.06 660.884C1097.39 658.458 1106.42 654.985 1114.98 650.532C1121.96 646.863 1128.43 642.297 1134.24 636.951C1138.15 633.355 1141.65 629.332 1144.67 624.957C1145.73 623.405 1146.46 622.173 1146.97 621.299C1147.24 620.877 1147.48 620.435 1147.69 619.978C1147.35 620.358 1147.06 620.771 1146.81 621.209C1146.3 622.048 1145.48 623.244 1144.37 624.779C1141.26 629.037 1137.71 632.96 1133.79 636.487C1127.97 641.714 1121.52 646.187 1114.59 649.801C1106.03 654.131 1097.03 657.5 1087.74 659.849C1078.46 662.246 1069.05 664.099 1059.56 665.399C1050.79 666.702 1042.9 667.773 1036.24 668.183C1030.99 668.681 1025.7 668.44 1020.52 667.469C1019.14 667.126 1017.81 666.604 1016.57 665.917C1016.2 665.658 1015.81 665.419 1015.41 665.203V665.203Z" fill="#263238"/>
<path d="M1007.09 655.048C1007.27 655.227 1008.5 654.209 1009.82 652.781C1011.13 651.354 1012.06 650.051 1011.86 649.89C1011.67 649.73 1010.46 650.729 1009.14 652.157C1007.82 653.585 1006.89 654.887 1007.09 655.048Z" fill="#263238"/>
<path d="M1018.92 560.029C1018.92 560.19 1021.45 559.048 1025.69 558.352C1031.22 557.412 1036.9 557.927 1042.18 559.848C1047.45 561.769 1052.14 565.029 1055.78 569.31C1058.58 572.594 1059.73 575.057 1059.89 574.967C1059.73 574.339 1059.48 573.737 1059.15 573.183C1058.33 571.655 1057.37 570.209 1056.28 568.864C1052.69 564.348 1047.92 560.914 1042.5 558.939C1037.09 556.965 1031.23 556.527 1025.58 557.673C1023.88 558.009 1022.22 558.499 1020.61 559.137C1020 559.335 1019.43 559.637 1018.92 560.029V560.029Z" fill="#263238"/>
<path d="M1035.52 642.894C1035.73 643.023 1035.96 643.119 1036.2 643.179C1036.85 643.435 1037.52 643.65 1038.2 643.822C1040.7 644.453 1043.29 644.736 1045.87 644.661C1049.71 644.526 1053.52 643.847 1057.17 642.644C1061.61 641.156 1065.89 639.187 1069.91 636.772C1074.18 634.22 1078.06 631.507 1081.59 629.062C1085.12 626.617 1088.29 624.44 1091.05 622.744C1093.81 621.049 1096.11 619.782 1097.71 618.961C1098.58 618.586 1099.41 618.145 1100.21 617.64C1099.97 617.684 1099.74 617.756 1099.51 617.854C1099.07 618.033 1098.39 618.265 1097.57 618.64C1095.22 619.692 1092.93 620.884 1090.71 622.209C1085.03 625.404 1077.87 630.883 1069.44 635.987C1065.5 638.358 1061.32 640.319 1056.97 641.841C1053.41 643.071 1049.69 643.803 1045.93 644.018C1042.42 644.117 1038.92 643.739 1035.52 642.894V642.894Z" fill="#263238"/>
<path d="M1018.92 665.203C1019.37 665.23 1019.82 665.23 1020.27 665.203L1024.16 664.989C1025.83 664.899 1027.9 664.757 1030.29 664.507C1032.67 664.257 1035.4 664.061 1038.39 663.632C1041.38 663.204 1044.68 662.847 1048.17 662.222C1051.66 661.598 1055.4 660.919 1059.32 660.116C1067.8 658.299 1076.17 655.981 1084.37 653.174C1092.56 650.283 1100.54 646.842 1108.26 642.876C1111.82 640.948 1115.14 639.182 1118.13 637.254C1119.63 636.29 1121.12 635.469 1122.48 634.506L1126.38 631.793C1128.91 630.133 1130.99 628.348 1132.9 626.903C1133.84 626.153 1134.68 625.475 1135.52 624.815L1137.64 623.03L1140.54 620.424C1140.89 620.133 1141.21 619.81 1141.5 619.46C1141.12 619.709 1140.76 619.983 1140.42 620.281L1137.41 622.744L1135.25 624.529C1134.45 625.172 1133.47 625.814 1132.6 626.546C1130.65 627.956 1128.55 629.687 1126 631.311L1122.09 633.952C1120.73 634.88 1119.24 635.737 1117.72 636.647C1114.73 638.539 1111.36 640.217 1107.87 642.18C1100.16 646.078 1092.21 649.476 1084.07 652.353C1075.89 655.145 1067.56 657.481 1059.13 659.349C1055.23 660.17 1051.52 660.955 1048.03 661.508C1044.54 662.062 1041.28 662.615 1038.28 663.043C1035.29 663.472 1032.58 663.739 1030.21 664.043C1027.84 664.346 1025.78 664.525 1024.1 664.685L1020.24 665.06C1019.79 665.061 1019.35 665.109 1018.92 665.203V665.203Z" fill="#263238"/>
<path d="M1040.53 947.778L1043.43 996.126L970.392 996.679C970.766 989.683 1008.48 975.262 1008.48 975.262L1007.36 949.045L1040.53 947.778Z" fill="#7E57C2"/>
<path d="M1031 972.014C1031.7 972.222 1032.3 972.684 1032.69 973.31C1033.07 973.935 1033.21 974.682 1033.08 975.405C1032.9 976.118 1032.46 976.735 1031.84 977.127C1031.22 977.519 1030.47 977.657 1029.75 977.511C1029.01 977.287 1028.38 976.801 1027.97 976.144C1027.57 975.487 1027.41 974.704 1027.54 973.941C1027.81 973.219 1028.35 972.63 1029.04 972.297C1029.74 971.964 1030.53 971.914 1031.26 972.157" fill="#E0E0E0"/>
<path d="M1043.43 996.125V990.022L973.153 993.234C973.153 993.234 969.91 994.698 970.32 997L1043.43 996.125Z" fill="#263238"/>
<path d="M1007.23 974.995C1007.23 975.351 1009.01 975.494 1010.8 976.637C1012.58 977.779 1013.5 979.26 1013.82 979.117C1014.14 978.975 1013.61 976.922 1011.45 975.548C1009.3 974.174 1007.14 974.655 1007.23 974.995Z" fill="#E0E0E0"/>
<path d="M999.59 978.225C999.59 978.564 1001.05 979.171 1002.28 980.67C1003.51 982.169 1003.87 983.775 1004.22 983.757C1004.58 983.74 1004.79 981.705 1003.22 979.867C1001.66 978.028 999.59 977.886 999.59 978.225Z" fill="#E0E0E0"/>
<path d="M995.297 987.452C995.617 987.452 996.098 985.667 995.172 983.776C994.246 981.884 992.571 981.063 992.411 981.366C992.25 981.67 993.301 982.705 994.05 984.311C994.798 985.917 994.94 987.416 995.297 987.452Z" fill="#E0E0E0"/>
<path d="M1007.8 966.357C1007.96 966.678 1009.58 966.178 1011.61 966.357C1013.65 966.535 1015.18 967.106 1015.39 966.803C1015.61 966.499 1014.06 965.232 1011.67 965.125C1009.28 965.018 1007.57 966.071 1007.8 966.357Z" fill="#E0E0E0"/>
<path d="M1009.48 957.647C1010.68 957.973 1011.95 957.973 1013.15 957.647C1014.46 957.395 1015.74 956.987 1016.96 956.433C1017.69 956.101 1018.39 955.72 1019.06 955.291C1019.47 955.066 1019.85 954.777 1020.17 954.434C1020.4 954.176 1020.54 953.849 1020.56 953.504C1020.59 953.158 1020.5 952.814 1020.31 952.525C1020.13 952.274 1019.9 952.071 1019.62 951.931C1019.35 951.791 1019.05 951.719 1018.74 951.722C1018.28 951.715 1017.81 951.781 1017.37 951.918C1015.27 952.442 1013.33 953.492 1011.74 954.97C1010.05 956.54 1009.48 957.897 1009.6 957.95C1009.73 958.004 1010.58 956.951 1012.31 955.63C1013.31 954.902 1014.4 954.302 1015.55 953.845C1016.23 953.566 1016.94 953.339 1017.65 953.167C1018.42 952.971 1019.08 952.953 1019.28 953.292C1019.47 953.631 1019.36 953.488 1019.28 953.703C1019.04 953.954 1018.77 954.171 1018.47 954.345C1017.85 954.756 1017.21 955.131 1016.55 955.47C1015.41 956.039 1014.21 956.505 1012.99 956.862C1011.8 957.036 1010.63 957.298 1009.48 957.647V957.647Z" fill="#E0E0E0"/>
<path d="M1009.96 958.165C1010.64 957.106 1010.97 955.854 1010.88 954.595C1010.99 952.42 1010.48 950.26 1009.41 948.367C1009.2 947.89 1008.88 947.475 1008.47 947.162C1008.05 946.849 1007.57 946.649 1007.05 946.582C1006.73 946.601 1006.42 946.707 1006.15 946.889C1005.89 947.072 1005.68 947.323 1005.54 947.617C1005.36 948.045 1005.23 948.495 1005.17 948.955C1005.05 949.778 1005.05 950.613 1005.17 951.436C1005.38 952.805 1005.93 954.098 1006.77 955.202C1008.21 957.094 1009.71 957.504 1009.73 957.397C1009.74 957.29 1008.6 956.523 1007.5 954.72C1006.86 953.67 1006.45 952.496 1006.31 951.276C1006.21 950.571 1006.21 949.856 1006.31 949.152C1006.41 948.367 1006.7 947.742 1007 947.813C1007.3 947.885 1007.98 948.402 1008.28 949.009C1008.64 949.644 1008.95 950.307 1009.21 950.99C1009.63 952.169 1009.87 953.401 1009.94 954.649C1010.14 956.755 1009.76 958.111 1009.96 958.165Z" fill="#E0E0E0"/>
<path d="M1289.05 832.253L1336.2 821.544L1348.67 893.718C1341.73 894.486 1321.49 859.523 1321.49 859.523L1295.85 864.877L1289.05 832.253Z" fill="#7E57C2"/>
<path d="M1314.4 837.75C1314.49 837.021 1314.84 836.351 1315.4 835.868C1315.95 835.384 1316.66 835.12 1317.39 835.126C1318.12 835.19 1318.8 835.532 1319.29 836.084C1319.78 836.635 1320.03 837.353 1320.01 838.089C1319.91 838.863 1319.53 839.574 1318.94 840.085C1318.36 840.595 1317.6 840.87 1316.82 840.855C1316.06 840.711 1315.39 840.277 1314.94 839.644C1314.5 839.011 1314.31 838.229 1314.43 837.464" fill="#E0E0E0"/>
<path d="M1336.13 821.544L1330.04 822.526L1344.61 891.487C1344.61 891.487 1346.57 894.432 1348.76 893.665L1336.13 821.544Z" fill="#263238"/>
<path d="M1321.11 860.754C1321.45 860.754 1321.31 858.97 1322.15 856.971C1322.98 854.972 1324.3 853.865 1324.11 853.562C1323.91 853.258 1321.97 854.133 1321.01 856.489C1320.04 858.845 1320.86 860.897 1321.11 860.754Z" fill="#E0E0E0"/>
<path d="M1325.6 867.786C1325.96 867.786 1326.3 866.18 1327.58 864.734C1328.86 863.289 1330.38 862.664 1330.31 862.307C1330.23 861.95 1328.2 862.075 1326.64 863.913C1325.07 865.752 1325.26 867.84 1325.6 867.786Z" fill="#E0E0E0"/>
<path d="M1335.37 870.535C1335.37 870.196 1333.58 870.017 1331.8 871.249C1330.02 872.48 1329.54 874.265 1329.86 874.372C1330.18 874.479 1331.04 873.266 1332.5 872.266C1333.96 871.267 1335.37 870.892 1335.37 870.535Z" fill="#E0E0E0"/>
<path d="M1312.58 861.522C1312.88 861.308 1312.12 859.737 1311.9 857.774C1311.69 855.811 1312.06 854.08 1311.73 853.955C1311.39 853.83 1310.39 855.543 1310.67 857.899C1310.96 860.255 1312.33 861.808 1312.58 861.522Z" fill="#E0E0E0"/>
<path d="M1303.74 861.344C1303.84 860.118 1303.62 858.889 1303.1 857.774C1302.65 856.518 1302.05 855.32 1301.32 854.205C1300.88 853.541 1300.39 852.909 1299.86 852.313C1299.56 851.95 1299.21 851.632 1298.83 851.367C1298.54 851.181 1298.2 851.095 1297.86 851.124C1297.51 851.154 1297.19 851.295 1296.94 851.528C1296.72 851.747 1296.56 852.015 1296.46 852.31C1296.37 852.604 1296.34 852.917 1296.39 853.223C1296.46 853.682 1296.61 854.127 1296.81 854.544C1297.13 855.283 1297.52 855.989 1297.97 856.65C1298.72 857.777 1299.65 858.777 1300.72 859.612C1301.63 860.474 1302.77 861.04 1304.01 861.236C1304.1 861.058 1302.87 860.433 1301.3 858.934C1300.39 858.075 1299.59 857.097 1298.93 856.025C1298.54 855.403 1298.21 854.746 1297.94 854.062C1297.6 853.33 1297.49 852.688 1297.79 852.438C1298.1 852.188 1297.95 852.313 1298.2 852.438C1298.49 852.633 1298.75 852.867 1298.97 853.134C1299.48 853.698 1299.95 854.294 1300.38 854.919C1301.13 855.943 1301.78 857.037 1302.32 858.185C1302.71 859.272 1303.19 860.328 1303.74 861.344V861.344Z" fill="#E0E0E0"/>
<path d="M1304.15 860.79C1303.03 860.309 1301.78 860.191 1300.59 860.451C1299.24 860.612 1297.94 861.004 1296.72 861.611C1296 861.979 1295.32 862.416 1294.68 862.914C1294.24 863.196 1293.88 863.584 1293.63 864.043C1293.38 864.502 1293.25 865.016 1293.25 865.538C1293.32 865.855 1293.47 866.147 1293.7 866.383C1293.92 866.619 1294.2 866.79 1294.52 866.876C1294.97 866.989 1295.44 867.037 1295.91 867.019C1296.73 866.997 1297.56 866.858 1298.35 866.609C1299.66 866.167 1300.84 865.414 1301.8 864.413C1303.42 862.629 1303.58 861.129 1303.48 861.129C1303.37 861.129 1302.8 862.379 1301.2 863.771C1300.28 864.598 1299.19 865.207 1298.01 865.556C1297.32 865.757 1296.62 865.859 1295.91 865.859C1295.12 865.859 1294.46 865.681 1294.48 865.395C1294.5 865.109 1294.89 864.324 1295.44 863.914C1296 863.449 1296.59 863.036 1297.22 862.682C1298.34 862.067 1299.54 861.622 1300.79 861.361C1302.76 860.844 1304.14 861.005 1304.15 860.79Z" fill="#E0E0E0"/>
<path d="M1149.68 679.231C1152.3 683.407 1179.34 697.685 1178.7 740.143L1196.41 832.966L1301.94 823.061L1311.73 865.502L1177.77 887.632C1177.77 887.632 1158.87 892.201 1147.79 869.999C1136.71 847.797 1107.07 766.914 1106.43 764.951C1105.78 762.988 1087.52 715.318 1087.52 715.318L1149.68 679.231Z" fill="#263238"/>
<path d="M1169.24 710.856C1169.47 712.105 1176.47 739.001 1148.83 759.043C1121.18 779.086 1040.3 830.682 1040.3 830.682L1038.16 839.213L1045.41 965.036L999.572 965.928C999.572 965.928 986.193 842.176 985.819 829.397C985.445 816.618 986.817 799.057 1003.15 784.958L1088.81 710.856C1088.81 710.856 1146.46 678.892 1145.81 679.231C1145.17 679.57 1165.84 692.099 1169.24 710.856Z" fill="#263238"/>
<path d="M1149.68 679.231L1143.55 671.003C1143.55 671.003 1116.83 681.926 1099.41 694.526C1088.34 702.539 1072.19 713.283 1073.63 724.67L1149.68 679.231Z" fill="#263238"/>
<path d="M1040.3 830.664C1040.46 830.599 1040.62 830.515 1040.76 830.414L1042.08 829.611L1047.14 826.452L1065.58 814.691C1081.11 804.697 1102.58 790.919 1126.02 775.267C1131.9 771.358 1137.42 767.253 1142.93 763.505C1148.26 759.942 1153.29 755.949 1157.96 751.566C1162.27 747.583 1165.67 742.712 1167.92 737.288C1169.72 732.509 1170.61 727.437 1170.54 722.332C1170.56 714.959 1168.83 707.686 1165.5 701.112C1164.59 699.343 1163.52 697.659 1162.31 696.079L1161.31 694.883C1161.21 694.743 1161.09 694.611 1160.96 694.49C1160.96 694.49 1161.05 694.651 1161.24 694.936L1162.15 696.186C1163.29 697.802 1164.3 699.503 1165.18 701.272C1168.35 707.833 1169.96 715.042 1169.88 722.332C1169.9 727.345 1169 732.32 1167.21 737.002C1164.97 742.289 1161.61 747.031 1157.38 750.905C1152.71 755.245 1147.7 759.202 1142.39 762.738C1136.91 766.468 1131.37 770.573 1125.51 774.463C1101.99 790.133 1080.61 804.001 1065.22 814.138L1046.94 826.149L1041.99 829.451L1040.71 830.343C1040.42 830.539 1040.28 830.646 1040.3 830.664Z" fill="#455A64"/>
<path d="M1036.08 756.474C1036.36 756.313 1036.63 756.121 1036.88 755.902L1039.03 754.118L1046.76 747.621L1072.31 725.741C1080.65 718.242 1089.58 711.443 1099.03 705.413C1102.6 703.039 1105.55 701.183 1107.58 699.898L1109.92 698.399C1110.45 698.06 1110.72 697.863 1110.7 697.828C1110.4 697.937 1110.11 698.074 1109.83 698.238C1109.26 698.542 1108.44 698.988 1107.41 699.577C1105.3 700.772 1102.31 702.557 1098.68 704.931C1089.1 710.804 1080.07 717.536 1071.7 725.045L1046.35 747.122L1038.75 753.886L1036.7 755.76C1036.27 756.224 1036.08 756.438 1036.08 756.474Z" fill="#455A64"/>
<path d="M1180.25 859.506C1183.38 855.459 1186.25 851.221 1188.86 846.816C1191.73 842.58 1194.35 838.176 1196.69 833.627C1193.57 837.679 1190.69 841.917 1188.07 846.317C1185.21 850.558 1182.6 854.962 1180.25 859.506V859.506Z" fill="#455A64"/>
<path d="M1172.68 851.313C1176.49 848.799 1180.12 846.026 1183.55 843.014C1187.18 840.254 1190.63 837.242 1193.84 834.001C1190.03 836.518 1186.4 839.291 1182.96 842.3C1179.33 845.063 1175.89 848.075 1172.68 851.313Z" fill="#455A64"/>
<path d="M1017.9 822.49C1017.9 822.758 1023.25 824.275 1029.72 826.345C1036.18 828.416 1041.49 830.289 1041.6 830.04C1040.57 829.373 1039.46 828.839 1038.3 828.451C1036.2 827.595 1033.28 826.506 1030 825.453C1026.72 824.4 1023.71 823.668 1021.52 823.097C1020.35 822.736 1019.13 822.532 1017.9 822.49Z" fill="#455A64"/>
<path d="M1015.02 837.553C1018.75 838.012 1022.51 838.28 1026.28 838.356C1030.02 838.755 1033.79 838.964 1037.55 838.981C1033.88 838.045 1030.12 837.524 1026.33 837.428C1022.57 837.04 1018.77 837.082 1015.02 837.553V837.553Z" fill="#455A64"/>
</svg>
