<svg width="265" height="72" viewBox="0 0 265 72" fill="none" xmlns="http://www.w3.org/2000/svg">
<path d="M39.5932 54.6269H55.9972C57.0678 54.6269 57.9357 53.6264 57.9357 52.3924V52.0671C57.9357 50.833 57.0678 49.8326 55.9972 49.8326H39.5932C38.5226 49.8326 37.6548 50.833 37.6548 52.0671V52.3924C37.6548 53.6264 38.5226 54.6269 39.5932 54.6269Z" fill="#434343"/>
<path d="M69.4512 43.7483C71.6874 43.1356 73.0692 40.5493 72.5378 37.9716C72.0063 35.3939 69.7627 33.801 67.5265 34.4136C65.2904 35.0263 63.9085 37.6126 64.44 40.1903C64.9715 42.768 67.2151 44.361 69.4512 43.7483Z" fill="#E7E1EE"/>
<path d="M27.3998 43.4368C29.6413 42.8507 31.0462 40.2809 30.5377 37.697C30.0293 35.1132 27.8001 33.4937 25.5586 34.0797C23.3171 34.6658 21.9122 37.2356 22.4206 39.8195C22.929 42.4033 25.1583 44.0229 27.3998 43.4368Z" fill="#E7E1EE"/>
<path d="M46.9722 17.3851C46.9722 17.3851 30.0512 17.151 27.377 34.0572C24.7028 50.9635 39.0075 51.2675 43.1244 51.5867C44.9889 51.7326 48.9818 51.7478 52.5053 51.6749C60.3064 51.5198 65.8184 49.7809 67.6935 41.4387C67.9169 40.4605 68.0573 39.4597 68.1129 38.4502C68.606 29.2933 63.2444 16.9351 46.9722 17.3851Z" fill="#E7E1EE"/>
<path d="M59.2462 43.1169L34.6639 43.5577C34.0505 43.5702 33.441 43.4431 32.8704 43.1837C32.2997 42.9244 31.7789 42.5378 31.338 42.0462C30.8971 41.5545 30.5446 40.9675 30.3007 40.3186C30.0568 39.6698 29.9263 38.9719 29.9167 38.2648V38.2648C29.9062 37.5576 30.0168 36.855 30.2421 36.1971C30.4674 35.5392 30.803 34.939 31.2297 34.4308C31.6563 33.9225 32.1658 33.5162 32.7288 33.2351C33.2918 32.954 33.8974 32.8036 34.5109 32.7925L59.0932 32.3517C59.7067 32.3388 60.3163 32.4656 60.8872 32.7249C61.458 32.9841 61.9789 33.3706 62.4199 33.8623C62.8609 34.354 63.2134 34.9412 63.4571 35.5903C63.7009 36.2393 63.8311 36.9374 63.8404 37.6446C63.8512 38.3519 63.7409 39.0547 63.5157 39.7128C63.2906 40.3708 62.955 40.9712 62.5282 41.4795C62.1015 41.9879 61.5919 42.3941 61.0287 42.6751C60.4655 42.9561 59.8598 43.1062 59.2462 43.1169V43.1169Z" fill="#434343"/>
<path d="M39.7724 37.6781C39.7152 38.0131 39.5731 38.3211 39.3641 38.5631C39.1551 38.8051 38.8886 38.9703 38.5981 39.0376C38.3077 39.105 38.0065 39.0716 37.7325 38.9417C37.4586 38.8118 37.2242 38.5911 37.059 38.3076C36.8939 38.0241 36.8053 37.6906 36.8046 37.3491C36.8038 37.0076 36.891 36.6735 37.0549 36.3891C37.2189 36.1047 37.4523 35.8827 37.7257 35.7512C37.9991 35.6197 38.3002 35.5846 38.5909 35.6503C38.784 35.6939 38.9677 35.781 39.1316 35.9066C39.2955 36.0321 39.4364 36.1937 39.5461 36.382C39.6558 36.5703 39.7323 36.7817 39.7711 37.0041C39.8099 37.2265 39.8104 37.4555 39.7724 37.6781V37.6781Z" fill="white"/>
<path d="M56.9385 37.3619C56.8818 37.6972 56.7401 38.0056 56.5313 38.2481C56.3225 38.4905 56.056 38.6562 55.7656 38.724C55.4751 38.7918 55.1737 38.7588 54.8995 38.6291C54.6253 38.4994 54.3907 38.2788 54.2253 37.9954C54.0598 37.7119 53.9711 37.3782 53.9702 37.0366C53.9694 36.6949 54.0564 36.3607 54.2204 36.0761C54.3844 35.7915 54.6179 35.5694 54.8915 35.4379C55.165 35.3063 55.4662 35.2713 55.757 35.3371C56.1465 35.4253 56.4896 35.6881 56.7112 36.0677C56.9327 36.4474 57.0145 36.9128 56.9385 37.3619V37.3619Z" fill="white"/>
<path d="M44.0688 36.8815C44.1796 36.8967 44.1242 37.4896 44.4513 38.3013C44.6365 38.7672 44.9063 39.1818 45.2424 39.5173C45.6364 39.9169 46.1269 40.1683 46.6481 40.2378C47.1722 40.2768 47.6942 40.1327 48.1461 39.8244C48.5286 39.568 48.8594 39.2208 49.1166 38.8059C49.565 38.0854 49.6046 37.4804 49.7153 37.4896C49.7602 37.4896 49.805 37.6416 49.805 37.9273C49.795 38.3345 49.7048 38.7337 49.5413 39.0948C49.2955 39.6405 48.9323 40.1042 48.4863 40.4415C47.935 40.8894 47.2634 41.0964 46.5918 41.0257C45.9202 40.955 45.2923 40.611 44.8205 40.0554C44.4354 39.6309 44.152 39.0989 43.9976 38.511C43.8877 38.1188 43.8588 37.7024 43.9132 37.295C43.9581 37.0122 44.0266 36.8724 44.0688 36.8815Z" fill="white"/>
<path d="M66.5995 44.7586C66.5731 44.7586 66.8764 44.2113 67.1692 43.2537C67.5332 41.9995 67.7635 40.6989 67.8549 39.3805C67.9605 38.0668 67.9869 36.7463 67.934 35.4283C67.9155 34.9206 67.8944 34.5163 67.8733 34.2123C67.8555 34.0653 67.8511 33.9165 67.8601 33.7684C67.8939 33.9117 67.916 34.0582 67.9261 34.2062C67.963 34.4889 67.9999 34.8994 68.0316 35.4223C68.1143 36.7508 68.1011 38.0849 67.992 39.4109C67.8992 40.7416 67.6535 42.0522 67.2615 43.3084C67.1373 43.6873 66.9874 44.0543 66.8131 44.4059C66.7508 44.5303 66.6793 44.6483 66.5995 44.7586V44.7586Z" fill="#434343"/>
<path d="M27.4087 33.4918C27.3938 33.6394 27.3664 33.785 27.3269 33.9265C27.2927 34.0633 27.2557 34.2305 27.2215 34.4312C27.1872 34.6318 27.1344 34.8507 27.1028 35.103C27.0103 35.689 26.9487 36.2809 26.9182 36.8755C26.8827 37.6029 26.8915 38.3323 26.9445 39.0583C27.0035 39.783 27.1057 40.5022 27.2505 41.2107C27.3715 41.7903 27.523 42.3608 27.7041 42.9193C27.7753 43.1594 27.857 43.3692 27.923 43.5577C27.9889 43.7462 28.0522 43.9043 28.105 44.032C28.1651 44.1632 28.2145 44.3006 28.2526 44.4424C28.1776 44.3218 28.1123 44.1936 28.0575 44.0593C27.9829 43.9073 27.9151 43.7511 27.8544 43.5911C27.7806 43.4087 27.6909 43.199 27.6144 42.9588C27.4186 42.4018 27.2565 41.8299 27.1291 41.2472C26.9748 40.5319 26.8673 39.8043 26.8074 39.0704C26.7537 38.3373 26.7484 37.6004 26.7916 36.8663C26.8284 36.2665 26.9006 35.6703 27.0078 35.0818C27.0474 34.8294 27.1028 34.6075 27.1476 34.4099C27.1924 34.2123 27.2346 34.0451 27.2742 33.9083C27.3092 33.7655 27.3541 33.6262 27.4087 33.4918V33.4918Z" fill="#434343"/>
<path d="M44.828 18.6498C44.8078 18.652 44.7875 18.652 44.7673 18.6498L44.5906 18.6711C44.4324 18.6893 44.2003 18.6954 43.9023 18.7349C43.0614 18.829 42.227 18.9884 41.4047 19.2122C37.152 20.335 33.4009 23.2083 30.8555 27.2929C29.6257 29.2558 28.6947 31.4455 28.1021 33.7684C28.0098 34.0968 27.9597 34.3582 27.9149 34.5315L27.8648 34.7321C27.86 34.7553 27.853 34.7778 27.8437 34.799C27.8402 34.7759 27.8402 34.7522 27.8437 34.7291C27.8437 34.6744 27.8648 34.6075 27.8806 34.5254C27.9175 34.3491 27.9571 34.0846 28.0415 33.7502C28.2616 32.8057 28.5437 31.8819 28.8854 30.9867C30.0127 28.0119 31.7289 25.3829 33.8963 23.3103C36.073 21.2534 38.6372 19.8124 41.3836 19.1028C42.2107 18.8861 43.0509 18.7428 43.897 18.6741C44.1976 18.6437 44.4244 18.6467 44.588 18.6376H44.7673C44.8095 18.6437 44.828 18.6467 44.828 18.6498Z" fill="white"/>
<path d="M28.2738 42.0528C28.1682 41.8646 28.0864 41.6598 28.0312 41.4448C27.7184 40.4288 27.5726 39.3545 27.6013 38.277C27.5938 38.0533 27.6169 37.8296 27.6699 37.6142C27.7121 37.6142 27.6541 38.6296 27.8229 39.8578C27.9917 41.0861 28.3134 42.0346 28.2738 42.0528Z" fill="white"/>
<path d="M23.8352 40.4811C23.8352 40.4811 23.7745 40.4324 23.6927 40.3169C23.5762 40.1532 23.4762 39.9747 23.3947 39.7849C23.1131 39.1564 23.0053 38.4436 23.086 37.7423C23.1666 37.0411 23.4318 36.3852 23.8457 35.8631C23.967 35.7031 24.1042 35.5603 24.2545 35.4375C24.3061 35.3874 24.3651 35.3483 24.4286 35.3219C24.4444 35.3463 24.207 35.5317 23.9196 35.93C23.5423 36.4508 23.3009 37.0843 23.2234 37.757C23.1459 38.4296 23.2355 39.1138 23.4818 39.7301C23.6664 40.2135 23.8536 40.4628 23.8352 40.4811Z" fill="white"/>
<path d="M70.9346 36.7934C70.9056 36.8299 70.4968 36.3769 69.8797 36.0364C69.2626 35.6959 68.7008 35.5956 68.7061 35.5469C69.136 35.5346 69.5611 35.6542 69.9377 35.8935C70.3342 36.0847 70.6786 36.3955 70.9346 36.7934V36.7934Z" fill="white"/>
<path d="M55.185 31.3697C55.185 31.4123 51.9464 31.4488 47.9535 31.4488C43.9606 31.4488 40.7194 31.4123 40.7194 31.3697C40.7194 31.3272 43.958 31.2907 47.9535 31.2907C51.949 31.2907 55.185 31.3211 55.185 31.3697Z" fill="white"/>
<path d="M42.8424 50.3798C42.8028 50.3926 42.7621 50.3998 42.721 50.4011L42.3676 50.4375C42.2147 50.4527 42.0274 50.4649 41.8085 50.471C41.5896 50.4771 41.3417 50.4892 41.0674 50.471C40.5162 50.471 39.8622 50.4254 39.1369 50.3372C38.3521 50.2319 37.5729 50.0767 36.8029 49.8721C36.0348 49.6597 35.2775 49.3978 34.5348 49.0877C33.9297 48.8323 33.3364 48.541 32.7573 48.2152C32.4936 48.0814 32.2905 47.9416 32.098 47.823C31.9054 47.7044 31.7419 47.598 31.6101 47.519L31.3068 47.3062C31.2708 47.2832 31.2372 47.2557 31.2065 47.2241C31.2065 47.2241 31.2487 47.2241 31.3199 47.2788L31.6364 47.4643C31.7709 47.5494 31.9371 47.6497 32.1322 47.7683C32.3274 47.8869 32.5489 48.0085 32.7995 48.1361C33.2953 48.4037 33.8992 48.6895 34.5797 48.9722C36.0585 49.5834 37.5927 49.9995 39.1528 50.2126C39.8701 50.3099 40.5215 50.3646 41.0674 50.3798C41.3312 50.398 41.5949 50.3798 41.8085 50.3798C42.0221 50.3798 42.212 50.3798 42.365 50.3798H42.7184C42.7594 50.3719 42.8013 50.3719 42.8424 50.3798V50.3798Z" fill="white"/>
<path d="M87.9 42.85H85.2V47.5H80.25V30H88.25C89.8333 30 91.2083 30.2667 92.375 30.8C93.5417 31.3167 94.4417 32.0667 95.075 33.05C95.7083 34.0167 96.025 35.1583 96.025 36.475C96.025 37.7417 95.725 38.85 95.125 39.8C94.5417 40.7333 93.7 41.4667 92.6 42L96.375 47.5H91.075L87.9 42.85ZM91.025 36.475C91.025 35.6583 90.7667 35.025 90.25 34.575C89.7333 34.125 88.9667 33.9 87.95 33.9H85.2V39.025H87.95C88.9667 39.025 89.7333 38.8083 90.25 38.375C90.7667 37.925 91.025 37.2917 91.025 36.475ZM110.481 44.1H103.081L101.706 47.5H96.6559L104.381 30H109.256L117.006 47.5H111.856L110.481 44.1ZM109.031 40.45L106.781 34.85L104.531 40.45H109.031ZM117.176 38.55H124.476V42.2H117.176V38.55ZM132.768 34.125C134.601 34.125 136.001 34.575 136.968 35.475C137.951 36.375 138.443 37.7167 138.443 39.5V47.5H136.168V45.75C135.768 46.3667 135.193 46.8417 134.443 47.175C133.71 47.4917 132.835 47.65 131.818 47.65C130.335 47.65 129.143 47.2917 128.243 46.575C127.36 45.8583 126.918 44.9167 126.918 43.75C126.918 42.5833 127.343 41.65 128.193 40.95C129.043 40.2333 130.393 39.875 132.243 39.875H136.043V39.4C136.043 38.3667 135.743 37.575 135.143 37.025C134.543 36.475 133.66 36.2 132.493 36.2C131.71 36.2 130.943 36.3333 130.193 36.6C129.443 36.85 128.81 37.1917 128.293 37.625L127.293 35.825C127.976 35.275 128.793 34.8583 129.743 34.575C130.693 34.275 131.701 34.125 132.768 34.125ZM132.218 45.8C133.135 45.8 133.926 45.6 134.593 45.2C135.26 44.7833 135.743 44.2 136.043 43.45V41.6H132.343C130.31 41.6 129.293 42.2833 129.293 43.65C129.293 44.3167 129.551 44.8417 130.068 45.225C130.585 45.6083 131.301 45.8 132.218 45.8ZM162.69 34.25L157.74 47.5H155.44L151.615 37.45L147.74 47.5H145.44L140.515 34.25H142.79L146.64 44.8L150.64 34.25H152.665L156.59 44.85L160.54 34.25H162.69ZM178.051 38.375C179.051 38.725 179.834 39.275 180.401 40.025C180.967 40.7583 181.251 41.65 181.251 42.7C181.251 44.2333 180.634 45.4167 179.401 46.25C178.167 47.0833 176.384 47.5 174.051 47.5H164.601V30H173.551C175.784 30 177.484 30.4167 178.651 31.25C179.817 32.0667 180.401 33.175 180.401 34.575C180.401 35.4083 180.192 36.1583 179.776 36.825C179.376 37.475 178.801 37.9917 178.051 38.375ZM169.501 33.575V36.95H172.901C174.567 36.95 175.401 36.3833 175.401 35.25C175.401 34.1333 174.567 33.575 172.901 33.575H169.501ZM173.651 43.925C175.384 43.925 176.251 43.3333 176.251 42.15C176.251 40.9667 175.384 40.375 173.651 40.375H169.501V43.925H173.651ZM192.639 47.85C190.789 47.85 189.123 47.4583 187.639 46.675C186.173 45.8917 185.014 44.8083 184.164 43.425C183.331 42.0417 182.914 40.4833 182.914 38.75C182.914 37.0167 183.331 35.4583 184.164 34.075C185.014 32.6917 186.173 31.6083 187.639 30.825C189.123 30.0417 190.789 29.65 192.639 29.65C194.489 29.65 196.148 30.0417 197.614 30.825C199.098 31.6083 200.256 32.6917 201.089 34.075C201.939 35.4583 202.364 37.0167 202.364 38.75C202.364 40.4833 201.939 42.0417 201.089 43.425C200.256 44.8083 199.098 45.8917 197.614 46.675C196.148 47.4583 194.489 47.85 192.639 47.85ZM192.639 43.75C193.523 43.75 194.323 43.5417 195.039 43.125C195.756 42.7083 196.323 42.125 196.739 41.375C197.156 40.6083 197.364 39.7333 197.364 38.75C197.364 37.7667 197.156 36.9 196.739 36.15C196.323 35.3833 195.756 34.7917 195.039 34.375C194.323 33.9583 193.523 33.75 192.639 33.75C191.756 33.75 190.956 33.9583 190.239 34.375C189.523 34.7917 188.956 35.3833 188.539 36.15C188.123 36.9 187.914 37.7667 187.914 38.75C187.914 39.7333 188.123 40.6083 188.539 41.375C188.956 42.125 189.523 42.7083 190.239 43.125C190.956 43.5417 191.756 43.75 192.639 43.75ZM208.438 33.925H203.063V30H218.738V33.925H213.388V47.5H208.438V33.925Z" fill="#E0D4EF"/>
</svg>
