<svg width="244" height="40" viewBox="0 0 244 40" fill="none" xmlns="http://www.w3.org/2000/svg">
<path d="M29.0932 38.6269H45.4972C46.5678 38.6269 47.4357 37.6264 47.4357 36.3924V36.0671C47.4357 34.833 46.5678 33.8326 45.4972 33.8326H29.0932C28.0226 33.8326 27.1548 34.833 27.1548 36.0671V36.3924C27.1548 37.6264 28.0226 38.6269 29.0932 38.6269Z" fill="#434343"/>
<path d="M58.9512 27.7483C61.1874 27.1356 62.5692 24.5493 62.0378 21.9716C61.5063 19.3939 59.2627 17.801 57.0265 18.4136C54.7904 19.0263 53.4085 21.6126 53.94 24.1903C54.4715 26.768 56.7151 28.361 58.9512 27.7483Z" fill="#E7E1EE"/>
<path d="M16.8998 27.4368C19.1413 26.8507 20.5462 24.2809 20.0377 21.697C19.5293 19.1132 17.3001 17.4937 15.0586 18.0798C12.8171 18.6658 11.4122 21.2356 11.9206 23.8195C12.429 26.4033 14.6583 28.0229 16.8998 27.4368Z" fill="#E7E1EE"/>
<path d="M36.4722 1.38508C36.4722 1.38508 19.5512 1.15098 16.877 18.0572C14.2028 34.9635 28.5075 35.2675 32.6244 35.5867C34.4889 35.7326 38.4818 35.7478 42.0053 35.6749C49.8064 35.5198 55.3184 33.7809 57.1935 25.4387C57.4169 24.4605 57.5573 23.4597 57.6129 22.4502C58.106 13.2933 52.7444 0.935136 36.4722 1.38508Z" fill="#E7E1EE"/>
<path d="M48.7462 27.1169L24.1639 27.5577C23.5505 27.5702 22.941 27.4431 22.3704 27.1837C21.7997 26.9244 21.2789 26.5378 20.838 26.0462C20.3971 25.5545 20.0446 24.9675 19.8007 24.3186C19.5568 23.6698 19.4263 22.9719 19.4167 22.2648C19.4062 21.5576 19.5168 20.855 19.7421 20.1971C19.9674 19.5392 20.303 18.939 20.7297 18.4308C21.1563 17.9225 21.6658 17.5162 22.2288 17.2351C22.7918 16.954 23.3974 16.8036 24.0109 16.7925L48.5932 16.3517C49.2067 16.3388 49.8163 16.4656 50.3872 16.7249C50.958 16.9841 51.4789 17.3706 51.9199 17.8623C52.3609 18.354 52.7134 18.9412 52.9571 19.5903C53.2009 20.2393 53.3311 20.9374 53.3404 21.6446C53.3512 22.3519 53.2409 23.0547 53.0157 23.7128C52.7906 24.3708 52.455 24.9712 52.0282 25.4795C51.6015 25.9879 51.0919 26.3941 50.5287 26.6751C49.9655 26.9561 49.3598 27.1062 48.7462 27.1169Z" fill="#434343"/>
<path d="M29.2724 21.6781C29.2152 22.0131 29.0731 22.3211 28.8641 22.5631C28.6551 22.8051 28.3886 22.9703 28.0981 23.0376C27.8077 23.105 27.5065 23.0716 27.2325 22.9417C26.9586 22.8118 26.7242 22.5911 26.559 22.3076C26.3939 22.0241 26.3053 21.6906 26.3046 21.3491C26.3038 21.0076 26.391 20.6735 26.5549 20.3891C26.7189 20.1047 26.9523 19.8827 27.2257 19.7512C27.4991 19.6197 27.8002 19.5846 28.0909 19.6503C28.284 19.6939 28.4677 19.781 28.6316 19.9066C28.7955 20.0321 28.9364 20.1937 29.0461 20.382C29.1558 20.5703 29.2323 20.7817 29.2711 21.0041C29.3099 21.2265 29.3104 21.4555 29.2724 21.6781Z" fill="white"/>
<path d="M46.4385 21.3619C46.3818 21.6972 46.2401 22.0056 46.0313 22.2481C45.8225 22.4905 45.556 22.6562 45.2656 22.724C44.9751 22.7918 44.6737 22.7588 44.3995 22.6291C44.1253 22.4994 43.8907 22.2788 43.7253 21.9954C43.5598 21.7119 43.4711 21.3782 43.4702 21.0366C43.4694 20.6949 43.5564 20.3607 43.7204 20.0761C43.8844 19.7915 44.1179 19.5694 44.3915 19.4379C44.665 19.3063 44.9662 19.2713 45.257 19.3371C45.6465 19.4253 45.9896 19.6881 46.2112 20.0677C46.4327 20.4474 46.5145 20.9128 46.4385 21.3619Z" fill="white"/>
<path d="M33.5688 20.8815C33.6796 20.8967 33.6242 21.4896 33.9513 22.3013C34.1365 22.7672 34.4063 23.1818 34.7424 23.5173C35.1364 23.9169 35.6269 24.1683 36.1481 24.2378C36.6722 24.2768 37.1942 24.1327 37.6461 23.8244C38.0286 23.568 38.3594 23.2208 38.6166 22.8059C39.065 22.0854 39.1046 21.4804 39.2153 21.4896C39.2602 21.4896 39.305 21.6416 39.305 21.9273C39.295 22.3345 39.2048 22.7337 39.0413 23.0948C38.7955 23.6405 38.4323 24.1042 37.9863 24.4415C37.435 24.8894 36.7634 25.0964 36.0918 25.0257C35.4202 24.955 34.7923 24.611 34.3205 24.0554C33.9354 23.6309 33.652 23.0989 33.4976 22.511C33.3877 22.1188 33.3588 21.7024 33.4132 21.295C33.4581 21.0122 33.5266 20.8724 33.5688 20.8815Z" fill="white"/>
<path d="M56.0995 28.7586C56.0731 28.7586 56.3764 28.2113 56.6692 27.2537C57.0332 25.9995 57.2635 24.6989 57.3549 23.3805C57.4605 22.0668 57.4869 20.7463 57.434 19.4283C57.4155 18.9206 57.3944 18.5163 57.3733 18.2123C57.3555 18.0653 57.3511 17.9165 57.3601 17.7684C57.3939 17.9117 57.416 18.0582 57.4261 18.2062C57.463 18.4889 57.4999 18.8994 57.5316 19.4223C57.6143 20.7508 57.6011 22.0849 57.492 23.4109C57.3992 24.7416 57.1535 26.0522 56.7615 27.3084C56.6373 27.6873 56.4874 28.0543 56.3131 28.4059C56.2508 28.5303 56.1793 28.6483 56.0995 28.7586Z" fill="#434343"/>
<path d="M16.9087 17.4918C16.8938 17.6394 16.8664 17.785 16.8269 17.9265C16.7927 18.0633 16.7557 18.2305 16.7215 18.4312C16.6872 18.6318 16.6344 18.8507 16.6028 19.103C16.5103 19.689 16.4487 20.2809 16.4182 20.8755C16.3827 21.6029 16.3915 22.3323 16.4445 23.0583C16.5035 23.783 16.6057 24.5022 16.7505 25.2107C16.8715 25.7903 17.023 26.3608 17.2041 26.9193C17.2753 27.1594 17.357 27.3692 17.423 27.5577C17.4889 27.7462 17.5522 27.9043 17.605 28.032C17.6651 28.1632 17.7145 28.3006 17.7526 28.4424C17.6776 28.3218 17.6123 28.1936 17.5575 28.0593C17.4829 27.9073 17.4151 27.7511 17.3544 27.5911C17.2806 27.4087 17.1909 27.199 17.1144 26.9588C16.9186 26.4018 16.7565 25.8299 16.6291 25.2472C16.4748 24.5319 16.3673 23.8043 16.3074 23.0704C16.2537 22.3373 16.2484 21.6004 16.2916 20.8663C16.3284 20.2665 16.4006 19.6703 16.5078 19.0818C16.5474 18.8294 16.6028 18.6075 16.6476 18.4099C16.6924 18.2123 16.7346 18.0451 16.7742 17.9083C16.8092 17.7655 16.8541 17.6262 16.9087 17.4918Z" fill="#434343"/>
<path d="M34.328 2.64978C34.3078 2.65198 34.2875 2.65198 34.2673 2.64978L34.0906 2.67106C33.9324 2.6893 33.7003 2.69538 33.4023 2.73491C32.5614 2.82898 31.727 2.98844 30.9047 3.21221C26.652 4.33495 22.9009 7.20829 20.3555 11.2929C19.1257 13.2558 18.1947 15.4455 17.6021 17.7684C17.5098 18.0968 17.4597 18.3582 17.4149 18.5315L17.3648 18.7321C17.36 18.7553 17.353 18.7778 17.3437 18.799C17.3402 18.7759 17.3402 18.7522 17.3437 18.7291C17.3437 18.6744 17.3648 18.6075 17.3806 18.5254C17.4175 18.3491 17.4571 18.0846 17.5415 17.7502C17.7616 16.8057 18.0437 15.8819 18.3854 14.9867C19.5127 12.0119 21.2289 9.38286 23.3963 7.31032C25.573 5.2534 28.1372 3.81243 30.8836 3.10276C31.7107 2.88614 32.5509 2.74283 33.397 2.6741C33.6976 2.6437 33.9244 2.64674 34.088 2.63762H34.2673C34.3095 2.6437 34.328 2.64674 34.328 2.64978Z" fill="white"/>
<path d="M17.7738 26.0528C17.6682 25.8646 17.5864 25.6598 17.5312 25.4448C17.2184 24.4288 17.0726 23.3545 17.1013 22.277C17.0938 22.0533 17.1169 21.8296 17.1699 21.6142C17.2121 21.6142 17.1541 22.6296 17.3229 23.8578C17.4917 25.0861 17.8134 26.0346 17.7738 26.0528Z" fill="white"/>
<path d="M13.3352 24.4811C13.3352 24.4811 13.2745 24.4324 13.1927 24.3169C13.0762 24.1532 12.9762 23.9747 12.8947 23.7849C12.6131 23.1564 12.5053 22.4436 12.586 21.7423C12.6666 21.0411 12.9318 20.3852 13.3457 19.8631C13.467 19.7031 13.6042 19.5603 13.7545 19.4375C13.8061 19.3874 13.8651 19.3483 13.9286 19.3219C13.9444 19.3463 13.707 19.5317 13.4196 19.93C13.0423 20.4508 12.8009 21.0843 12.7234 21.757C12.6459 22.4296 12.7355 23.1138 12.9818 23.7301C13.1664 24.2135 13.3536 24.4628 13.3352 24.4811Z" fill="white"/>
<path d="M60.4346 20.7934C60.4056 20.8299 59.9968 20.3769 59.3797 20.0364C58.7626 19.6959 58.2008 19.5956 58.2061 19.5469C58.636 19.5346 59.0611 19.6542 59.4377 19.8935C59.8342 20.0847 60.1786 20.3955 60.4346 20.7934Z" fill="white"/>
<path d="M44.685 15.3697C44.685 15.4123 41.4464 15.4488 37.4535 15.4488C33.4606 15.4488 30.2194 15.4123 30.2194 15.3697C30.2194 15.3272 33.458 15.2907 37.4535 15.2907C41.449 15.2907 44.685 15.3211 44.685 15.3697Z" fill="white"/>
<path d="M32.3424 34.3798C32.3028 34.3926 32.2621 34.3998 32.221 34.4011L31.8676 34.4375C31.7147 34.4527 31.5274 34.4649 31.3085 34.471C31.0896 34.4771 30.8417 34.4892 30.5674 34.471C30.0162 34.471 29.3622 34.4254 28.6369 34.3372C27.8521 34.2319 27.0729 34.0767 26.3029 33.8721C25.5348 33.6597 24.7775 33.3978 24.0348 33.0877C23.4297 32.8323 22.8364 32.541 22.2573 32.2152C21.9936 32.0814 21.7905 31.9416 21.598 31.823C21.4054 31.7044 21.2419 31.598 21.1101 31.519L20.8068 31.3062C20.7708 31.2832 20.7372 31.2557 20.7065 31.2241C20.7065 31.2241 20.7487 31.2241 20.8199 31.2788L21.1364 31.4643C21.2709 31.5494 21.4371 31.6497 21.6322 31.7683C21.8274 31.8869 22.0489 32.0085 22.2995 32.1361C22.7953 32.4037 23.3992 32.6895 24.0797 32.9722C25.5585 33.5834 27.0927 33.9995 28.6528 34.2126C29.3701 34.3099 30.0215 34.3646 30.5674 34.3798C30.8312 34.398 31.0949 34.3798 31.3085 34.3798C31.5221 34.3798 31.712 34.3798 31.865 34.3798H32.2184C32.2594 34.3719 32.3013 34.3719 32.3424 34.3798Z" fill="white"/>
<path d="M77.4 26.85H74.7V31.5H69.75V14H77.75C79.3333 14 80.7083 14.2667 81.875 14.8C83.0417 15.3167 83.9417 16.0667 84.575 17.05C85.2083 18.0167 85.525 19.1583 85.525 20.475C85.525 21.7417 85.225 22.85 84.625 23.8C84.0417 24.7333 83.2 25.4667 82.1 26L85.875 31.5H80.575L77.4 26.85ZM80.525 20.475C80.525 19.6583 80.2667 19.025 79.75 18.575C79.2333 18.125 78.4667 17.9 77.45 17.9H74.7V23.025H77.45C78.4667 23.025 79.2333 22.8083 79.75 22.375C80.2667 21.925 80.525 21.2917 80.525 20.475ZM99.9809 28.1H92.5809L91.2059 31.5H86.1559L93.8809 14H98.7559L106.506 31.5H101.356L99.9809 28.1ZM98.5309 24.45L96.2809 18.85L94.0309 24.45H98.5309ZM106.676 22.55H113.976V26.2H106.676V22.55ZM122.268 18.125C124.101 18.125 125.501 18.575 126.468 19.475C127.451 20.375 127.943 21.7167 127.943 23.5V31.5H125.668V29.75C125.268 30.3667 124.693 30.8417 123.943 31.175C123.21 31.4917 122.335 31.65 121.318 31.65C119.835 31.65 118.643 31.2917 117.743 30.575C116.86 29.8583 116.418 28.9167 116.418 27.75C116.418 26.5833 116.843 25.65 117.693 24.95C118.543 24.2333 119.893 23.875 121.743 23.875H125.543V23.4C125.543 22.3667 125.243 21.575 124.643 21.025C124.043 20.475 123.16 20.2 121.993 20.2C121.21 20.2 120.443 20.3333 119.693 20.6C118.943 20.85 118.31 21.1917 117.793 21.625L116.793 19.825C117.476 19.275 118.293 18.8583 119.243 18.575C120.193 18.275 121.201 18.125 122.268 18.125ZM121.718 29.8C122.635 29.8 123.426 29.6 124.093 29.2C124.76 28.7833 125.243 28.2 125.543 27.45V25.6H121.843C119.81 25.6 118.793 26.2833 118.793 27.65C118.793 28.3167 119.051 28.8417 119.568 29.225C120.085 29.6083 120.801 29.8 121.718 29.8ZM152.19 18.25L147.24 31.5H144.94L141.115 21.45L137.24 31.5H134.94L130.015 18.25H132.29L136.14 28.8L140.14 18.25H142.165L146.09 28.85L150.04 18.25H152.19ZM167.551 22.375C168.551 22.725 169.334 23.275 169.901 24.025C170.467 24.7583 170.751 25.65 170.751 26.7C170.751 28.2333 170.134 29.4167 168.901 30.25C167.667 31.0833 165.884 31.5 163.551 31.5H154.101V14H163.051C165.284 14 166.984 14.4167 168.151 15.25C169.317 16.0667 169.901 17.175 169.901 18.575C169.901 19.4083 169.692 20.1583 169.276 20.825C168.876 21.475 168.301 21.9917 167.551 22.375ZM159.001 17.575V20.95H162.401C164.067 20.95 164.901 20.3833 164.901 19.25C164.901 18.1333 164.067 17.575 162.401 17.575H159.001ZM163.151 27.925C164.884 27.925 165.751 27.3333 165.751 26.15C165.751 24.9667 164.884 24.375 163.151 24.375H159.001V27.925H163.151ZM182.139 31.85C180.289 31.85 178.623 31.4583 177.139 30.675C175.673 29.8917 174.514 28.8083 173.664 27.425C172.831 26.0417 172.414 24.4833 172.414 22.75C172.414 21.0167 172.831 19.4583 173.664 18.075C174.514 16.6917 175.673 15.6083 177.139 14.825C178.623 14.0417 180.289 13.65 182.139 13.65C183.989 13.65 185.648 14.0417 187.114 14.825C188.598 15.6083 189.756 16.6917 190.589 18.075C191.439 19.4583 191.864 21.0167 191.864 22.75C191.864 24.4833 191.439 26.0417 190.589 27.425C189.756 28.8083 188.598 29.8917 187.114 30.675C185.648 31.4583 183.989 31.85 182.139 31.85ZM182.139 27.75C183.023 27.75 183.823 27.5417 184.539 27.125C185.256 26.7083 185.823 26.125 186.239 25.375C186.656 24.6083 186.864 23.7333 186.864 22.75C186.864 21.7667 186.656 20.9 186.239 20.15C185.823 19.3833 185.256 18.7917 184.539 18.375C183.823 17.9583 183.023 17.75 182.139 17.75C181.256 17.75 180.456 17.9583 179.739 18.375C179.023 18.7917 178.456 19.3833 178.039 20.15C177.623 20.9 177.414 21.7667 177.414 22.75C177.414 23.7333 177.623 24.6083 178.039 25.375C178.456 26.125 179.023 26.7083 179.739 27.125C180.456 27.5417 181.256 27.75 182.139 27.75ZM197.938 17.925H192.563V14H208.238V17.925H202.888V31.5H197.938V17.925Z" fill="#E0D4EF"/>
</svg>
