<svg width="65" height="50" viewBox="0 0 65 50" fill="none" xmlns="http://www.w3.org/2000/svg">
<rect width="65" height="50" rx="14" fill="#9964DB"/>
<path d="M17.0312 17.5714H43.8438C44.4135 17.5714 44.875 17.1559 44.875 16.6429V12.9286C44.875 12.4155 44.4135 12 43.8438 12H17.0312C16.4615 12 16 12.4155 16 12.9286V16.6429C16 17.1559 16.4615 17.5714 17.0312 17.5714ZM47.9688 22.2143H21.1562C20.5865 22.2143 20.125 22.6298 20.125 23.1429V26.8571C20.125 27.3702 20.5865 27.7857 21.1562 27.7857H47.9688C48.5385 27.7857 49 27.3702 49 26.8571V23.1429C49 22.6298 48.5385 22.2143 47.9688 22.2143ZM43.8438 32.4286H17.0312C16.4615 32.4286 16 32.8441 16 33.3571V37.0714C16 37.5845 16.4615 38 17.0312 38H43.8438C44.4135 38 44.875 37.5845 44.875 37.0714V33.3571C44.875 32.8441 44.4135 32.4286 43.8438 32.4286Z" fill="white"/>
</svg>
