<svg width="437" height="297" viewBox="0 0 437 297" fill="none" xmlns="http://www.w3.org/2000/svg">
<path d="M167.29 0.145752C235.614 84.1237 319.182 136.14 433 160.095C399.499 194.316 338.913 260.91 305.408 294.857C160.558 275.214 60.1221 188.156 1.93408 70.5038C61.2051 43.3328 108.019 27.2488 167.29 0.145752Z" fill="#EBEBEB"/>
<path d="M167.29 0.14473C166.302 0.43773 165.345 0.804723 164.427 1.24072L155.761 4.93573L122.798 18.6247C94.168 30.6707 51.843 46.4117 1.315 69.2027L0 69.7507L0.619019 70.8457C11.428 92.6097 23.861 113.714 37.837 134.018C53.988 156.972 72.704 178.434 93.704 198.08C116.809 219.747 143.093 238.576 171.855 254.065C202.63 270.49 236.016 282.74 270.898 290.408C276.551 291.8 282.285 292.92 288.076 293.761L305.176 296.636H306.259L306.956 295.883C353.382 247.974 394.857 201.639 434.47 161.052L436.49 158.999L433.55 158.383C390.273 149.61 348.691 135.267 310.128 115.812C280.153 100.549 252.445 82.0407 227.644 60.7167C211.502 46.8777 196.358 32.1567 182.301 16.6397L171.236 4.11473L168.373 0.966721C167.754 0.281721 167.445 -0.0602712 167.367 0.00872875L168.296 1.24072L171.004 4.59372C173.403 7.53672 176.653 11.8487 181.45 17.3237C195.171 33.1417 210.087 48.1197 226.097 62.1537C250.85 83.7987 278.558 102.629 308.581 118.208C347.222 137.944 388.937 152.542 432.38 161.532L431.38 158.931C391.529 199.517 349.823 246.126 303.629 293.556L305.486 292.94L288.54 290.134C282.826 289.292 277.169 288.173 271.594 286.78C237.071 279.232 204.024 267.143 173.557 250.917C145.1 235.662 119.077 217.109 96.18 195.753C75.277 176.34 56.614 155.132 40.468 132.444C26.515 112.295 14.031 91.3767 3.09497 69.8187L2.39899 71.5297C52.617 48.5337 94.787 32.3817 123.262 19.9937C137.577 13.8337 148.565 8.90572 155.915 5.48372L164.117 1.44573L167.29 0.14473Z" fill="#263238"/>
<path d="M63.5259 107.052C83.3319 99.3478 102.607 90.6178 121.25 80.9068C140.516 72.1758 159.148 62.3928 177.039 51.6138C157.225 59.3008 137.949 68.0318 119.316 77.7588C100.05 86.4888 81.4169 96.2728 63.5259 107.052Z" fill="#263238"/>
<path d="M87.978 144.148C106.983 134.982 125.331 124.788 142.916 113.623C161.223 103.419 178.796 92.2177 195.533 80.0857C176.62 89.3667 158.375 99.6757 140.904 110.953C122.502 121.037 104.825 132.123 87.978 144.148Z" fill="#263238"/>
<path d="M127.053 181.106C132.442 178.227 137.474 174.855 142.065 171.045C151.118 164.612 163.653 155.783 177.581 146.201C191.509 136.619 204.121 127.585 212.787 120.672C217.747 117.211 222.193 113.209 226.019 108.763C220.648 111.644 215.596 114.967 210.93 118.687L175.105 143.395C161.099 153.045 148.796 162.216 140.208 169.129C135.287 172.631 130.869 176.654 127.053 181.106Z" fill="#263238"/>
<path d="M261.536 125.668C256.193 128.59 251.258 132.059 246.834 136.003C235.645 144.987 224.979 154.466 214.877 164.406C202.961 176.042 192.825 186.992 185.628 194.931C181.379 199.118 177.669 203.709 174.564 208.62C175.492 209.373 194.372 190.278 217.895 167.076C229.656 155.577 241.108 145.38 248.846 138.125C253.535 134.357 257.786 130.184 261.536 125.668Z" fill="#263238"/>
<path d="M294.188 143.189C289.551 146.199 285.365 149.718 281.73 153.661C274.457 160.505 264.785 170.361 254.88 181.722C244.976 193.084 236.619 203.829 230.971 211.768C227.545 215.991 224.762 220.593 222.692 225.457C223.697 226.004 238.167 206.772 258.053 184.392C277.939 162.011 295.117 143.874 294.188 143.189Z" fill="#263238"/>
<path d="M338.603 162.626C333.875 165.716 329.587 169.301 325.836 173.303C318.098 180.148 308.348 190.14 297.748 201.365C287.147 212.589 278.017 223.129 271.594 230.863C267.798 234.839 264.599 239.233 262.077 243.936C266.454 240.489 270.397 236.634 273.838 232.437L300.843 203.623C310.902 193.015 319.955 183.091 327.925 175.014C331.954 171.219 335.532 167.068 338.603 162.626Z" fill="#263238"/>
</svg>
