<svg width="364" height="252" viewBox="0 0 364 252" fill="none" xmlns="http://www.w3.org/2000/svg">
<path d="M329.189 88.442C219.504 90.527 128.403 64.619 43.9679 2.56104C34.1369 43.893 11.7159 121.675 1.81787 163.067C100.258 247.877 230.277 265.446 362.855 237.633C352.284 183.078 339.558 142.937 329.189 88.442Z" fill="#FAFAFA"/>
<path d="M329.189 88.442C329.189 88.442 329.189 89.276 329.862 91.003C330.536 92.73 330.872 95.47 331.613 98.805C333.162 105.773 335.451 115.719 338.346 128.584C344.272 154.372 354.775 191.238 364 237.573V238.645H362.788C338.425 243.763 313.704 247.444 288.79 249.664C260.255 251.884 231.542 251.584 203.075 248.77C171.781 245.602 141.101 238.772 111.839 228.461C80.595 217.349 51.426 202.13 25.317 183.317C20.93 180.387 16.748 177.224 12.793 173.847L0.740997 164.139L0 163.603V162.71C14.207 105.297 30.3 51.457 42.352 2.263L42.958 0L44.978 1.48901C76.795 25.199 112.365 44.662 150.556 59.259C180.366 70.569 211.644 78.571 243.677 83.082C264.502 85.929 285.504 87.659 306.565 88.264H323.466H327.708H329.189H327.64H323.264C319.426 88.264 313.905 88.561 306.633 88.264C285.492 88.056 264.391 86.584 243.475 83.856C211.212 79.681 179.675 71.917 149.613 60.748C111.051 46.222 75.115 26.757 42.958 2.978L45.584 2.20401C33.666 51.517 17.641 105.416 3.50101 162.71L3.03 161.281L14.948 170.929C18.92 174.145 22.96 177.361 27.337 180.279C53.204 198.884 82.072 213.96 112.984 225.007C141.957 235.256 172.344 242.046 203.344 245.197C231.575 248.105 260.065 248.504 288.386 246.388C313.301 244.291 338.04 240.789 362.451 235.906L361.509 237.157C352.688 190.94 342.521 153.777 337 128.107C334.104 115.184 332.152 105.118 330.872 98.329C330.266 95.053 329.862 92.373 329.526 90.586C329.363 89.879 329.25 89.163 329.189 88.442Z" fill="#263238"/>
<path d="M296.869 217.205C292.283 199.727 288.844 182.028 286.567 164.199C283.166 146.46 280.918 128.564 279.834 110.598C284.42 128.076 287.859 145.774 290.136 163.603C293.537 181.342 295.785 199.239 296.869 217.205Z" fill="#263238"/>
<path d="M251.824 222.207C249.046 204.436 247.405 186.541 246.908 168.606C245.248 150.779 244.776 132.881 245.494 115.005C248.281 132.775 249.922 150.671 250.41 168.606C252.027 186.435 252.499 204.331 251.824 222.207Z" fill="#263238"/>
<path d="M198.564 217.145C197.976 211.937 197.976 206.69 198.564 201.482C198.968 191.893 199.371 178.612 199.641 163.901C199.91 149.19 200.449 135.909 201.391 126.261C201.579 121.034 202.414 115.842 203.883 110.776C204.394 115.968 204.394 121.189 203.883 126.38C203.883 137.1 203.411 149.846 203.142 163.961C202.873 178.076 202.065 192.012 200.987 201.66C200.787 206.882 199.975 212.072 198.564 217.145Z" fill="#263238"/>
<path d="M169.678 96.78C170.187 101.963 170.006 107.18 169.139 112.325C167.804 124.796 165.759 137.199 163.012 149.488C159.915 163.901 156.279 176.765 153.72 186.116C152.591 191.206 150.923 196.192 148.737 201.005C148.962 195.797 149.82 190.626 151.296 185.58C153.653 175.157 156.481 162.71 159.578 148.893C162.675 135.076 165.099 121.556 166.648 112.086C167.158 106.917 168.171 101.796 169.678 96.78Z" fill="#263238"/>
<path d="M136.483 84.988C136.481 89.765 135.825 94.525 134.53 99.162C132.78 107.858 129.884 119.769 125.845 132.753C121.805 145.736 117.428 157.29 113.927 165.509C112.301 170.087 110.04 174.468 107.193 178.552C108.123 173.86 109.543 169.254 111.435 164.794C114.331 156.397 118.169 144.843 122.343 131.919C126.518 118.995 129.615 107.262 131.972 98.686C132.93 93.993 134.442 89.402 136.483 84.988Z" fill="#263238"/>
<path d="M95.0062 66.525C94.9662 71.399 94.3112 76.253 93.0532 80.998C91.3702 89.872 88.6092 102.081 85.1082 115.422C81.6072 128.763 77.8361 140.734 74.8741 149.31C73.6151 154.071 71.7402 158.687 69.2852 163.067C69.7712 158.218 70.8322 153.427 72.4502 148.774C75.1432 138.947 78.2402 127.393 81.6742 114.707C85.1082 102.021 88.0712 90.408 90.6292 80.581C91.5392 75.775 93.0062 71.065 95.0062 66.525Z" fill="#263238"/>
</svg>
