<svg width="294" height="207" viewBox="0 0 294 207" fill="none" xmlns="http://www.w3.org/2000/svg">
<path d="M243.279 13.3258C219.257 -2.57924 185.764 -2.98726 157.396 5.49574C129.027 13.9787 104.502 29.9657 80.2517 45.7897C56.0013 61.6137 30.8815 77.0718 2.00977 84.1678L69.3618 204.399C69.3618 204.399 133.877 181.805 176.979 138.247C211.845 103.01 291.367 119.038 291.367 119.038L243.279 13.3258Z" fill="#FAFAFA"/>
<path d="M243.852 13.8187C243.852 13.8187 244.22 14.3888 244.817 15.6108C245.414 16.8318 246.287 18.7058 247.39 20.9868L257.175 41.8798C265.628 60.1668 277.756 86.6808 292.779 119.263L293.376 120.607L291.768 120.322C274.235 117.22 256.317 116.179 238.477 117.227C228.676 117.89 218.987 119.502 209.581 122.033C199.711 124.756 190.6 129.294 182.843 135.351C179.03 138.487 175.309 141.989 171.542 145.614C167.775 149.239 163.686 152.538 159.552 155.918C150.997 162.673 142.008 168.982 132.63 174.816C112.92 187.067 91.809 197.442 69.6459 205.769L68.6812 206.176L68.1758 205.28C65.3734 200.352 62.3872 195.017 59.4011 189.682C38.6819 153.026 18.7897 117.553 0.5973 85.1738L0 84.1148L1.3324 83.7888C19.4155 78.9368 36.5856 71.7308 52.2804 62.4068C67.5326 53.7318 81.315 44.4458 94.729 36.0968C107.187 28.0568 120.266 20.8028 133.871 14.3888C145.558 8.83375 158.047 4.72276 170.991 2.16976C181.55 0.15776 192.386 -0.46021 203.149 0.33779C211.14 0.95679 218.995 2.5598 226.487 5.1028C231.148 6.6868 235.613 8.6928 239.81 11.0898L242.934 13.0858C243.623 13.5338 243.99 13.7777 243.944 13.8187C238.417 10.4917 232.464 7.75775 226.211 5.67275C218.81 3.30475 211.085 1.82576 203.241 1.27376C192.617 0.596764 181.938 1.29577 171.542 3.35177C158.725 5.93477 146.362 10.0458 134.79 15.5698C121.298 21.9928 108.34 29.2607 96.016 37.3187C82.693 45.7087 68.9108 55.0348 53.5667 63.8328C37.7429 73.3188 20.397 80.6368 2.1133 85.5398L2.8025 84.1148L61.5145 188.582C64.5465 193.917 67.5327 199.212 70.2891 204.181L68.773 203.651C90.752 195.416 111.706 185.179 131.298 173.105C140.612 167.324 149.539 161.068 158.035 154.37C162.124 151.031 166.167 147.691 169.934 144.188C173.701 140.686 177.331 137.143 181.373 133.844C189.383 127.636 198.774 122.988 208.938 120.2C218.512 117.656 228.371 116.044 238.339 115.394C256.377 114.415 274.48 115.552 292.182 118.774L291.171 119.793C276.47 87.2098 264.617 60.8188 256.348 42.4098C252.305 33.3268 249.181 26.1178 247.16 21.3528C246.149 18.9908 245.368 17.2808 244.771 15.8138C244.174 14.3478 243.852 13.8187 243.852 13.8187Z" fill="#263238"/>
<path d="M202.983 21.3306C203.583 21.1276 212.63 38.2416 223.153 59.5626C233.677 80.8836 241.616 98.4417 241.108 98.6447C233.656 86.2057 226.924 73.4456 220.938 60.4116C210.414 39.0506 202.383 21.5726 202.983 21.3306Z" fill="#263238"/>
<path d="M173.814 23.9949C182.076 35.8019 189.634 47.9839 196.458 60.4899C208.376 80.7649 217.544 97.5129 216.994 97.7559C208.736 85.9459 201.178 73.7639 194.35 61.2599C186.796 49.1539 179.942 36.7159 173.814 23.9949Z" fill="#263238"/>
<path d="M151.711 31.9927C154.143 35.3617 156.266 38.8997 158.059 42.5727C161.759 49.1647 166.965 58.2387 172.902 68.1677C178.839 78.0967 184.502 86.9677 188.612 93.3967C191.009 96.7767 193.116 100.314 194.914 103.977C191.984 100.935 189.384 97.6507 187.15 94.1697C182.584 87.9437 176.784 79.1547 170.801 69.1857C164.818 59.2157 159.886 49.9787 156.552 43.1827C154.51 39.6117 152.888 35.8617 151.711 31.9927Z" fill="#263238"/>
</svg>
