<svg width="780" height="370" viewBox="0 0 780 370" fill="none" xmlns="http://www.w3.org/2000/svg">
<path d="M780.001 360.207C779.431 362.959 777.934 365.433 775.76 367.215C773.587 368.997 770.867 369.98 768.056 370H11.292C8.84241 369.985 6.45432 369.231 4.43978 367.838C2.42523 366.445 0.877919 364.476 0 362.19C34.3459 353.488 125.462 346.441 243.567 343.153C250.144 342.962 256.804 342.792 263.547 342.644H264.797C266.39 342.604 268.062 342.58 269.702 342.532C276.864 342.378 284.111 342.232 291.442 342.094L293.975 342.047L302.655 341.895L305.744 341.848C311.844 341.752 317.997 341.667 324.203 341.593C343.865 341.354 364.02 341.211 384.518 341.187H402.467C408.142 341.187 413.791 341.187 419.413 341.187L436.343 341.298C470.673 341.529 503.745 342.094 535.025 342.891L547.368 343.233C553.277 343.392 559.117 343.567 564.887 343.758C664.604 346.943 742.781 352.89 780.001 360.207Z" fill="#3F3D56"/>
<path d="M768 9C768 13.9664 758.209 18 746.149 18H206.851C194.791 18 185 13.9664 185 9C185 4.02545 194.791 0 206.851 0H746.149C758.209 0 768 4.02545 768 9Z" fill="#3F3D56"/>
<path d="M437.404 81.9023H409.644V129.792H437.404V81.9023Z" fill="#3F3D56"/>
<path opacity="0.1" d="M437.404 81.9023H409.644V129.792H437.404V81.9023Z" fill="black"/>
<path d="M546.317 122.256C547.973 121.261 550.028 121.325 551.963 121.46C553.122 121.424 554.272 121.67 555.315 122.177C557.306 123.379 557.609 126.094 557.704 128.419C557.8 131.189 557.8 134.263 555.953 136.38C554.487 138.028 552.202 138.633 550.028 139.016C548.498 139.177 546.998 139.558 545.576 140.146C544.167 140.971 542.867 141.968 541.706 143.116C539.118 145.321 535.678 147.487 532.286 148.02C530.008 143.426 529.419 139.024 532.978 135.075C534.945 132.893 537.486 131.213 539.62 129.191C541.754 127.169 543.713 123.825 546.317 122.256Z" fill="#A0616A"/>
<path d="M415.575 355.199C415.183 356.156 414.993 357.183 415.018 358.217C415.241 360.605 417.606 362.11 419.796 363.105C422.726 364.451 426.421 365.438 428.97 363.456C431.804 361.25 431.359 356.935 432.465 353.511C433.118 351.513 434.345 349.754 435.149 347.811C437.355 342.485 436.192 336.426 434.998 330.789L433.254 322.58C433.181 321.929 432.902 321.318 432.457 320.837C431.175 319.714 425.163 319.308 423.634 320.375C421.189 322.071 421.779 327.795 421.388 330.486C420.188 338.88 418.242 347.15 415.575 355.199Z" fill="#575A89"/>
<path d="M406.337 355.199C406.726 356.157 406.915 357.184 406.895 358.217C406.672 360.605 404.307 362.11 402.117 363.105C399.186 364.451 395.483 365.438 392.943 363.456C390.108 361.25 390.554 356.935 389.439 353.511C388.794 351.513 387.568 349.754 386.763 347.811C384.55 342.485 385.72 336.426 386.915 330.789L388.659 322.58C388.732 321.929 389.011 321.318 389.455 320.837C390.737 319.714 396.75 319.308 398.278 320.375C400.715 322.071 400.126 327.795 400.516 330.486C401.719 338.88 403.667 347.151 406.337 355.199V355.199Z" fill="#575A89"/>
<path d="M426.303 107.77C426.75 108.23 427.071 108.797 427.234 109.418C427.521 110.915 426.127 112.236 424.702 112.778C423.277 113.319 421.684 113.446 420.394 114.266C419.071 115.256 418.113 116.656 417.67 118.247C414.963 125.859 417.981 135.453 425.164 139.155C430.117 141.71 436.01 141.312 441.568 140.851C442.348 140.833 443.118 140.671 443.838 140.373C444.568 139.956 445.199 139.386 445.685 138.701C448.803 134.752 450.962 130.135 451.996 125.212C453.029 120.289 452.908 115.194 451.642 110.325C451.561 109.919 451.401 109.532 451.172 109.187C449.739 107.22 446.283 109.641 444.252 108.303C443.629 107.809 443.162 107.146 442.906 106.392C441.512 103.121 440.551 99.6818 440.047 96.1616C439.984 95.7317 430.937 99.195 430.165 99.5772C427.083 101.17 426.924 99.7046 424.638 102.308C427.091 102.993 424.272 105.429 426.303 107.77Z" fill="#A0616A"/>
<path opacity="0.1" d="M426.303 107.77C426.75 108.23 427.071 108.797 427.234 109.418C427.521 110.915 426.127 112.236 424.702 112.778C423.277 113.319 421.684 113.446 420.394 114.266C419.071 115.256 418.113 116.656 417.67 118.247C414.963 125.859 417.981 135.453 425.164 139.155C430.117 141.71 436.01 141.312 441.568 140.851C442.348 140.833 443.118 140.671 443.838 140.373C444.568 139.956 445.199 139.386 445.685 138.701C448.803 134.752 450.962 130.135 451.996 125.212C453.029 120.289 452.908 115.194 451.642 110.325C451.561 109.919 451.401 109.532 451.172 109.187C449.739 107.22 446.283 109.641 444.252 108.303C443.629 107.809 443.162 107.146 442.906 106.392C441.512 103.121 440.551 99.6818 440.047 96.1616C439.984 95.7317 430.937 99.195 430.165 99.5772C427.083 101.17 426.924 99.7046 424.638 102.308C427.091 102.993 424.272 105.429 426.303 107.77Z" fill="black"/>
<path d="M394.751 203.88C395.282 209.007 395.656 214.145 395.874 219.293C396.105 224.238 396.2 229.301 394.695 234.015C393.899 236.658 392.537 239.126 391.829 241.801C391.032 244.946 391.032 248.242 391.072 251.498C391.015 253.371 391.192 255.243 391.598 257.072C392.036 258.736 392.848 260.256 393.445 261.849C395.595 267.557 395.101 273.887 394.361 279.938C392.967 291.323 390.793 302.596 388.619 313.854L384.693 334.268C388.972 336.028 393.424 337.333 397.976 338.161C400.795 338.671 404.474 338.575 405.597 335.932C405.968 334.722 406.025 333.437 405.764 332.198C405.14 326.525 405.799 320.784 407.691 315.399C409.236 311.028 411.57 306.944 412.756 302.461C413.434 299.634 413.845 296.75 413.983 293.847C414.349 288.751 414.503 283.648 414.444 278.536C414.365 271.641 413.927 264.579 415.989 257.995C418.689 249.381 425.601 241.706 424.797 232.709C424.964 242.621 425.139 252.541 424.47 262.43C424.053 266.524 423.893 270.64 423.992 274.754C424.327 280.781 426.071 286.864 424.789 292.772C424.263 295.16 423.26 297.469 422.997 299.937C422.583 303.775 424.032 307.803 422.75 311.45C421.643 314.635 418.561 317.15 418.657 320.502C418.721 323.01 420.672 325.152 422.949 326.211C425.227 327.27 427.791 327.445 430.291 327.604C432.999 327.779 436.28 327.668 437.642 325.319C439.306 322.461 436.67 319.085 436.176 315.821C435.683 312.557 437.427 309.372 438.987 306.442C447.792 289.897 452.623 271.531 453.098 252.796C453.234 247.135 452.971 241.467 453.003 235.806C453.065 222.815 454.669 209.877 457.781 197.263C436.463 196.451 414.866 196.65 394.751 203.88Z" fill="#3C354C"/>
<path d="M428.7 107.762C437.571 107.762 444.762 100.572 444.762 91.703C444.762 82.834 437.571 75.6443 428.7 75.6443C419.829 75.6443 412.638 82.834 412.638 91.703C412.638 100.572 419.829 107.762 428.7 107.762Z" fill="#A0616A"/>
<path d="M439.393 122.137C434.48 131.922 429.487 141.922 427.886 152.766C426.445 162.542 427.831 172.55 426.644 182.359C425.123 194.954 419.421 207.773 423.291 219.859C424.151 222.558 425.465 225.089 426.381 227.765C430.363 239.516 426.381 252.613 428.953 264.762C428.978 265.073 429.073 265.373 429.232 265.641C429.391 265.909 429.609 266.137 429.869 266.307C430.546 266.602 431.287 266.108 431.995 265.885C435.061 264.906 437.172 268.799 439.6 270.917C440.819 271.948 442.313 272.6 443.898 272.792C445.483 272.985 447.089 272.709 448.519 272C453.066 269.659 454.277 263.831 454.89 258.759C457.943 234.503 459.801 210.132 460.464 185.647C460.616 180.074 460.695 174.501 459.779 169.007C458.673 162.343 456.124 156.006 454.755 149.398C452.557 138.761 453.473 127.766 454.07 116.922C454.237 113.737 453.345 104.565 447.938 107.559C443.781 109.86 441.408 118.132 439.393 122.137Z" fill="#575A89"/>
<path d="M413.64 149.095C413.592 152.567 413.528 156.102 412.461 159.406C411.394 162.71 409.347 165.632 407.683 168.729C403.701 176.292 402.26 184.955 402.061 193.49C401.862 202.025 402.857 210.544 403.518 219.055C404.52 232.004 404.746 245.002 404.195 257.979C409.524 256.117 415.285 255.876 420.751 257.287C423.936 258.123 427.727 259.396 430.219 257.231C431.995 255.686 432.21 253.051 432.298 250.694C433.137 226.762 433.402 202.818 433.094 178.864C432.984 175.728 433.069 172.587 433.349 169.461C433.74 167.056 434.006 164.633 434.145 162.2C434.145 158.777 433.237 155.425 432.306 152.137L423.904 122.368C423.347 120.401 422.758 118.387 421.396 116.85C420.034 115.314 415.917 113.308 414.317 115.298C412.939 117.01 413.966 122.909 413.934 125.019L413.64 149.095Z" fill="#575A89"/>
<path d="M417.032 112.623C412.692 113.061 409.356 116.803 407.66 120.815C405.963 124.828 405.47 129.239 404.18 133.395C401.926 140.6 397.251 147.097 396.495 154.605C395.794 161.691 398.693 168.88 397.291 175.854C396.855 177.724 396.293 179.562 395.611 181.356C392.903 189.278 391.359 197.542 389.814 205.774L387.52 218.027C385.928 226.666 384.279 235.543 385.76 244.198C387.296 243.094 389.167 242.557 391.055 242.677C392.942 242.797 394.73 243.568 396.113 244.858C396.909 245.599 397.57 246.538 398.613 246.697C400.405 246.952 401.504 244.819 401.974 243.075C403.665 236.848 404.797 230.483 405.358 224.054C405.661 220.567 405.804 217.032 406.831 213.704C407.484 211.61 408.424 209.644 409.141 207.566C410.733 202.653 410.518 197.367 411.179 192.248C411.745 187.813 412.963 183.49 413.656 179.079C414.37 173.706 414.687 168.288 414.604 162.869L414.914 131.683C414.954 127.646 415.225 123.084 418.299 120.473C419.891 119.143 424.024 117.917 423.642 115.417C423.268 113.069 418.816 112.448 417.032 112.623Z" fill="#FF6584"/>
<path d="M442.69 109.748C447.341 106.253 452.477 102.583 458.299 102.726C460.227 102.845 462.137 103.176 463.992 103.713L477.164 107.002C475.852 109.249 473.897 111.052 471.55 112.177C473.686 111.809 475.884 112.179 477.782 113.225C479.681 114.271 481.167 115.931 481.997 117.933C483.837 122.758 481.416 128.044 479.274 132.75C475.611 140.783 472.569 149.334 472.601 158.171C472.601 162.654 469.503 167.088 469.2 171.563C468.98 174.366 469.212 177.185 469.885 179.915C470.689 182.576 471.69 185.173 472.88 187.685C480.946 206.618 482.778 227.677 481.886 248.242H463.905C462.911 248.182 461.914 248.309 460.966 248.616C459.836 249.054 458.983 249.978 457.98 250.662C456.254 251.832 454.136 252.272 452.087 251.888C450.168 243.131 453.202 234.229 454.699 225.424C455.451 220.6 455.932 215.739 456.141 210.862C456.56 203.134 456.772 195.392 456.778 187.638C456.778 181.778 456.634 175.799 454.699 170.273C453.744 167.534 452.358 164.947 451.458 162.184C450.65 159.413 450.09 156.575 449.786 153.705C447.779 138.904 444.697 124.533 442.69 109.748Z" fill="#FF6584"/>
<path d="M404.251 122.137C402.897 123.124 402.499 124.923 401.902 126.492C400.405 130.425 397.227 133.45 395.141 137.097C393.944 139.343 392.952 141.694 392.178 144.119C389.415 152.001 386.604 160.226 387.592 168.514C387.815 170.369 388.284 172.311 389.598 173.641C392.473 176.531 397.785 174.748 400.006 171.324C402.228 167.901 402.356 163.601 402.802 159.557C403.646 151.85 405.883 144.43 407.58 136.866C408.503 133.072 409.173 129.22 409.586 125.337C409.706 124.143 410.383 121.484 409.252 120.728C408.543 120.25 404.912 121.691 404.251 122.137Z" fill="#FF6584"/>
<path d="M492.071 143.371C494.054 145.759 496.467 148.283 499.541 148.203C501.064 148.04 502.534 147.549 503.849 146.762C514.178 141.609 524.921 137.329 535.965 133.968C534.735 136.796 534.411 139.935 535.037 142.954C535.663 145.973 537.208 148.725 539.461 150.831C530.143 153.213 521.175 156.8 512.784 161.499C511.003 162.418 509.351 163.566 507.87 164.915C506.917 166.023 505.89 167.066 504.796 168.036C502.36 169.899 499.055 170.026 495.981 170.074C494.169 170.305 492.33 170.148 490.583 169.614C488.837 169.08 487.224 168.181 485.852 166.977L463.857 151.253C463.502 151.102 463.19 150.866 462.949 150.566C462.707 150.266 462.542 149.911 462.47 149.533C462.398 149.155 462.419 148.764 462.534 148.396C462.648 148.028 462.851 147.694 463.124 147.423L470.084 135.011C471.677 132.2 473.469 127.551 477.203 127.049C480.938 126.548 482.308 130.56 484.076 133.188C486.55 136.727 489.219 140.127 492.071 143.371V143.371Z" fill="#FF6584"/>
<path d="M393.624 116.965L386.026 119.968C384.349 120.63 383.527 122.527 384.19 124.203L392.996 146.475C393.659 148.152 395.556 148.973 397.233 148.311L404.831 145.307C406.508 144.645 407.33 142.748 406.667 141.072L397.86 118.8C397.198 117.124 395.301 116.302 393.624 116.965Z" fill="#3F3D56"/>
<path d="M388.946 146.094C387.958 144.867 386.724 143.848 385.856 142.543C384.832 140.793 384.212 138.838 384.04 136.818C383.728 134.615 383.555 132.395 383.523 130.17C383.518 129.875 383.581 129.583 383.707 129.316C383.833 129.048 384.018 128.814 384.249 128.629C384.479 128.445 384.749 128.316 385.037 128.252C385.326 128.187 385.625 128.19 385.912 128.259C389.088 129.012 391.95 130.738 394.098 133.196C396.719 136.287 398.399 140.063 398.94 144.079C399.211 146.141 399.362 148.218 399.394 150.297L399.68 158.824C397.602 158.824 394.576 159.405 392.585 158.824C389.726 158.028 390.881 158.53 391.167 155.719C391.494 152.216 391.255 148.96 388.946 146.094Z" fill="#A0616A"/>
<path d="M394.56 155.21C393.417 155.31 392.265 155.153 391.192 154.748C389.01 153.832 387.759 151.563 386.676 149.469C386.858 154.043 386.623 158.624 385.976 163.156C385.561 165.544 384.916 167.933 384.972 170.377C385.06 173.473 386.278 176.429 388.396 178.689C388.975 179.35 389.693 179.875 390.499 180.225C392.219 180.902 394.178 180.273 395.754 179.318C398.044 177.928 399.862 175.88 400.97 173.442C402.563 169.907 402.483 166.014 402.563 162.224C402.643 158.681 403.782 154.963 403.718 151.563C400.963 151.237 397.913 155.035 394.56 155.21Z" fill="#FF6584"/>
<path d="M410.337 86.0663C413.137 87.5435 416.222 88.3993 419.383 88.5752C422.544 88.7511 425.706 88.2429 428.652 87.0854C427.721 91.1538 429.855 95.2143 430.962 99.2429C433.876 109.856 429.369 121.384 422.202 129.72C425.524 130.052 428.877 129.634 432.015 128.497C435.154 127.361 437.997 125.534 440.335 123.152C438.295 128.631 435.261 133.687 431.384 138.064C445.168 133.773 455.011 120.994 459.431 107.252C462.807 96.727 463.412 84.9118 458.81 74.8722C454.207 64.8325 443.631 57.1654 432.618 58.073C424.583 58.7338 417.233 63.8611 413.148 70.8117C409.063 77.7622 408.131 86.2733 409.787 94.235L410.337 86.0663Z" fill="#3F3D56"/>
<path opacity="0.1" d="M430.993 99.2427C432.449 104.987 432.096 111.04 429.982 116.575C432.825 110.206 433.916 103.184 432.084 96.5198C430.978 92.4912 428.835 88.4308 429.767 84.3624C426.821 85.5209 423.659 86.0296 420.498 85.8538C417.337 85.6779 414.251 84.8215 411.452 83.3433L411.229 86.5279C413.953 87.8202 416.913 88.5393 419.927 88.6407C422.941 88.742 425.943 88.2235 428.748 87.1171C427.752 91.1537 429.887 95.2141 430.993 99.2427Z" fill="black"/>
<path opacity="0.1" d="M411.865 73.3513C408.977 79.9165 408.249 87.2293 409.787 94.2348L410.273 87.4037C409.803 82.6597 410.346 77.8699 411.865 73.3513Z" fill="black"/>
<path opacity="0.1" d="M441.457 120.429C439.237 122.684 436.564 124.442 433.614 125.588C430.664 126.734 427.504 127.242 424.344 127.077C423.667 127.992 422.966 128.876 422.233 129.72C425.54 130.049 428.879 129.635 432.005 128.509C435.131 127.382 437.966 125.571 440.302 123.207C440.716 122.292 441.107 121.368 441.457 120.429Z" fill="black"/>
<path opacity="0.1" d="M441.671 121.611C439.451 123.866 436.777 125.625 433.828 126.771C430.878 127.917 427.718 128.424 424.558 128.259C423.881 129.175 423.18 130.059 422.447 130.903C425.754 131.232 429.093 130.818 432.219 129.691C435.345 128.564 438.18 126.753 440.516 124.39C440.93 123.474 441.32 122.551 441.671 121.611Z" fill="black"/>
<path opacity="0.1" d="M434.035 134.839C433.239 135.962 432.339 137.045 431.416 138.088C444.388 134.051 453.872 122.491 458.618 109.688C453.8 120.859 445.32 130.707 434.035 134.839Z" fill="black"/>
<path d="M555.17 34.4702V1H547V353.234C547 355.559 547.43 357.789 548.197 359.433C548.963 361.076 550.002 362 551.085 362C552.169 362 553.208 361.076 553.974 359.433C554.74 357.789 555.17 355.559 555.17 353.234V52.0022H575.225V76.8259C568.102 77.7822 562.598 84.1336 562.598 91.8477C562.598 98.9402 567.277 104.909 573.587 106.543C574.747 106.84 575.914 106.989 577.082 106.989C585.081 106.989 591.566 100.199 591.566 91.8477C591.566 86.1099 588.52 81.1213 584.027 78.5552C582.361 77.6226 580.657 77.0434 578.939 76.8259V52.0022H619.79V76.8259C618.644 76.979 617.503 77.2851 616.374 77.7424C610.981 79.9498 607.164 85.4326 607.164 91.8477C607.166 93.0818 607.305 94.297 607.568 95.3939C609.095 102.04 614.818 106.989 621.647 106.989C629.647 106.989 636.131 100.199 636.131 91.8477C636.131 84.1336 630.627 77.7822 623.504 76.8259V52.0022H656V34.4702H555.17ZM633.16 91.8477C633.16 98.4859 628.005 103.873 621.647 103.873C615.289 103.873 610.135 98.4859 610.135 91.8477C610.134 91.208 610.183 90.5725 610.279 89.967C610.673 87.3053 611.899 84.9465 613.663 83.1853C615.766 81.2016 618.025 80.0851 620.322 79.894H622.973C628.707 80.5714 633.16 85.6716 633.16 91.8477ZM582.938 81.4879C586.325 83.5997 588.595 87.4487 588.595 91.8477C588.595 98.4859 583.44 103.873 577.082 103.873C576.279 103.876 575.477 103.788 574.679 103.61C569.48 102.463 565.569 97.6332 565.569 91.8477C565.569 85.6716 570.026 80.5714 575.756 79.894H578.408C579.94 80.0627 581.46 80.5918 582.938 81.4719V81.4879Z" fill="#3F3D56"/>
<path d="M298.356 174.991H295.553V260.556H298.356V174.991Z" fill="#575A89"/>
<path d="M307.068 174.991H304.257V260.556H307.068V174.991Z" fill="#575A89"/>
<path d="M289.349 348.612C291.997 348.612 294.143 346.466 294.143 343.819C294.143 341.172 291.997 339.026 289.349 339.026C286.701 339.026 284.555 341.172 284.555 343.819C284.555 346.466 286.701 348.612 289.349 348.612Z" fill="#575A89"/>
<path d="M272.371 256.599C272.371 256.599 277.149 252.713 281.346 254.059C285.542 255.404 296.476 256.75 298.387 263.613C300.299 270.476 298.387 345.977 298.387 345.977C298.387 345.977 289.118 348.365 286.578 347.171C284.037 345.977 284.332 334.623 284.332 334.623L283.591 267.657L272.371 256.599Z" fill="#6C63FF"/>
<path opacity="0.1" d="M272.371 256.599C272.371 256.599 277.149 252.713 281.346 254.059C285.542 255.404 296.476 256.75 298.387 263.613C300.299 270.476 298.387 345.977 298.387 345.977C298.387 345.977 289.118 348.365 286.578 347.171C284.037 345.977 284.332 334.623 284.332 334.623L283.591 267.657L272.371 256.599Z" fill="black"/>
<path d="M315.883 342.107L295.76 346.566L295.553 342.991L295.417 272.554C295.413 269.262 294.651 266.015 293.19 263.064C291.729 260.114 289.608 257.539 286.992 255.54C286.992 255.54 297.416 255.404 305.403 259.003C307.108 259.799 308.82 260.524 310.572 261.169C312.746 261.965 315.692 263.677 315.883 267.052C316.13 271.447 316.966 314.982 317.269 330.833C317.343 334.633 316.876 338.423 315.883 342.091V342.107Z" fill="#6C63FF"/>
<path d="M298.913 168.638H294.239V175.963H298.913V168.638Z" fill="#535461"/>
<path opacity="0.1" d="M298.913 168.638H294.239V175.963H298.913V168.638Z" fill="black"/>
<path d="M307.697 169.8H303.022V177.125H307.697V169.8Z" fill="#535461"/>
<path d="M307.697 169.816H303.022C302.15 169.839 301.302 170.108 300.575 170.591C299.848 171.074 299.272 171.752 298.913 172.547C298.85 172.69 298.786 172.834 298.722 172.993L297.695 171.998L295.553 169.928L294.239 168.662C294.239 168.662 302.871 164.243 307.697 169.816Z" fill="#535461"/>
<path d="M309.735 351.988C312.383 351.988 314.529 349.842 314.529 347.195C314.529 344.548 312.383 342.402 309.735 342.402C307.088 342.402 304.941 344.548 304.941 347.195C304.941 349.842 307.088 351.988 309.735 351.988Z" fill="#575A89"/>
<path d="M260.227 345.443C262.875 345.443 265.021 343.297 265.021 340.65C265.021 338.003 262.875 335.857 260.227 335.857C257.58 335.857 255.434 338.003 255.434 340.65C255.434 343.297 257.58 345.443 260.227 345.443Z" fill="#575A89"/>
<path d="M269.234 255.556C269.234 255.556 255.632 259.146 254.9 293.374C254.167 327.601 254 331.192 254 331.192C254 331.192 254.303 341.064 274.33 347.187H286.618L288.521 268.541C288.521 268.541 286.275 256.599 269.234 255.556Z" fill="#6C63FF"/>
<path opacity="0.1" d="M268.039 308.62C268.039 308.62 264.551 260.763 283.345 260.548L285.105 262.267C285.105 262.267 268.637 256.304 268.039 308.62Z" fill="black"/>
<path d="M276.488 356.167C279.136 356.167 281.282 354.022 281.282 351.374C281.282 348.727 279.136 346.582 276.488 346.582C273.841 346.582 271.694 348.727 271.694 351.374C271.694 354.022 273.841 356.167 276.488 356.167Z" fill="#575A89"/>
<path opacity="0.1" d="M303.078 169.769H303.03C302.158 169.792 301.31 170.06 300.583 170.543C299.856 171.026 299.28 171.704 298.921 172.499C298.857 172.643 298.794 172.786 298.73 172.945L297.703 171.95C297.695 171.863 297.695 171.775 297.703 171.687C297.8 170.988 298.165 170.354 298.722 169.92C299.256 169.478 299.895 169.182 300.577 169.059C301.259 168.936 301.962 168.991 302.616 169.219C302.847 169.331 303.126 169.514 303.078 169.769Z" fill="black"/>
</svg>
