<svg width="614" height="374" viewBox="0 0 614 374" fill="none" xmlns="http://www.w3.org/2000/svg">
<path d="M613.091 12.5396V361.46C613.091 362.384 613.014 363.305 612.86 364.207C612.413 366.959 611.238 369.433 609.532 371.215C607.827 372.997 605.693 373.98 603.487 374H9.66629C7.74412 373.985 5.87023 373.231 4.28945 371.838C2.70867 370.445 1.49451 368.476 0.805623 366.19C0.332867 364.686 0.0910417 363.08 0.0932714 361.46V12.5396C0.0750939 10.9152 0.308345 9.30214 0.779694 7.79262C1.25104 6.2831 1.95125 4.90673 2.84029 3.74218C3.72933 2.57763 4.78978 1.64773 5.96102 1.00562C7.13226 0.363516 8.39134 0.0218031 9.66629 0H603.518C604.793 0.0218031 606.052 0.363516 607.224 1.00562C608.395 1.64773 609.455 2.57763 610.344 3.74218C611.233 4.90673 611.933 6.2831 612.405 7.79262C612.876 9.30214 613.109 10.9152 613.091 12.5396V12.5396Z" fill="#F2F2F2"/>
<path opacity="0.03" d="M368.025 35.8276H76.5669V363.849H368.025V35.8276Z" fill="black"/>
<path opacity="0.03" d="M193.93 79.6167H126.433C120.003 79.6167 114.791 84.8281 114.791 91.2567V238.357C114.791 244.785 120.003 249.997 126.433 249.997H193.93C200.36 249.997 205.573 244.785 205.573 238.357V91.2567C205.573 84.8281 200.36 79.6167 193.93 79.6167Z" fill="black"/>
<path opacity="0.03" d="M250.661 249.997H318.159C324.589 249.997 329.801 244.785 329.801 238.357V91.2568C329.801 84.8282 324.589 79.6169 318.159 79.6169H250.661C244.231 79.6169 239.019 84.8282 239.019 91.2568V238.357C239.019 244.785 244.231 249.997 250.661 249.997Z" fill="black"/>
<path opacity="0.03" d="M398.779 249.997L576.171 249.997C584.8 249.997 591.795 243.003 591.795 234.376V57.0216C591.795 48.3945 584.8 41.4008 576.171 41.4008L398.779 41.4008C390.151 41.4008 383.155 48.3945 383.155 57.0216V234.376C383.155 243.003 390.151 249.997 398.779 249.997Z" fill="black"/>
<path d="M165.884 79.6167L114.791 135.54V152.777L178.195 79.6167H165.884Z" fill="#F2F2F2"/>
<path d="M205.573 137.18L114.791 225.825L115.189 241.637L205.971 152.777L205.573 137.18Z" fill="#F2F2F2"/>
<path d="M290.112 79.6167L239.019 135.54V152.777L302.423 79.6167H290.112Z" fill="#F2F2F2"/>
<path d="M329.801 137.18L239.019 225.825L239.417 241.637L330.199 152.777L329.801 137.18Z" fill="#F2F2F2"/>
<path d="M453.607 41.7988L384.35 121.169V172.052L488.67 41.7988H453.607Z" fill="#F2F2F2"/>
<path d="M545.56 41.7988L384.35 200.236V212.274L566.901 41.7988H545.56Z" fill="#F2F2F2"/>
<path opacity="0.03" d="M227.074 35.8276H217.518V363.849H227.074V35.8276Z" fill="black"/>
<path opacity="0.1" d="M245.079 78.5339C242.191 85.0991 241.463 92.4119 243.001 99.4174L243.486 92.5863C243.017 87.8423 243.559 83.0526 245.079 78.5339Z" fill="black"/>
</svg>
